<?xml version="1.0" encoding="UTF-8" standalone="no"?>
<!DOCTYPE svg PUBLIC "-//W3C//DTD SVG 1.1//EN"
 "http://www.w3.org/Graphics/SVG/1.1/DTD/svg11.dtd">
<!-- Generated by graphviz version 2.43.0 (0)
 -->
<!-- Title: Source/AmpController.cpp Pages: 1 -->
<svg width="1546pt" height="412pt"
 viewBox="0.00 0.00 1546.04 412.00" xmlns="http://www.w3.org/2000/svg" xmlns:xlink="http://www.w3.org/1999/xlink">
<g id="graph0" class="graph" transform="scale(1 1) rotate(0) translate(4 408)">
<title>Source/AmpController.cpp</title>
<!-- Node1 -->
<g id="Node000001" class="node">
<title>Node1</title>
<g id="a_Node000001"><a xlink:title=" ">
<polygon fill="#999999" stroke="#666666" points="278.5,-404 135.5,-404 135.5,-385 278.5,-385 278.5,-404"/>
<text text-anchor="middle" x="207" y="-392" font-family="Helvetica,sans-Serif" font-size="10.00">Source/AmpController.cpp</text>
</a>
</g>
</g>
<!-- Node2 -->
<g id="Node000002" class="node">
<title>Node2</title>
<g id="a_Node000002"><a xlink:href="AmpController_8h.html" target="_top" xlink:title=" ">
<polygon fill="white" stroke="#666666" points="292.5,-349 197.5,-349 197.5,-330 292.5,-330 292.5,-349"/>
<text text-anchor="middle" x="245" y="-337" font-family="Helvetica,sans-Serif" font-size="10.00">AmpController.h</text>
</a>
</g>
</g>
<!-- Node1&#45;&gt;Node2 -->
<g id="edge1_Node000001_Node000002" class="edge">
<title>Node1&#45;&gt;Node2</title>
<g id="a_edge1_Node000001_Node000002"><a xlink:title=" ">
<path fill="none" stroke="#63b8ff" d="M213.27,-384.75C218.59,-377.34 226.36,-366.5 232.88,-357.41"/>
<polygon fill="#63b8ff" stroke="#63b8ff" points="235.86,-359.26 238.84,-349.09 230.17,-355.18 235.86,-359.26"/>
</a>
</g>
</g>
<!-- Node11 -->
<g id="Node000011" class="node">
<title>Node11</title>
<g id="a_Node000011"><a xlink:href="Ocp1DataTypes_8h.html" target="_top" xlink:title=" ">
<polygon fill="white" stroke="#666666" points="147.5,-74 46.5,-74 46.5,-55 147.5,-55 147.5,-74"/>
<text text-anchor="middle" x="97" y="-62" font-family="Helvetica,sans-Serif" font-size="10.00">Ocp1DataTypes.h</text>
</a>
</g>
</g>
<!-- Node1&#45;&gt;Node11 -->
<g id="edge64_Node000001_Node000011" class="edge">
<title>Node1&#45;&gt;Node11</title>
<g id="a_edge64_Node000001_Node000011"><a xlink:title=" ">
<path fill="none" stroke="#63b8ff" d="M135.47,-385.62C75.64,-374.58 0,-348.23 0,-285.5 0,-285.5 0,-285.5 0,-228.5 0,-167.06 51.53,-108.59 79.47,-81.4"/>
<polygon fill="#63b8ff" stroke="#63b8ff" points="82.13,-83.71 86.98,-74.29 77.32,-78.62 82.13,-83.71"/>
</a>
</g>
</g>
<!-- Node25 -->
<g id="Node000025" class="node">
<title>Node25</title>
<g id="a_Node000025"><a xlink:href="Ocp1ObjectDefinitions_8h.html" target="_top" xlink:title=" ">
<polygon fill="white" stroke="#666666" points="236,-239 102,-239 102,-220 236,-220 236,-239"/>
<text text-anchor="middle" x="169" y="-227" font-family="Helvetica,sans-Serif" font-size="10.00">Ocp1ObjectDefinitions.h</text>
</a>
</g>
</g>
<!-- Node1&#45;&gt;Node25 -->
<g id="edge65_Node000001_Node000025" class="edge">
<title>Node1&#45;&gt;Node25</title>
<g id="a_edge65_Node000001_Node000025"><a xlink:title=" ">
<path fill="none" stroke="#63b8ff" d="M202.56,-384.87C198.22,-376.07 191.73,-361.91 188,-349 178.06,-314.6 172.9,-272.97 170.59,-249.33"/>
<polygon fill="#63b8ff" stroke="#63b8ff" points="174.06,-248.92 169.67,-239.28 167.09,-249.56 174.06,-248.92"/>
</a>
</g>
</g>
<!-- Node32 -->
<g id="Node000032" class="node">
<title>Node32</title>
<g id="a_Node000032"><a xlink:title=" ">
<polygon fill="#e0e0e0" stroke="#999999" points="363,-349 311,-349 311,-330 363,-330 363,-349"/>
<text text-anchor="middle" x="337" y="-337" font-family="Helvetica,sans-Serif" font-size="10.00">cassert</text>
</a>
</g>
</g>
<!-- Node1&#45;&gt;Node32 -->
<g id="edge66_Node000001_Node000032" class="edge">
<title>Node1&#45;&gt;Node32</title>
<g id="a_edge66_Node000001_Node000032"><a xlink:title=" ">
<path fill="none" stroke="#63b8ff" d="M227.89,-384.98C249.08,-376.34 282.13,-362.87 306.3,-353.02"/>
<polygon fill="#63b8ff" stroke="#63b8ff" points="307.79,-356.19 315.73,-349.17 305.15,-349.7 307.79,-356.19"/>
</a>
</g>
</g>
<!-- Node3 -->
<g id="Node000003" class="node">
<title>Node3</title>
<g id="a_Node000003"><a xlink:href="Ocp1Controller_8h.html" target="_top" xlink:title=" ">
<polygon fill="white" stroke="#666666" points="740,-294 642,-294 642,-275 740,-275 740,-294"/>
<text text-anchor="middle" x="691" y="-282" font-family="Helvetica,sans-Serif" font-size="10.00">Ocp1Controller.h</text>
</a>
</g>
</g>
<!-- Node2&#45;&gt;Node3 -->
<g id="edge2_Node000002_Node000003" class="edge">
<title>Node2&#45;&gt;Node3</title>
<g id="a_edge2_Node000002_Node000003"><a xlink:title=" ">
<path fill="none" stroke="#63b8ff" d="M292.57,-331.28C295.76,-330.84 298.92,-330.41 302,-330 418.5,-314.65 555.04,-299.74 631.44,-291.68"/>
<polygon fill="#63b8ff" stroke="#63b8ff" points="632.23,-295.11 641.81,-290.58 631.5,-288.15 632.23,-295.11"/>
</a>
</g>
</g>
<!-- Node5 -->
<g id="Node000005" class="node">
<title>Node5</title>
<g id="a_Node000005"><a xlink:title=" ">
<polygon fill="#e0e0e0" stroke="#999999" points="1338.5,-74 1273.5,-74 1273.5,-55 1338.5,-55 1338.5,-74"/>
<text text-anchor="middle" x="1306" y="-62" font-family="Helvetica,sans-Serif" font-size="10.00">functional</text>
</a>
</g>
</g>
<!-- Node2&#45;&gt;Node5 -->
<g id="edge63_Node000002_Node000005" class="edge">
<title>Node2&#45;&gt;Node5</title>
<g id="a_edge63_Node000002_Node000005"><a xlink:title=" ">
<path fill="none" stroke="#63b8ff" d="M292.55,-331.14C295.75,-330.73 298.92,-330.34 302,-330 436.65,-314.94 1425.84,-338.32 1518,-239 1582.24,-169.77 1419.25,-103.54 1342.9,-77.32"/>
<polygon fill="#63b8ff" stroke="#63b8ff" points="1343.77,-73.92 1333.17,-74.03 1341.53,-80.55 1343.77,-73.92"/>
</a>
</g>
</g>
<!-- Node14 -->
<g id="Node000014" class="node">
<title>Node14</title>
<g id="a_Node000014"><a xlink:title=" ">
<polygon fill="#e0e0e0" stroke="#999999" points="88,-19 38,-19 38,0 88,0 88,-19"/>
<text text-anchor="middle" x="63" y="-7" font-family="Helvetica,sans-Serif" font-size="10.00">cstdint</text>
</a>
</g>
</g>
<!-- Node2&#45;&gt;Node14 -->
<g id="edge62_Node000002_Node000014" class="edge">
<title>Node2&#45;&gt;Node14</title>
<g id="a_edge62_Node000002_Node000014"><a xlink:title=" ">
<path fill="none" stroke="#63b8ff" d="M223.59,-329.97C190.83,-315.87 128.35,-284.63 93,-239 45.57,-177.78 49.61,-150.41 37,-74 35.62,-65.67 34.79,-63.15 37,-55 39.66,-45.19 45.07,-35.33 50.28,-27.39"/>
<polygon fill="#63b8ff" stroke="#63b8ff" points="53.23,-29.27 56.11,-19.07 47.5,-25.25 53.23,-29.27"/>
</a>
</g>
</g>
<!-- Node4 -->
<g id="Node000004" class="node">
<title>Node4</title>
<g id="a_Node000004"><a xlink:href="NanoOcp1_8h.html" target="_top" xlink:title=" ">
<polygon fill="white" stroke="#666666" points="729,-239 653,-239 653,-220 729,-220 729,-239"/>
<text text-anchor="middle" x="691" y="-227" font-family="Helvetica,sans-Serif" font-size="10.00">NanoOcp1.h</text>
</a>
</g>
</g>
<!-- Node3&#45;&gt;Node4 -->
<g id="edge3_Node000003_Node000004" class="edge">
<title>Node3&#45;&gt;Node4</title>
<g id="a_edge3_Node000003_Node000004"><a xlink:title=" ">
<path fill="none" stroke="#63b8ff" d="M691,-274.75C691,-267.8 691,-257.85 691,-249.13"/>
<polygon fill="#63b8ff" stroke="#63b8ff" points="694.5,-249.09 691,-239.09 687.5,-249.09 694.5,-249.09"/>
</a>
</g>
</g>
<!-- Node3&#45;&gt;Node5 -->
<g id="edge55_Node000003_Node000005" class="edge">
<title>Node3&#45;&gt;Node5</title>
<g id="a_edge55_Node000003_Node000005"><a xlink:title=" ">
<path fill="none" stroke="#63b8ff" d="M740.01,-279.39C803.22,-273.48 916.3,-260.81 1011,-239 1087.97,-221.27 1107.2,-214.66 1180,-184 1228.55,-163.55 1250.91,-169.16 1285,-129 1295.68,-116.41 1300.98,-98.22 1303.57,-84.53"/>
<polygon fill="#63b8ff" stroke="#63b8ff" points="1307.08,-84.73 1305.18,-74.31 1300.17,-83.65 1307.08,-84.73"/>
</a>
</g>
</g>
<!-- Node6 -->
<g id="Node000006" class="node">
<title>Node6</title>
<g id="a_Node000006"><a xlink:title=" ">
<polygon fill="#e0e0e0" stroke="#999999" points="316,-129 258,-129 258,-110 316,-110 316,-129"/>
<text text-anchor="middle" x="287" y="-117" font-family="Helvetica,sans-Serif" font-size="10.00">memory</text>
</a>
</g>
</g>
<!-- Node3&#45;&gt;Node6 -->
<g id="edge57_Node000003_Node000006" class="edge">
<title>Node3&#45;&gt;Node6</title>
<g id="a_edge57_Node000003_Node000006"><a xlink:title=" ">
<path fill="none" stroke="#63b8ff" d="M641.85,-277.59C571.97,-267.43 441.88,-241.86 347,-184 327.27,-171.97 309.77,-151.76 298.84,-137.38"/>
<polygon fill="#63b8ff" stroke="#63b8ff" points="301.65,-135.29 292.91,-129.3 296,-139.43 301.65,-135.29"/>
</a>
</g>
</g>
<!-- Node7 -->
<g id="Node000007" class="node">
<title>Node7</title>
<g id="a_Node000007"><a xlink:title=" ">
<polygon fill="#e0e0e0" stroke="#999999" points="698,-19 654,-19 654,0 698,0 698,-19"/>
<text text-anchor="middle" x="676" y="-7" font-family="Helvetica,sans-Serif" font-size="10.00">string</text>
</a>
</g>
</g>
<!-- Node3&#45;&gt;Node7 -->
<g id="edge59_Node000003_Node000007" class="edge">
<title>Node3&#45;&gt;Node7</title>
<g id="a_edge59_Node000003_Node000007"><a xlink:title=" ">
<path fill="none" stroke="#63b8ff" d="M740.05,-281.64C907.02,-274.68 1443,-246.76 1443,-175.5 1443,-175.5 1443,-175.5 1443,-118.5 1443,-74.14 1407.24,-71.33 1366,-55 1304.45,-30.63 836.73,-15.22 708.45,-11.42"/>
<polygon fill="#63b8ff" stroke="#63b8ff" points="708.22,-7.91 698.12,-11.12 708.01,-14.91 708.22,-7.91"/>
</a>
</g>
</g>
<!-- Node9 -->
<g id="Node000009" class="node">
<title>Node9</title>
<g id="a_Node000009"><a xlink:title=" ">
<polygon fill="#e0e0e0" stroke="#999999" points="625,-74 575,-74 575,-55 625,-55 625,-74"/>
<text text-anchor="middle" x="600" y="-62" font-family="Helvetica,sans-Serif" font-size="10.00">atomic</text>
</a>
</g>
</g>
<!-- Node3&#45;&gt;Node9 -->
<g id="edge54_Node000003_Node000009" class="edge">
<title>Node3&#45;&gt;Node9</title>
<g id="a_edge54_Node000003_Node000009"><a xlink:title=" ">
<path fill="none" stroke="#63b8ff" d="M679.06,-274.84C668.53,-266.66 653.44,-253.51 644,-239 615.72,-195.52 615.8,-179.73 605,-129 601.86,-114.26 600.65,-97.22 600.2,-84.5"/>
<polygon fill="#63b8ff" stroke="#63b8ff" points="603.69,-84.15 599.97,-74.23 596.69,-84.31 603.69,-84.15"/>
</a>
</g>
</g>
<!-- Node12 -->
<g id="Node000012" class="node">
<title>Node12</title>
<g id="a_Node000012"><a xlink:title=" ">
<polygon fill="#e0e0e0" stroke="#999999" points="1161.5,-19 1114.5,-19 1114.5,0 1161.5,0 1161.5,-19"/>
<text text-anchor="middle" x="1138" y="-7" font-family="Helvetica,sans-Serif" font-size="10.00">vector</text>
</a>
</g>
</g>
<!-- Node3&#45;&gt;Node12 -->
<g id="edge61_Node000003_Node000012" class="edge">
<title>Node3&#45;&gt;Node12</title>
<g id="a_edge61_Node000003_Node000012"><a xlink:title=" ">
<path fill="none" stroke="#63b8ff" d="M740.3,-282.4C913.79,-278.34 1487.34,-263.14 1518,-239 1541.15,-220.78 1537,-204.96 1537,-175.5 1537,-175.5 1537,-175.5 1537,-118.5 1537,-43.1 1268.19,-18.72 1171.85,-12.4"/>
<polygon fill="#63b8ff" stroke="#63b8ff" points="1171.96,-8.9 1161.76,-11.76 1171.52,-15.88 1171.96,-8.9"/>
</a>
</g>
</g>
<!-- Node18 -->
<g id="Node000018" class="node">
<title>Node18</title>
<g id="a_Node000018"><a xlink:title=" ">
<polygon fill="#e0e0e0" stroke="#999999" points="1162,-74 1114,-74 1114,-55 1162,-55 1162,-74"/>
<text text-anchor="middle" x="1138" y="-62" font-family="Helvetica,sans-Serif" font-size="10.00">mutex</text>
</a>
</g>
</g>
<!-- Node3&#45;&gt;Node18 -->
<g id="edge58_Node000003_Node000018" class="edge">
<title>Node3&#45;&gt;Node18</title>
<g id="a_edge58_Node000003_Node000018"><a xlink:title=" ">
<path fill="none" stroke="#63b8ff" d="M740.3,-277.03C862.44,-259.89 1173.53,-209.07 1234,-129 1239.09,-122.26 1238.55,-117.12 1234,-110 1226.75,-98.66 1196.35,-85.72 1171.67,-76.73"/>
<polygon fill="#63b8ff" stroke="#63b8ff" points="1172.8,-73.42 1162.21,-73.37 1170.46,-80.01 1172.8,-73.42"/>
</a>
</g>
</g>
<!-- Node24 -->
<g id="Node000024" class="node">
<title>Node24</title>
<g id="a_Node000024"><a xlink:href="NanoTimer_8h.html" target="_top" xlink:title=" ">
<polygon fill="white" stroke="#666666" points="1033.5,-129 914.5,-129 914.5,-110 1033.5,-110 1033.5,-129"/>
<text text-anchor="middle" x="974" y="-117" font-family="Helvetica,sans-Serif" font-size="10.00">internal/NanoTimer.h</text>
</a>
</g>
</g>
<!-- Node3&#45;&gt;Node24 -->
<g id="edge53_Node000003_Node000024" class="edge">
<title>Node3&#45;&gt;Node24</title>
<g id="a_edge53_Node000003_Node000024"><a xlink:title=" ">
<path fill="none" stroke="#63b8ff" d="M705.82,-274.97C751.94,-248.4 893.25,-167.01 950.02,-134.31"/>
<polygon fill="#63b8ff" stroke="#63b8ff" points="952.07,-137.17 958.99,-129.15 948.58,-131.1 952.07,-137.17"/>
</a>
</g>
</g>
<!-- Node3&#45;&gt;Node25 -->
<g id="edge42_Node000003_Node000025" class="edge">
<title>Node3&#45;&gt;Node25</title>
<g id="a_edge42_Node000003_Node000025"><a xlink:title=" ">
<path fill="none" stroke="#63b8ff" d="M641.72,-278.59C560.21,-270.46 392.19,-253.63 250,-239 248.73,-238.87 247.46,-238.74 246.17,-238.61"/>
<polygon fill="#63b8ff" stroke="#63b8ff" points="246.49,-235.12 236.18,-237.57 245.77,-242.08 246.49,-235.12"/>
</a>
</g>
</g>
<!-- Node27 -->
<g id="Node000027" class="node">
<title>Node27</title>
<g id="a_Node000027"><a xlink:href="Variant_8h.html" target="_top" xlink:title=" ">
<polygon fill="white" stroke="#666666" points="240,-129 180,-129 180,-110 240,-110 240,-129"/>
<text text-anchor="middle" x="210" y="-117" font-family="Helvetica,sans-Serif" font-size="10.00">Variant.h</text>
</a>
</g>
</g>
<!-- Node3&#45;&gt;Node27 -->
<g id="edge52_Node000003_Node000027" class="edge">
<title>Node3&#45;&gt;Node27</title>
<g id="a_edge52_Node000003_Node000027"><a xlink:title=" ">
<path fill="none" stroke="#63b8ff" d="M641.93,-283.83C546.48,-283.57 340.17,-278.32 283,-239 252.54,-218.05 264.96,-196.12 245,-165 238.78,-155.3 230.91,-145.15 224.21,-137"/>
<polygon fill="#63b8ff" stroke="#63b8ff" points="226.88,-134.73 217.77,-129.32 221.52,-139.23 226.88,-134.73"/>
</a>
</g>
</g>
<!-- Node30 -->
<g id="Node000030" class="node">
<title>Node30</title>
<g id="a_Node000030"><a xlink:title=" ">
<polygon fill="#e0e0e0" stroke="#999999" points="1509,-239 1471,-239 1471,-220 1509,-220 1509,-239"/>
<text text-anchor="middle" x="1490" y="-227" font-family="Helvetica,sans-Serif" font-size="10.00">map</text>
</a>
</g>
</g>
<!-- Node3&#45;&gt;Node30 -->
<g id="edge56_Node000003_Node000030" class="edge">
<title>Node3&#45;&gt;Node30</title>
<g id="a_edge56_Node000003_Node000030"><a xlink:title=" ">
<path fill="none" stroke="#63b8ff" d="M740.19,-283.93C862.31,-284.3 1188.84,-280.92 1457,-239 1458.28,-238.8 1459.59,-238.57 1460.9,-238.32"/>
<polygon fill="#63b8ff" stroke="#63b8ff" points="1461.94,-241.68 1470.94,-236.08 1460.41,-234.84 1461.94,-241.68"/>
</a>
</g>
</g>
<!-- Node31 -->
<g id="Node000031" class="node">
<title>Node31</title>
<g id="a_Node000031"><a xlink:title=" ">
<polygon fill="#e0e0e0" stroke="#999999" points="385.5,-239 292.5,-239 292.5,-220 385.5,-220 385.5,-239"/>
<text text-anchor="middle" x="339" y="-227" font-family="Helvetica,sans-Serif" font-size="10.00">unordered_map</text>
</a>
</g>
</g>
<!-- Node3&#45;&gt;Node31 -->
<g id="edge60_Node000003_Node000031" class="edge">
<title>Node3&#45;&gt;Node31</title>
<g id="a_edge60_Node000003_Node000031"><a xlink:title=" ">
<path fill="none" stroke="#63b8ff" d="M641.69,-276.07C577.08,-266.35 464.01,-249.32 395.86,-239.06"/>
<polygon fill="#63b8ff" stroke="#63b8ff" points="396.15,-235.57 385.74,-237.54 395.1,-242.49 396.15,-235.57"/>
</a>
</g>
</g>
<!-- Node4&#45;&gt;Node5 -->
<g id="edge4_Node000004_Node000005" class="edge">
<title>Node4&#45;&gt;Node5</title>
<g id="a_edge4_Node000004_Node000005"><a xlink:title=" ">
<path fill="none" stroke="#63b8ff" d="M729.03,-225.69C841.87,-216.76 1172.44,-186.24 1262,-129 1279.08,-118.08 1291.33,-97.93 1298.5,-83.24"/>
<polygon fill="#63b8ff" stroke="#63b8ff" points="1301.69,-84.68 1302.64,-74.13 1295.32,-81.78 1301.69,-84.68"/>
</a>
</g>
</g>
<!-- Node4&#45;&gt;Node6 -->
<g id="edge5_Node000004_Node000006" class="edge">
<title>Node4&#45;&gt;Node6</title>
<g id="a_edge5_Node000004_Node000006"><a xlink:title=" ">
<path fill="none" stroke="#63b8ff" d="M652.59,-227.82C593.99,-225.69 479.55,-217.22 389,-184 357.41,-172.41 325.14,-150.22 305.58,-135.38"/>
<polygon fill="#63b8ff" stroke="#63b8ff" points="307.59,-132.51 297.54,-129.15 303.3,-138.04 307.59,-132.51"/>
</a>
</g>
</g>
<!-- Node4&#45;&gt;Node7 -->
<g id="edge6_Node000004_Node000007" class="edge">
<title>Node4&#45;&gt;Node7</title>
<g id="a_edge6_Node000004_Node000007"><a xlink:title=" ">
<path fill="none" stroke="#63b8ff" d="M729.14,-227.85C806.48,-225.85 986.87,-217.63 1134,-184 1203.63,-168.09 1223.5,-165.32 1285,-129 1322.19,-107.03 1377.52,-86.54 1348,-55 1325.9,-31.39 839.93,-15.35 708.51,-11.43"/>
<polygon fill="#63b8ff" stroke="#63b8ff" points="708.39,-7.93 698.29,-11.13 708.18,-14.92 708.39,-7.93"/>
</a>
</g>
</g>
<!-- Node8 -->
<g id="Node000008" class="node">
<title>Node8</title>
<g id="a_Node000008"><a xlink:href="Ocp1Connection_8h.html" target="_top" xlink:title=" ">
<polygon fill="white" stroke="#666666" points="743.5,-184 638.5,-184 638.5,-165 743.5,-165 743.5,-184"/>
<text text-anchor="middle" x="691" y="-172" font-family="Helvetica,sans-Serif" font-size="10.00">Ocp1Connection.h</text>
</a>
</g>
</g>
<!-- Node4&#45;&gt;Node8 -->
<g id="edge7_Node000004_Node000008" class="edge">
<title>Node4&#45;&gt;Node8</title>
<g id="a_edge7_Node000004_Node000008"><a xlink:title=" ">
<path fill="none" stroke="#63b8ff" d="M691,-219.75C691,-212.8 691,-202.85 691,-194.13"/>
<polygon fill="#63b8ff" stroke="#63b8ff" points="694.5,-194.09 691,-184.09 687.5,-194.09 694.5,-194.09"/>
</a>
</g>
</g>
<!-- Node4&#45;&gt;Node11 -->
<g id="edge36_Node000004_Node000011" class="edge">
<title>Node4&#45;&gt;Node11</title>
<g id="a_edge36_Node000004_Node000011"><a xlink:title=" ">
<path fill="none" stroke="#63b8ff" d="M652.89,-227.91C533.68,-225.73 173.36,-216.49 133,-184 117.41,-171.45 105.45,-114.46 100.09,-84.32"/>
<polygon fill="#63b8ff" stroke="#63b8ff" points="103.5,-83.5 98.37,-74.23 96.6,-84.68 103.5,-83.5"/>
</a>
</g>
</g>
<!-- Node23 -->
<g id="Node000023" class="node">
<title>Node23</title>
<g id="a_Node000023"><a xlink:href="Ocp1ConnectionServer_8h.html" target="_top" xlink:title=" ">
<polygon fill="white" stroke="#666666" points="534,-184 398,-184 398,-165 534,-165 534,-184"/>
<text text-anchor="middle" x="466" y="-172" font-family="Helvetica,sans-Serif" font-size="10.00">Ocp1ConnectionServer.h</text>
</a>
</g>
</g>
<!-- Node4&#45;&gt;Node23 -->
<g id="edge31_Node000004_Node000023" class="edge">
<title>Node4&#45;&gt;Node23</title>
<g id="a_edge31_Node000004_Node000023"><a xlink:title=" ">
<path fill="none" stroke="#63b8ff" d="M654.85,-219.98C616.09,-210.86 554.45,-196.33 512.2,-186.38"/>
<polygon fill="#63b8ff" stroke="#63b8ff" points="512.97,-182.97 502.43,-184.08 511.36,-189.78 512.97,-182.97"/>
</a>
</g>
</g>
<!-- Node4&#45;&gt;Node24 -->
<g id="edge37_Node000004_Node000024" class="edge">
<title>Node4&#45;&gt;Node24</title>
<g id="a_edge37_Node000004_Node000024"><a xlink:title=" ">
<path fill="none" stroke="#63b8ff" d="M713.68,-219.84C763.9,-200.68 884.57,-154.63 942.25,-132.62"/>
<polygon fill="#63b8ff" stroke="#63b8ff" points="943.51,-135.88 951.6,-129.05 941.01,-129.34 943.51,-135.88"/>
</a>
</g>
</g>
<!-- Node8&#45;&gt;Node5 -->
<g id="edge9_Node000008_Node000005" class="edge">
<title>Node8&#45;&gt;Node5</title>
<g id="a_edge9_Node000008_Node000005"><a xlink:title=" ">
<path fill="none" stroke="#63b8ff" d="M743.75,-173.37C862.38,-172.41 1146.64,-166.17 1234,-129 1257.85,-118.85 1279.29,-97.61 1292.45,-82.49"/>
<polygon fill="#63b8ff" stroke="#63b8ff" points="1295.46,-84.34 1299.19,-74.42 1290.09,-79.85 1295.46,-84.34"/>
</a>
</g>
</g>
<!-- Node8&#45;&gt;Node6 -->
<g id="edge10_Node000008_Node000006" class="edge">
<title>Node8&#45;&gt;Node6</title>
<g id="a_edge10_Node000008_Node000006"><a xlink:title=" ">
<path fill="none" stroke="#63b8ff" d="M638.18,-166.57C555.93,-155.78 399.1,-135.21 326.14,-125.63"/>
<polygon fill="#63b8ff" stroke="#63b8ff" points="326.37,-122.14 316,-124.3 325.46,-129.08 326.37,-122.14"/>
</a>
</g>
</g>
<!-- Node8&#45;&gt;Node7 -->
<g id="edge12_Node000008_Node000007" class="edge">
<title>Node8&#45;&gt;Node7</title>
<g id="a_edge12_Node000008_Node000007"><a xlink:title=" ">
<path fill="none" stroke="#63b8ff" d="M716.05,-164.99C732.26,-158.04 752.12,-146.48 762,-129 778.19,-100.37 780.16,-83.06 763,-55 751.09,-35.53 727.67,-24.23 708.12,-17.9"/>
<polygon fill="#63b8ff" stroke="#63b8ff" points="708.92,-14.48 698.34,-15.02 706.94,-21.2 708.92,-14.48"/>
</a>
</g>
</g>
<!-- Node8&#45;&gt;Node9 -->
<g id="edge8_Node000008_Node000009" class="edge">
<title>Node8&#45;&gt;Node9</title>
<g id="a_edge8_Node000008_Node000009"><a xlink:title=" ">
<path fill="none" stroke="#63b8ff" d="M668.77,-164.89C652.75,-157.61 631.78,-145.68 619,-129 609.05,-116.01 604.29,-97.86 602.02,-84.29"/>
<polygon fill="#63b8ff" stroke="#63b8ff" points="605.47,-83.62 600.65,-74.18 598.53,-84.56 605.47,-83.62"/>
</a>
</g>
</g>
<!-- Node10 -->
<g id="Node000010" class="node">
<title>Node10</title>
<g id="a_Node000010"><a xlink:title=" ">
<polygon fill="#e0e0e0" stroke="#999999" points="896,-129 810,-129 810,-110 896,-110 896,-129"/>
<text text-anchor="middle" x="853" y="-117" font-family="Helvetica,sans-Serif" font-size="10.00">shared_mutex</text>
</a>
</g>
</g>
<!-- Node8&#45;&gt;Node10 -->
<g id="edge11_Node000008_Node000010" class="edge">
<title>Node8&#45;&gt;Node10</title>
<g id="a_edge11_Node000008_Node000010"><a xlink:title=" ">
<path fill="none" stroke="#63b8ff" d="M717.03,-164.98C744.11,-156.13 786.71,-142.19 817.01,-132.28"/>
<polygon fill="#63b8ff" stroke="#63b8ff" points="818.35,-135.52 826.77,-129.08 816.18,-128.87 818.35,-135.52"/>
</a>
</g>
</g>
<!-- Node8&#45;&gt;Node11 -->
<g id="edge13_Node000008_Node000011" class="edge">
<title>Node8&#45;&gt;Node11</title>
<g id="a_edge13_Node000008_Node000011"><a xlink:title=" ">
<path fill="none" stroke="#63b8ff" d="M670.78,-164.94C637.07,-151.06 566.95,-123.78 505,-110 471.97,-102.66 263.38,-81.72 157.91,-71.4"/>
<polygon fill="#63b8ff" stroke="#63b8ff" points="158.02,-67.89 147.73,-70.4 157.34,-74.86 158.02,-67.89"/>
</a>
</g>
</g>
<!-- Node15 -->
<g id="Node000015" class="node">
<title>Node15</title>
<g id="a_Node000015"><a xlink:href="NanoAsyncDispatcher_8h.html" target="_top" xlink:title=" ">
<polygon fill="white" stroke="#666666" points="1224.5,-129 1051.5,-129 1051.5,-110 1224.5,-110 1224.5,-129"/>
<text text-anchor="middle" x="1138" y="-117" font-family="Helvetica,sans-Serif" font-size="10.00">internal/NanoAsyncDispatcher.h</text>
</a>
</g>
</g>
<!-- Node8&#45;&gt;Node15 -->
<g id="edge18_Node000008_Node000015" class="edge">
<title>Node8&#45;&gt;Node15</title>
<g id="a_edge18_Node000008_Node000015"><a xlink:title=" ">
<path fill="none" stroke="#63b8ff" d="M743.59,-167.26C820.67,-158.13 965.01,-141.01 1056.07,-130.21"/>
<polygon fill="#63b8ff" stroke="#63b8ff" points="1056.56,-133.68 1066.08,-129.03 1055.73,-126.73 1056.56,-133.68"/>
</a>
</g>
</g>
<!-- Node20 -->
<g id="Node000020" class="node">
<title>Node20</title>
<g id="a_Node000020"><a xlink:href="NanoSocket_8h.html" target="_top" xlink:title=" ">
<polygon fill="white" stroke="#666666" points="496,-129 372,-129 372,-110 496,-110 496,-129"/>
<text text-anchor="middle" x="434" y="-117" font-family="Helvetica,sans-Serif" font-size="10.00">internal/NanoSocket.h</text>
</a>
</g>
</g>
<!-- Node8&#45;&gt;Node20 -->
<g id="edge24_Node000008_Node000020" class="edge">
<title>Node8&#45;&gt;Node20</title>
<g id="a_edge24_Node000008_Node000020"><a xlink:title=" ">
<path fill="none" stroke="#63b8ff" d="M649.71,-164.98C605.07,-155.78 533.84,-141.09 485.55,-131.13"/>
<polygon fill="#63b8ff" stroke="#63b8ff" points="486.12,-127.67 475.62,-129.08 484.7,-134.53 486.12,-127.67"/>
</a>
</g>
</g>
<!-- Node21 -->
<g id="Node000021" class="node">
<title>Node21</title>
<g id="a_Node000021"><a xlink:href="NanoThread_8h.html" target="_top" xlink:title=" ">
<polygon fill="white" stroke="#666666" points="753.5,-129 628.5,-129 628.5,-110 753.5,-110 753.5,-129"/>
<text text-anchor="middle" x="691" y="-117" font-family="Helvetica,sans-Serif" font-size="10.00">internal/NanoThread.h</text>
</a>
</g>
</g>
<!-- Node8&#45;&gt;Node21 -->
<g id="edge26_Node000008_Node000021" class="edge">
<title>Node8&#45;&gt;Node21</title>
<g id="a_edge26_Node000008_Node000021"><a xlink:title=" ">
<path fill="none" stroke="#63b8ff" d="M691,-164.75C691,-157.8 691,-147.85 691,-139.13"/>
<polygon fill="#63b8ff" stroke="#63b8ff" points="694.5,-139.09 691,-129.09 687.5,-139.09 694.5,-139.09"/>
</a>
</g>
</g>
<!-- Node11&#45;&gt;Node7 -->
<g id="edge15_Node000011_Node000007" class="edge">
<title>Node11&#45;&gt;Node7</title>
<g id="a_edge15_Node000011_Node000007"><a xlink:title=" ">
<path fill="none" stroke="#63b8ff" d="M147.62,-58.87C263.96,-48.22 547.75,-22.24 643.69,-13.46"/>
<polygon fill="#63b8ff" stroke="#63b8ff" points="644.29,-16.92 653.93,-12.52 643.65,-9.95 644.29,-16.92"/>
</a>
</g>
</g>
<!-- Node11&#45;&gt;Node12 -->
<g id="edge14_Node000011_Node000012" class="edge">
<title>Node11&#45;&gt;Node12</title>
<g id="a_edge14_Node000011_Node000012"><a xlink:title=" ">
<path fill="none" stroke="#63b8ff" d="M147.58,-58.73C162.81,-57.4 179.58,-56.03 195,-55 550.18,-31.23 981.46,-15.76 1104.05,-11.62"/>
<polygon fill="#63b8ff" stroke="#63b8ff" points="1104.42,-15.11 1114.29,-11.27 1104.18,-8.11 1104.42,-15.11"/>
</a>
</g>
</g>
<!-- Node13 -->
<g id="Node000013" class="node">
<title>Node13</title>
<g id="a_Node000013"><a xlink:title=" ">
<polygon fill="#e0e0e0" stroke="#999999" points="153.5,-19 106.5,-19 106.5,0 153.5,0 153.5,-19"/>
<text text-anchor="middle" x="130" y="-7" font-family="Helvetica,sans-Serif" font-size="10.00">cmath</text>
</a>
</g>
</g>
<!-- Node11&#45;&gt;Node13 -->
<g id="edge16_Node000011_Node000013" class="edge">
<title>Node11&#45;&gt;Node13</title>
<g id="a_edge16_Node000011_Node000013"><a xlink:title=" ">
<path fill="none" stroke="#63b8ff" d="M102.45,-54.75C107.01,-47.42 113.67,-36.73 119.29,-27.7"/>
<polygon fill="#63b8ff" stroke="#63b8ff" points="122.34,-29.43 124.65,-19.09 116.4,-25.73 122.34,-29.43"/>
</a>
</g>
</g>
<!-- Node11&#45;&gt;Node14 -->
<g id="edge17_Node000011_Node000014" class="edge">
<title>Node11&#45;&gt;Node14</title>
<g id="a_edge17_Node000011_Node000014"><a xlink:title=" ">
<path fill="none" stroke="#63b8ff" d="M91.39,-54.75C86.68,-47.42 79.83,-36.73 74.03,-27.7"/>
<polygon fill="#63b8ff" stroke="#63b8ff" points="76.86,-25.62 68.51,-19.09 70.96,-29.4 76.86,-25.62"/>
</a>
</g>
</g>
<!-- Node15&#45;&gt;Node5 -->
<g id="edge21_Node000015_Node000005" class="edge">
<title>Node15&#45;&gt;Node5</title>
<g id="a_edge21_Node000015_Node000005"><a xlink:title=" ">
<path fill="none" stroke="#63b8ff" d="M1164.99,-109.98C1193.2,-101.09 1237.64,-87.07 1269.08,-77.15"/>
<polygon fill="#63b8ff" stroke="#63b8ff" points="1270.31,-80.43 1278.8,-74.08 1268.21,-73.75 1270.31,-80.43"/>
</a>
</g>
</g>
<!-- Node16 -->
<g id="Node000016" class="node">
<title>Node16</title>
<g id="a_Node000016"><a xlink:title=" ">
<polygon fill="#e0e0e0" stroke="#999999" points="1095.5,-74 988.5,-74 988.5,-55 1095.5,-55 1095.5,-74"/>
<text text-anchor="middle" x="1042" y="-62" font-family="Helvetica,sans-Serif" font-size="10.00">condition_variable</text>
</a>
</g>
</g>
<!-- Node15&#45;&gt;Node16 -->
<g id="edge19_Node000015_Node000016" class="edge">
<title>Node15&#45;&gt;Node16</title>
<g id="a_edge19_Node000015_Node000016"><a xlink:title=" ">
<path fill="none" stroke="#63b8ff" d="M1122.58,-109.98C1107.55,-101.69 1084.46,-88.94 1066.84,-79.22"/>
<polygon fill="#63b8ff" stroke="#63b8ff" points="1068.15,-75.94 1057.7,-74.17 1064.77,-82.07 1068.15,-75.94"/>
</a>
</g>
</g>
<!-- Node17 -->
<g id="Node000017" class="node">
<title>Node17</title>
<g id="a_Node000017"><a xlink:title=" ">
<polygon fill="#e0e0e0" stroke="#999999" points="1227.5,-74 1180.5,-74 1180.5,-55 1227.5,-55 1227.5,-74"/>
<text text-anchor="middle" x="1204" y="-62" font-family="Helvetica,sans-Serif" font-size="10.00">deque</text>
</a>
</g>
</g>
<!-- Node15&#45;&gt;Node17 -->
<g id="edge20_Node000015_Node000017" class="edge">
<title>Node15&#45;&gt;Node17</title>
<g id="a_edge20_Node000015_Node000017"><a xlink:title=" ">
<path fill="none" stroke="#63b8ff" d="M1148.6,-109.98C1158.46,-102.07 1173.35,-90.11 1185.22,-80.58"/>
<polygon fill="#63b8ff" stroke="#63b8ff" points="1187.6,-83.16 1193.2,-74.17 1183.21,-77.7 1187.6,-83.16"/>
</a>
</g>
</g>
<!-- Node15&#45;&gt;Node18 -->
<g id="edge22_Node000015_Node000018" class="edge">
<title>Node15&#45;&gt;Node18</title>
<g id="a_edge22_Node000015_Node000018"><a xlink:title=" ">
<path fill="none" stroke="#63b8ff" d="M1138,-109.75C1138,-102.8 1138,-92.85 1138,-84.13"/>
<polygon fill="#63b8ff" stroke="#63b8ff" points="1141.5,-84.09 1138,-74.09 1134.5,-84.09 1141.5,-84.09"/>
</a>
</g>
</g>
<!-- Node19 -->
<g id="Node000019" class="node">
<title>Node19</title>
<g id="a_Node000019"><a xlink:title=" ">
<polygon fill="#e0e0e0" stroke="#999999" points="970,-74 922,-74 922,-55 970,-55 970,-74"/>
<text text-anchor="middle" x="946" y="-62" font-family="Helvetica,sans-Serif" font-size="10.00">thread</text>
</a>
</g>
</g>
<!-- Node15&#45;&gt;Node19 -->
<g id="edge23_Node000015_Node000019" class="edge">
<title>Node15&#45;&gt;Node19</title>
<g id="a_edge23_Node000015_Node000019"><a xlink:title=" ">
<path fill="none" stroke="#63b8ff" d="M1107.15,-109.98C1072.42,-100.4 1016.14,-84.86 980.12,-74.92"/>
<polygon fill="#63b8ff" stroke="#63b8ff" points="980.66,-71.44 970.09,-72.15 978.79,-78.18 980.66,-71.44"/>
</a>
</g>
</g>
<!-- Node20&#45;&gt;Node7 -->
<g id="edge25_Node000020_Node000007" class="edge">
<title>Node20&#45;&gt;Node7</title>
<g id="a_edge25_Node000020_Node000007"><a xlink:title=" ">
<path fill="none" stroke="#63b8ff" d="M450.92,-109.93C475.88,-97.39 524.14,-73.51 566,-55 592.14,-43.44 622.26,-31.34 644.36,-22.68"/>
<polygon fill="#63b8ff" stroke="#63b8ff" points="645.87,-25.85 653.91,-18.96 643.32,-19.33 645.87,-25.85"/>
</a>
</g>
</g>
<!-- Node21&#45;&gt;Node7 -->
<g id="edge29_Node000021_Node000007" class="edge">
<title>Node21&#45;&gt;Node7</title>
<g id="a_edge29_Node000021_Node000007"><a xlink:title=" ">
<path fill="none" stroke="#63b8ff" d="M689.77,-109.66C687.34,-92.17 681.88,-52.8 678.61,-29.27"/>
<polygon fill="#63b8ff" stroke="#63b8ff" points="682.05,-28.58 677.2,-19.16 675.11,-29.54 682.05,-28.58"/>
</a>
</g>
</g>
<!-- Node21&#45;&gt;Node9 -->
<g id="edge27_Node000021_Node000009" class="edge">
<title>Node21&#45;&gt;Node9</title>
<g id="a_edge27_Node000021_Node000009"><a xlink:title=" ">
<path fill="none" stroke="#63b8ff" d="M676.38,-109.98C662.14,-101.69 640.25,-88.94 623.55,-79.22"/>
<polygon fill="#63b8ff" stroke="#63b8ff" points="625.29,-76.18 614.89,-74.17 621.77,-82.23 625.29,-76.18"/>
</a>
</g>
</g>
<!-- Node21&#45;&gt;Node19 -->
<g id="edge30_Node000021_Node000019" class="edge">
<title>Node21&#45;&gt;Node19</title>
<g id="a_edge30_Node000021_Node000019"><a xlink:title=" ">
<path fill="none" stroke="#63b8ff" d="M731.97,-109.98C781.84,-99.62 865.14,-82.31 911.75,-72.62"/>
<polygon fill="#63b8ff" stroke="#63b8ff" points="912.59,-76.02 921.67,-70.56 911.17,-69.16 912.59,-76.02"/>
</a>
</g>
</g>
<!-- Node22 -->
<g id="Node000022" class="node">
<title>Node22</title>
<g id="a_Node000022"><a xlink:title=" ">
<polygon fill="#e0e0e0" stroke="#999999" points="754,-74 704,-74 704,-55 754,-55 754,-74"/>
<text text-anchor="middle" x="729" y="-62" font-family="Helvetica,sans-Serif" font-size="10.00">chrono</text>
</a>
</g>
</g>
<!-- Node21&#45;&gt;Node22 -->
<g id="edge28_Node000021_Node000022" class="edge">
<title>Node21&#45;&gt;Node22</title>
<g id="a_edge28_Node000021_Node000022"><a xlink:title=" ">
<path fill="none" stroke="#63b8ff" d="M697.27,-109.75C702.59,-102.34 710.36,-91.5 716.88,-82.41"/>
<polygon fill="#63b8ff" stroke="#63b8ff" points="719.86,-84.26 722.84,-74.09 714.17,-80.18 719.86,-84.26"/>
</a>
</g>
</g>
<!-- Node23&#45;&gt;Node6 -->
<g id="edge32_Node000023_Node000006" class="edge">
<title>Node23&#45;&gt;Node6</title>
<g id="a_edge32_Node000023_Node000006"><a xlink:title=" ">
<path fill="none" stroke="#63b8ff" d="M437.24,-164.98C407.06,-156.05 359.43,-141.94 325.9,-132.02"/>
<polygon fill="#63b8ff" stroke="#63b8ff" points="326.57,-128.57 315.98,-129.08 324.58,-135.28 326.57,-128.57"/>
</a>
</g>
</g>
<!-- Node23&#45;&gt;Node7 -->
<g id="edge33_Node000023_Node000007" class="edge">
<title>Node23&#45;&gt;Node7</title>
<g id="a_edge33_Node000023_Node000007"><a xlink:title=" ">
<path fill="none" stroke="#63b8ff" d="M425.18,-164.96C388.61,-155.34 343.5,-137.38 363,-110 396.26,-63.3 570.43,-28.57 643.59,-15.82"/>
<polygon fill="#63b8ff" stroke="#63b8ff" points="644.36,-19.24 653.62,-14.1 643.17,-12.34 644.36,-19.24"/>
</a>
</g>
</g>
<!-- Node23&#45;&gt;Node20 -->
<g id="edge34_Node000023_Node000020" class="edge">
<title>Node23&#45;&gt;Node20</title>
<g id="a_edge34_Node000023_Node000020"><a xlink:title=" ">
<path fill="none" stroke="#63b8ff" d="M460.72,-164.75C456.29,-157.42 449.84,-146.73 444.38,-137.7"/>
<polygon fill="#63b8ff" stroke="#63b8ff" points="447.35,-135.84 439.19,-129.09 441.36,-139.46 447.35,-135.84"/>
</a>
</g>
</g>
<!-- Node23&#45;&gt;Node21 -->
<g id="edge35_Node000023_Node000021" class="edge">
<title>Node23&#45;&gt;Node21</title>
<g id="a_edge35_Node000023_Node000021"><a xlink:title=" ">
<path fill="none" stroke="#63b8ff" d="M502.15,-164.98C540.91,-155.86 602.55,-141.33 644.8,-131.38"/>
<polygon fill="#63b8ff" stroke="#63b8ff" points="645.64,-134.78 654.57,-129.08 644.03,-127.97 645.64,-134.78"/>
</a>
</g>
</g>
<!-- Node24&#45;&gt;Node16 -->
<g id="edge39_Node000024_Node000016" class="edge">
<title>Node24&#45;&gt;Node16</title>
<g id="a_edge39_Node000024_Node000016"><a xlink:title=" ">
<path fill="none" stroke="#63b8ff" d="M984.93,-109.98C995.08,-102.07 1010.42,-90.11 1022.65,-80.58"/>
<polygon fill="#63b8ff" stroke="#63b8ff" points="1025.14,-83.08 1030.88,-74.17 1020.84,-77.56 1025.14,-83.08"/>
</a>
</g>
</g>
<!-- Node24&#45;&gt;Node18 -->
<g id="edge40_Node000024_Node000018" class="edge">
<title>Node24&#45;&gt;Node18</title>
<g id="a_edge40_Node000024_Node000018"><a xlink:title=" ">
<path fill="none" stroke="#63b8ff" d="M1000.35,-109.98C1028.5,-100.89 1073.21,-86.44 1103.99,-76.49"/>
<polygon fill="#63b8ff" stroke="#63b8ff" points="1105.41,-79.71 1113.85,-73.3 1103.26,-73.05 1105.41,-79.71"/>
</a>
</g>
</g>
<!-- Node24&#45;&gt;Node19 -->
<g id="edge41_Node000024_Node000019" class="edge">
<title>Node24&#45;&gt;Node19</title>
<g id="a_edge41_Node000024_Node000019"><a xlink:title=" ">
<path fill="none" stroke="#63b8ff" d="M969.38,-109.75C965.54,-102.49 959.98,-91.95 955.24,-82.98"/>
<polygon fill="#63b8ff" stroke="#63b8ff" points="958.3,-81.3 950.54,-74.09 952.11,-84.57 958.3,-81.3"/>
</a>
</g>
</g>
<!-- Node24&#45;&gt;Node22 -->
<g id="edge38_Node000024_Node000022" class="edge">
<title>Node24&#45;&gt;Node22</title>
<g id="a_edge38_Node000024_Node000022"><a xlink:title=" ">
<path fill="none" stroke="#63b8ff" d="M934.64,-109.98C887.45,-99.78 809.11,-82.83 763.97,-73.06"/>
<polygon fill="#63b8ff" stroke="#63b8ff" points="764.57,-69.61 754.05,-70.92 763.09,-76.46 764.57,-69.61"/>
</a>
</g>
</g>
<!-- Node25&#45;&gt;Node11 -->
<g id="edge51_Node000025_Node000011" class="edge">
<title>Node25&#45;&gt;Node11</title>
<g id="a_edge51_Node000025_Node000011"><a xlink:title=" ">
<path fill="none" stroke="#63b8ff" d="M145.02,-219.94C129.21,-212.91 109.7,-201.28 100,-184 82.35,-152.57 87.45,-108.67 92.43,-84.08"/>
<polygon fill="#63b8ff" stroke="#63b8ff" points="95.86,-84.78 94.63,-74.26 89.03,-83.25 95.86,-84.78"/>
</a>
</g>
</g>
<!-- Node26 -->
<g id="Node000026" class="node">
<title>Node26</title>
<g id="a_Node000026"><a xlink:href="Ocp1Message_8h.html" target="_top" xlink:title=" ">
<polygon fill="white" stroke="#666666" points="236,-184 142,-184 142,-165 236,-165 236,-184"/>
<text text-anchor="middle" x="189" y="-172" font-family="Helvetica,sans-Serif" font-size="10.00">Ocp1Message.h</text>
</a>
</g>
</g>
<!-- Node25&#45;&gt;Node26 -->
<g id="edge43_Node000025_Node000026" class="edge">
<title>Node25&#45;&gt;Node26</title>
<g id="a_edge43_Node000025_Node000026"><a xlink:title=" ">
<path fill="none" stroke="#63b8ff" d="M172.3,-219.75C174.98,-212.65 178.85,-202.4 182.19,-193.56"/>
<polygon fill="#63b8ff" stroke="#63b8ff" points="185.5,-194.68 185.76,-184.09 178.95,-192.21 185.5,-194.68"/>
</a>
</g>
</g>
<!-- Node26&#45;&gt;Node6 -->
<g id="edge44_Node000026_Node000006" class="edge">
<title>Node26&#45;&gt;Node6</title>
<g id="a_edge44_Node000026_Node000006"><a xlink:title=" ">
<path fill="none" stroke="#63b8ff" d="M204.75,-164.98C220.23,-156.61 244.09,-143.7 262.14,-133.95"/>
<polygon fill="#63b8ff" stroke="#63b8ff" points="263.84,-137.01 270.97,-129.17 260.51,-130.85 263.84,-137.01"/>
</a>
</g>
</g>
<!-- Node26&#45;&gt;Node11 -->
<g id="edge50_Node000026_Node000011" class="edge">
<title>Node26&#45;&gt;Node11</title>
<g id="a_edge50_Node000026_Node000011"><a xlink:title=" ">
<path fill="none" stroke="#63b8ff" d="M181.47,-164.66C166.1,-146.61 130.88,-105.28 111.12,-82.08"/>
<polygon fill="#63b8ff" stroke="#63b8ff" points="113.52,-79.5 104.38,-74.16 108.2,-84.04 113.52,-79.5"/>
</a>
</g>
</g>
<!-- Node26&#45;&gt;Node27 -->
<g id="edge45_Node000026_Node000027" class="edge">
<title>Node26&#45;&gt;Node27</title>
<g id="a_edge45_Node000026_Node000027"><a xlink:title=" ">
<path fill="none" stroke="#63b8ff" d="M192.47,-164.75C195.28,-157.65 199.34,-147.4 202.85,-138.56"/>
<polygon fill="#63b8ff" stroke="#63b8ff" points="206.17,-139.68 206.6,-129.09 199.66,-137.1 206.17,-139.68"/>
</a>
</g>
</g>
<!-- Node27&#45;&gt;Node11 -->
<g id="edge49_Node000027_Node000011" class="edge">
<title>Node27&#45;&gt;Node11</title>
<g id="a_edge49_Node000027_Node000011"><a xlink:title=" ">
<path fill="none" stroke="#63b8ff" d="M191.84,-109.98C173.75,-101.5 145.72,-88.35 124.81,-78.54"/>
<polygon fill="#63b8ff" stroke="#63b8ff" points="126.03,-75.25 115.49,-74.17 123.05,-81.59 126.03,-75.25"/>
</a>
</g>
</g>
<!-- Node27&#45;&gt;Node14 -->
<g id="edge46_Node000027_Node000014" class="edge">
<title>Node27&#45;&gt;Node14</title>
<g id="a_edge46_Node000027_Node000014"><a xlink:title=" ">
<path fill="none" stroke="#63b8ff" d="M204.3,-109.68C195.36,-96.38 176.87,-71.07 156,-55 138.33,-41.39 115.83,-30.49 97.38,-22.88"/>
<polygon fill="#63b8ff" stroke="#63b8ff" points="98.47,-19.55 87.88,-19.1 95.88,-26.05 98.47,-19.55"/>
</a>
</g>
</g>
<!-- Node28 -->
<g id="Node000028" class="node">
<title>Node28</title>
<g id="a_Node000028"><a xlink:title=" ">
<polygon fill="#e0e0e0" stroke="#999999" points="255.5,-74 204.5,-74 204.5,-55 255.5,-55 255.5,-74"/>
<text text-anchor="middle" x="230" y="-62" font-family="Helvetica,sans-Serif" font-size="10.00">variant</text>
</a>
</g>
</g>
<!-- Node27&#45;&gt;Node28 -->
<g id="edge47_Node000027_Node000028" class="edge">
<title>Node27&#45;&gt;Node28</title>
<g id="a_edge47_Node000027_Node000028"><a xlink:title=" ">
<path fill="none" stroke="#63b8ff" d="M213.3,-109.75C215.98,-102.65 219.85,-92.4 223.19,-83.56"/>
<polygon fill="#63b8ff" stroke="#63b8ff" points="226.5,-84.68 226.76,-74.09 219.95,-82.21 226.5,-84.68"/>
</a>
</g>
</g>
<!-- Node29 -->
<g id="Node000029" class="node">
<title>Node29</title>
<g id="a_Node000029"><a xlink:title=" ">
<polygon fill="#e0e0e0" stroke="#999999" points="316,-74 274,-74 274,-55 316,-55 316,-74"/>
<text text-anchor="middle" x="295" y="-62" font-family="Helvetica,sans-Serif" font-size="10.00">array</text>
</a>
</g>
</g>
<!-- Node27&#45;&gt;Node29 -->
<g id="edge48_Node000027_Node000029" class="edge">
<title>Node27&#45;&gt;Node29</title>
<g id="a_edge48_Node000027_Node000029"><a xlink:title=" ">
<path fill="none" stroke="#63b8ff" d="M223.66,-109.98C236.84,-101.77 257.03,-89.18 272.57,-79.49"/>
<polygon fill="#63b8ff" stroke="#63b8ff" points="274.46,-82.43 281.09,-74.17 270.76,-76.49 274.46,-82.43"/>
</a>
</g>
</g>
</g>
</svg>
