<?xml version="1.0" encoding="UTF-8" standalone="no"?>
<!DOCTYPE svg PUBLIC "-//W3C//DTD SVG 1.1//EN"
 "http://www.w3.org/Graphics/SVG/1.1/DTD/svg11.dtd">
<!-- Generated by graphviz version 2.43.0 (0)
 -->
<!-- Title: NanoOcp1::Ocp1Message Pages: 1 -->
<svg width="380pt" height="150pt"
 viewBox="0.00 0.00 380.00 149.50" xmlns="http://www.w3.org/2000/svg" xmlns:xlink="http://www.w3.org/1999/xlink">

<svg id="main" version="1.1" xmlns="http://www.w3.org/2000/svg" xmlns:xlink="http://www.w3.org/1999/xlink" xml:space="preserve" onload="init(evt)">
<style type="text/css"><![CDATA[
.node, .edge {opacity: 0.7;}
.node.selected, .edge.selected {opacity: 1;}
.edge:hover path { stroke: red; }
.edge:hover polygon { stroke: red; fill: red; }
]]></style>
<script type="application/ecmascript" xlink:href="svg.min.js"/>
<svg id="graph" class="graph">
<g id="graph0" class="graph" transform="scale(1 1) rotate(0) translate(4 145.5)">
<title>NanoOcp1::Ocp1Message</title>
<!-- Node1 -->
<g id="Node000001" class="node">
<title>Node1</title>
<g id="a_Node000001"><a xlink:title="Abstract base class for all OCP.1 protocol messages.">
<polygon fill="#999999" stroke="#666666" points="141,-74 0,-74 0,-55 141,-55 141,-74"/>
<text text-anchor="middle" x="70.5" y="-62" font-family="Helvetica,sans-Serif" font-size="10.00">NanoOcp1::Ocp1Message</text>
</a>
</g>
</g>
<!-- Node2 -->
<g id="Node000002" class="node">
<title>Node2</title>
<g id="a_Node000002"><a xlink:href="classNanoOcp1_1_1Ocp1CommandResponseRequired.html" target="_top" xlink:title=" ">
<polygon fill="white" stroke="#666666" points="372,-141.5 177,-141.5 177,-111.5 372,-111.5 372,-141.5"/>
<text text-anchor="start" x="185" y="-129.5" font-family="Helvetica,sans-Serif" font-size="10.00">NanoOcp1::Ocp1CommandResponse</text>
<text text-anchor="middle" x="274.5" y="-118.5" font-family="Helvetica,sans-Serif" font-size="10.00">Required</text>
</a>
</g>
</g>
<!-- Node1&#45;&gt;Node2 -->
<g id="edge1_Node000001_Node000002" class="edge">
<title>Node1&#45;&gt;Node2</title>
<g id="a_edge1_Node000001_Node000002"><a xlink:title=" ">
<path fill="none" stroke="#63b8ff" d="M105.53,-77.75C126.05,-85.5 152.83,-95.16 177,-102.5 187.32,-105.63 198.36,-108.67 209.14,-111.47"/>
<polygon fill="#63b8ff" stroke="#63b8ff" points="106.58,-74.41 95.99,-74.12 104.09,-80.95 106.58,-74.41"/>
</a>
</g>
</g>
<!-- Node3 -->
<g id="Node000003" class="node">
<title>Node3</title>
<g id="a_Node000003"><a xlink:href="classNanoOcp1_1_1Ocp1KeepAlive.html" target="_top" xlink:title=" ">
<polygon fill="white" stroke="#666666" points="347.5,-93 201.5,-93 201.5,-74 347.5,-74 347.5,-93"/>
<text text-anchor="middle" x="274.5" y="-81" font-family="Helvetica,sans-Serif" font-size="10.00">NanoOcp1::Ocp1KeepAlive</text>
</a>
</g>
</g>
<!-- Node1&#45;&gt;Node3 -->
<g id="edge2_Node000001_Node000003" class="edge">
<title>Node1&#45;&gt;Node3</title>
<g id="a_edge2_Node000001_Node000003"><a xlink:title=" ">
<path fill="none" stroke="#63b8ff" d="M151.22,-72C167.79,-73.56 185.17,-75.19 201.45,-76.72"/>
<polygon fill="#63b8ff" stroke="#63b8ff" points="151.3,-68.49 141.02,-71.04 150.65,-75.46 151.3,-68.49"/>
</a>
</g>
</g>
<!-- Node4 -->
<g id="Node000004" class="node">
<title>Node4</title>
<g id="a_Node000004"><a xlink:href="classNanoOcp1_1_1Ocp1Notification.html" target="_top" xlink:title=" ">
<polygon fill="white" stroke="#666666" points="351.5,-56 197.5,-56 197.5,-37 351.5,-37 351.5,-56"/>
<text text-anchor="middle" x="274.5" y="-44" font-family="Helvetica,sans-Serif" font-size="10.00">NanoOcp1::Ocp1Notification</text>
</a>
</g>
</g>
<!-- Node1&#45;&gt;Node4 -->
<g id="edge3_Node000001_Node000004" class="edge">
<title>Node1&#45;&gt;Node4</title>
<g id="a_edge3_Node000001_Node000004"><a xlink:title=" ">
<path fill="none" stroke="#63b8ff" d="M151.37,-57.38C166.49,-56.04 182.28,-54.63 197.29,-53.29"/>
<polygon fill="#63b8ff" stroke="#63b8ff" points="150.67,-53.93 141.02,-58.31 151.29,-60.9 150.67,-53.93"/>
</a>
</g>
</g>
<!-- Node5 -->
<g id="Node000005" class="node">
<title>Node5</title>
<g id="a_Node000005"><a xlink:href="classNanoOcp1_1_1Ocp1Response.html" target="_top" xlink:title=" ">
<polygon fill="white" stroke="#666666" points="347,-19 202,-19 202,0 347,0 347,-19"/>
<text text-anchor="middle" x="274.5" y="-7" font-family="Helvetica,sans-Serif" font-size="10.00">NanoOcp1::Ocp1Response</text>
</a>
</g>
</g>
<!-- Node1&#45;&gt;Node5 -->
<g id="edge4_Node000001_Node000005" class="edge">
<title>Node1&#45;&gt;Node5</title>
<g id="a_edge4_Node000001_Node000005"><a xlink:title=" ">
<path fill="none" stroke="#63b8ff" d="M105.87,-51.46C126.32,-44.03 152.9,-34.95 177,-28.5 190.28,-24.94 204.75,-21.75 218.35,-19.03"/>
<polygon fill="#63b8ff" stroke="#63b8ff" points="104.54,-48.22 96.36,-54.96 106.95,-54.79 104.54,-48.22"/>
</a>
</g>
</g>
</g>
</svg>
</svg>

<style type='text/css'>
<![CDATA[
[data-mouse-over-selected='false'] { opacity: 0.7; }
[data-mouse-over-selected='true']  { opacity: 1.0; }
]]>
</style>
<script type="application/ecmascript"><![CDATA[
document.addEventListener('DOMContentLoaded', (event) => {
  highlightEdges();
  highlightAdjacentNodes();
});
]]></script>
</svg>
