<?xml version="1.0" encoding="UTF-8" standalone="no"?>
<!DOCTYPE svg PUBLIC "-//W3C//DTD SVG 1.1//EN"
 "http://www.w3.org/Graphics/SVG/1.1/DTD/svg11.dtd">
<!-- Generated by graphviz version 2.43.0 (0)
 -->
<!-- Title: NanoOcp1::AmpController Pages: 1 -->
<svg width="154pt" height="137pt"
 viewBox="0.00 0.00 154.00 137.00" xmlns="http://www.w3.org/2000/svg" xmlns:xlink="http://www.w3.org/1999/xlink">
<g id="graph0" class="graph" transform="scale(1 1) rotate(0) translate(4 133)">
<title>NanoOcp1::AmpController</title>
<!-- Node1 -->
<g id="Node000001" class="node">
<title>Node1</title>
<g id="a_Node000001"><a xlink:title="OCA/OCP.1 controller for d&amp;b audiotechnik amplifier products.">
<polygon fill="#999999" stroke="#666666" points="144.5,-19 1.5,-19 1.5,0 144.5,0 144.5,-19"/>
<text text-anchor="middle" x="73" y="-7" font-family="Helvetica,sans-Serif" font-size="10.00">NanoOcp1::AmpController</text>
</a>
</g>
</g>
<!-- Node2 -->
<g id="Node000002" class="node">
<title>Node2</title>
<g id="a_Node000002"><a xlink:href="classNanoOcp1_1_1Ocp1Controller.html" target="_top" xlink:title="Generic OCA/OCP.1 session controller.">
<polygon fill="white" stroke="#666666" points="146,-74 0,-74 0,-55 146,-55 146,-74"/>
<text text-anchor="middle" x="73" y="-62" font-family="Helvetica,sans-Serif" font-size="10.00">NanoOcp1::Ocp1Controller</text>
</a>
</g>
</g>
<!-- Node2&#45;&gt;Node1 -->
<g id="edge1_Node000001_Node000002" class="edge">
<title>Node2&#45;&gt;Node1</title>
<g id="a_edge1_Node000001_Node000002"><a xlink:title=" ">
<path fill="none" stroke="#63b8ff" d="M73,-44.66C73,-35.93 73,-25.99 73,-19.09"/>
<polygon fill="#63b8ff" stroke="#63b8ff" points="69.5,-44.75 73,-54.75 76.5,-44.75 69.5,-44.75"/>
</a>
</g>
</g>
<!-- Node3 -->
<g id="Node000003" class="node">
<title>Node3</title>
<g id="a_Node000003"><a xlink:href="classNanoOcp1_1_1NanoTimer.html" target="_top" xlink:title=" ">
<polygon fill="white" stroke="#666666" points="136.5,-129 9.5,-129 9.5,-110 136.5,-110 136.5,-129"/>
<text text-anchor="middle" x="73" y="-117" font-family="Helvetica,sans-Serif" font-size="10.00">NanoOcp1::NanoTimer</text>
</a>
</g>
</g>
<!-- Node3&#45;&gt;Node2 -->
<g id="edge2_Node000002_Node000003" class="edge">
<title>Node3&#45;&gt;Node2</title>
<g id="a_edge2_Node000002_Node000003"><a xlink:title=" ">
<path fill="none" stroke="#8b1a1a" d="M73,-99.66C73,-90.93 73,-80.99 73,-74.09"/>
<polygon fill="#8b1a1a" stroke="#8b1a1a" points="69.5,-99.75 73,-109.75 76.5,-99.75 69.5,-99.75"/>
</a>
</g>
</g>
</g>
</svg>
