<?xml version="1.0" encoding="UTF-8" standalone="no"?>
<!DOCTYPE svg PUBLIC "-//W3C//DTD SVG 1.1//EN"
 "http://www.w3.org/Graphics/SVG/1.1/DTD/svg11.dtd">
<!-- Generated by graphviz version 2.43.0 (0)
 -->
<!-- Title: Source/Ocp1Connection.cpp Pages: 1 -->
<!--zoomable 247 -->

<svg id="main" version="1.1" xmlns="http://www.w3.org/2000/svg" xmlns:xlink="http://www.w3.org/1999/xlink" xml:space="preserve" onload="init(evt)">
<style type="text/css"><![CDATA[
.node, .edge {opacity: 0.7;}
.node.selected, .edge.selected {opacity: 1;}
.edge:hover path { stroke: red; }
.edge:hover polygon { stroke: red; fill: red; }
]]></style>

<defs>
  <circle id="rim" cx="0" cy="0" r="7"/>
  <circle id="rim2" cx="0" cy="0" r="3.5"/>
  <g id="zoomPlus">
    <use xlink:href="#rim" fill="#404040"><set attributeName="fill" to="#808080" begin="zoomplus.mouseover" end="zoomplus.mouseout"/></use>
    <path d="M-4,0h8M0,-4v8" fill="none" stroke="white" stroke-width="1.5" pointer-events="none"/>
  </g>
  <g id="zoomMin">
    <use xlink:href="#rim" fill="#404040"><set attributeName="fill" to="#808080" begin="zoomminus.mouseover" end="zoomminus.mouseout"/></use>
    <path d="M-4,0h8" fill="none" stroke="white" stroke-width="1.5" pointer-events="none"/>
  </g>
  <g id="arrowUp" transform="translate(30 24)">
    <use xlink:href="#rim"/>
    <path pointer-events="none" fill="none" stroke="white" stroke-width="1.5" d="M0,-3.0v7 M-2.5,-0.5L0,-3.0L2.5,-0.5"/>
  </g>
  <g id="arrowRight" transform="rotate(90) translate(36 -43)">
    <use xlink:href="#rim"/>
    <path pointer-events="none" fill="none" stroke="white" stroke-width="1.5" d="M0,-3.0v7 M-2.5,-0.5L0,-3.0L2.5,-0.5"/>
  </g>
  <g id="arrowDown" transform="rotate(180) translate(-30 -48)">
    <use xlink:href="#rim"/>
    <path pointer-events="none" fill="none" stroke="white" stroke-width="1.5" d="M0,-3.0v7 M-2.5,-0.5L0,-3.0L2.5,-0.5"/>
  </g>
  <g id="arrowLeft" transform="rotate(270) translate(-36 17)">
    <use xlink:href="#rim"/>
    <path pointer-events="none" fill="none" stroke="white" stroke-width="1.5" d="M0,-3.0v7 M-2.5,-0.5L0,-3.0L2.5,-0.5"/>
  </g>
  <g id="resetDef">
    <use xlink:href="#rim2" fill="#404040"><set attributeName="fill" to="#808080" begin="reset.mouseover" end="reset.mouseout"/></use>
  </g>
</defs>
<script type="application/ecmascript">
var viewWidth = 1102;
var viewHeight = 247;
var sectionId = 'dynsection-0';
</script>
<script type="application/ecmascript" xlink:href="svg.min.js"/>
<svg id="graph" class="graph">
<g id="viewport">
<title>Source/Ocp1Connection.cpp</title>
<!-- Node1 -->
<g id="Node000001" class="node">
<title>Node1</title>
<g id="a_Node000001"><a xlink:title=" ">
<polygon fill="#999999" stroke="#666666" points="933,-239 781,-239 781,-220 933,-220 933,-239"/>
<text text-anchor="middle" x="857" y="-227" font-family="Helvetica,sans-Serif" font-size="10.00">Source/Ocp1Connection.cpp</text>
</a>
</g>
</g>
<!-- Node2 -->
<g id="Node000002" class="node">
<title>Node2</title>
<g id="a_Node000002"><a xlink:href="Ocp1Connection_8h.html" target="_top" xlink:title=" ">
<polygon fill="white" stroke="#666666" points="483.5,-184 378.5,-184 378.5,-165 483.5,-165 483.5,-184"/>
<text text-anchor="middle" x="431" y="-172" font-family="Helvetica,sans-Serif" font-size="10.00">Ocp1Connection.h</text>
</a>
</g>
</g>
<!-- Node1&#45;&gt;Node2 -->
<g id="edge1_Node000001_Node000002" class="edge">
<title>Node1&#45;&gt;Node2</title>
<g id="a_edge1_Node000001_Node000002"><a xlink:title=" ">
<path fill="none" stroke="#63b8ff" d="M788.56,-219.98C707.3,-209.88 572.9,-193.15 494.07,-183.35"/>
<polygon fill="#63b8ff" stroke="#63b8ff" points="494.16,-179.83 483.8,-182.07 493.29,-186.78 494.16,-179.83"/>
</a>
</g>
</g>
<!-- Node6 -->
<g id="Node000006" class="node">
<title>Node6</title>
<g id="a_Node000006"><a xlink:title=" ">
<polygon fill="#e0e0e0" stroke="#999999" points="86,-129 0,-129 0,-110 86,-110 86,-129"/>
<text text-anchor="middle" x="43" y="-117" font-family="Helvetica,sans-Serif" font-size="10.00">shared_mutex</text>
</a>
</g>
</g>
<!-- Node1&#45;&gt;Node6 -->
<g id="edge36_Node000001_Node000006" class="edge">
<title>Node1&#45;&gt;Node6</title>
<g id="a_edge36_Node000001_Node000006"><a xlink:title=" ">
<path fill="none" stroke="#63b8ff" d="M780.81,-223.92C684.71,-217.6 514.57,-204.59 370,-184 269.94,-169.75 154.09,-145.36 90.65,-131.32"/>
<polygon fill="#63b8ff" stroke="#63b8ff" points="91.08,-127.83 80.56,-129.07 89.56,-134.66 91.08,-127.83"/>
</a>
</g>
</g>
<!-- Node15 -->
<g id="Node000015" class="node">
<title>Node15</title>
<g id="a_Node000015"><a xlink:title=" ">
<polygon fill="#e0e0e0" stroke="#999999" points="794,-74 746,-74 746,-55 794,-55 794,-74"/>
<text text-anchor="middle" x="770" y="-62" font-family="Helvetica,sans-Serif" font-size="10.00">mutex</text>
</a>
</g>
</g>
<!-- Node1&#45;&gt;Node15 -->
<g id="edge35_Node000001_Node000015" class="edge">
<title>Node1&#45;&gt;Node15</title>
<g id="a_edge35_Node000001_Node000015"><a xlink:title=" ">
<path fill="none" stroke="#63b8ff" d="M853.53,-219.92C845.37,-200.06 823.92,-149.58 801,-110 795.51,-100.53 788.62,-90.48 782.72,-82.34"/>
<polygon fill="#63b8ff" stroke="#63b8ff" points="785.38,-80.04 776.62,-74.08 779.75,-84.2 785.38,-80.04"/>
</a>
</g>
</g>
<!-- Node20 -->
<g id="Node000020" class="node">
<title>Node20</title>
<g id="a_Node000020"><a xlink:href="Ocp1Message_8h.html" target="_top" xlink:title=" ">
<polygon fill="white" stroke="#666666" points="942,-184 848,-184 848,-165 942,-165 942,-184"/>
<text text-anchor="middle" x="895" y="-172" font-family="Helvetica,sans-Serif" font-size="10.00">Ocp1Message.h</text>
</a>
</g>
</g>
<!-- Node1&#45;&gt;Node20 -->
<g id="edge25_Node000001_Node000020" class="edge">
<title>Node1&#45;&gt;Node20</title>
<g id="a_edge25_Node000001_Node000020"><a xlink:title=" ">
<path fill="none" stroke="#63b8ff" d="M863.27,-219.75C868.59,-212.34 876.36,-201.5 882.88,-192.41"/>
<polygon fill="#63b8ff" stroke="#63b8ff" points="885.86,-194.26 888.84,-184.09 880.17,-190.18 885.86,-194.26"/>
</a>
</g>
</g>
<!-- Node24 -->
<g id="Node000024" class="node">
<title>Node24</title>
<g id="a_Node000024"><a xlink:title=" ">
<polygon fill="#e0e0e0" stroke="#999999" points="1024,-184 960,-184 960,-165 1024,-165 1024,-184"/>
<text text-anchor="middle" x="992" y="-172" font-family="Helvetica,sans-Serif" font-size="10.00">algorithm</text>
</a>
</g>
</g>
<!-- Node1&#45;&gt;Node24 -->
<g id="edge33_Node000001_Node000024" class="edge">
<title>Node1&#45;&gt;Node24</title>
<g id="a_edge33_Node000001_Node000024"><a xlink:title=" ">
<path fill="none" stroke="#63b8ff" d="M878.69,-219.98C900.8,-211.3 935.32,-197.75 960.45,-187.88"/>
<polygon fill="#63b8ff" stroke="#63b8ff" points="961.89,-191.08 969.92,-184.17 959.33,-184.57 961.89,-191.08"/>
</a>
</g>
</g>
<!-- Node25 -->
<g id="Node000025" class="node">
<title>Node25</title>
<g id="a_Node000025"><a xlink:title=" ">
<polygon fill="#e0e0e0" stroke="#999999" points="1094,-184 1042,-184 1042,-165 1094,-165 1094,-184"/>
<text text-anchor="middle" x="1068" y="-172" font-family="Helvetica,sans-Serif" font-size="10.00">cassert</text>
</a>
</g>
</g>
<!-- Node1&#45;&gt;Node25 -->
<g id="edge34_Node000001_Node000025" class="edge">
<title>Node1&#45;&gt;Node25</title>
<g id="a_edge34_Node000001_Node000025"><a xlink:title=" ">
<path fill="none" stroke="#63b8ff" d="M890.9,-219.98C929.59,-210.27 992.59,-194.44 1032.1,-184.52"/>
<polygon fill="#63b8ff" stroke="#63b8ff" points="1033,-187.9 1041.85,-182.07 1031.3,-181.11 1033,-187.9"/>
</a>
</g>
</g>
<!-- Node3 -->
<g id="Node000003" class="node">
<title>Node3</title>
<g id="a_Node000003"><a xlink:title=" ">
<polygon fill="#e0e0e0" stroke="#999999" points="282,-74 232,-74 232,-55 282,-55 282,-74"/>
<text text-anchor="middle" x="257" y="-62" font-family="Helvetica,sans-Serif" font-size="10.00">atomic</text>
</a>
</g>
</g>
<!-- Node2&#45;&gt;Node3 -->
<g id="edge2_Node000002_Node000003" class="edge">
<title>Node2&#45;&gt;Node3</title>
<g id="a_edge2_Node000002_Node000003"><a xlink:title=" ">
<path fill="none" stroke="#63b8ff" d="M396.16,-164.97C371.73,-157.91 339.09,-146.21 314,-129 295.56,-116.35 279.05,-96.54 268.61,-82.41"/>
<polygon fill="#63b8ff" stroke="#63b8ff" points="271.32,-80.19 262.66,-74.08 265.62,-84.26 271.32,-80.19"/>
</a>
</g>
</g>
<!-- Node4 -->
<g id="Node000004" class="node">
<title>Node4</title>
<g id="a_Node000004"><a xlink:title=" ">
<polygon fill="#e0e0e0" stroke="#999999" points="537.5,-74 472.5,-74 472.5,-55 537.5,-55 537.5,-74"/>
<text text-anchor="middle" x="505" y="-62" font-family="Helvetica,sans-Serif" font-size="10.00">functional</text>
</a>
</g>
</g>
<!-- Node2&#45;&gt;Node4 -->
<g id="edge3_Node000002_Node000004" class="edge">
<title>Node2&#45;&gt;Node4</title>
<g id="a_edge3_Node000002_Node000004"><a xlink:title=" ">
<path fill="none" stroke="#63b8ff" d="M437.06,-164.66C449.31,-146.77 477.25,-106 493.22,-82.69"/>
<polygon fill="#63b8ff" stroke="#63b8ff" points="496.3,-84.39 499.07,-74.16 490.53,-80.43 496.3,-84.39"/>
</a>
</g>
</g>
<!-- Node5 -->
<g id="Node000005" class="node">
<title>Node5</title>
<g id="a_Node000005"><a xlink:title=" ">
<polygon fill="#e0e0e0" stroke="#999999" points="792,-129 734,-129 734,-110 792,-110 792,-129"/>
<text text-anchor="middle" x="763" y="-117" font-family="Helvetica,sans-Serif" font-size="10.00">memory</text>
</a>
</g>
</g>
<!-- Node2&#45;&gt;Node5 -->
<g id="edge4_Node000002_Node000005" class="edge">
<title>Node2&#45;&gt;Node5</title>
<g id="a_edge4_Node000002_Node000005"><a xlink:title=" ">
<path fill="none" stroke="#63b8ff" d="M483.58,-166.09C541.58,-157.75 637.63,-143.48 720,-129 721.26,-128.78 722.55,-128.55 723.85,-128.31"/>
<polygon fill="#63b8ff" stroke="#63b8ff" points="724.7,-131.71 733.89,-126.43 723.41,-124.83 724.7,-131.71"/>
</a>
</g>
</g>
<!-- Node2&#45;&gt;Node6 -->
<g id="edge5_Node000002_Node000006" class="edge">
<title>Node2&#45;&gt;Node6</title>
<g id="a_edge5_Node000002_Node000006"><a xlink:title=" ">
<path fill="none" stroke="#63b8ff" d="M378.23,-166.64C312.88,-158.1 198.17,-142.92 100,-129 98.75,-128.82 97.48,-128.64 96.2,-128.46"/>
<polygon fill="#63b8ff" stroke="#63b8ff" points="96.65,-124.99 86.25,-127.02 95.65,-131.91 96.65,-124.99"/>
</a>
</g>
</g>
<!-- Node7 -->
<g id="Node000007" class="node">
<title>Node7</title>
<g id="a_Node000007"><a xlink:title=" ">
<polygon fill="#e0e0e0" stroke="#999999" points="313,-19 269,-19 269,0 313,0 313,-19"/>
<text text-anchor="middle" x="291" y="-7" font-family="Helvetica,sans-Serif" font-size="10.00">string</text>
</a>
</g>
</g>
<!-- Node2&#45;&gt;Node7 -->
<g id="edge6_Node000002_Node000007" class="edge">
<title>Node2&#45;&gt;Node7</title>
<g id="a_edge6_Node000002_Node000007"><a xlink:title=" ">
<path fill="none" stroke="#63b8ff" d="M378.26,-169.33C296.98,-162.36 148.77,-147.3 133,-129 89.82,-78.89 201.44,-37.01 259.08,-19.41"/>
<polygon fill="#63b8ff" stroke="#63b8ff" points="260.25,-22.72 268.83,-16.51 258.25,-16.01 260.25,-22.72"/>
</a>
</g>
</g>
<!-- Node8 -->
<g id="Node000008" class="node">
<title>Node8</title>
<g id="a_Node000008"><a xlink:href="Ocp1DataTypes_8h.html" target="_top" xlink:title=" ">
<polygon fill="white" stroke="#666666" points="913.5,-74 812.5,-74 812.5,-55 913.5,-55 913.5,-74"/>
<text text-anchor="middle" x="863" y="-62" font-family="Helvetica,sans-Serif" font-size="10.00">Ocp1DataTypes.h</text>
</a>
</g>
</g>
<!-- Node2&#45;&gt;Node8 -->
<g id="edge7_Node000002_Node000008" class="edge">
<title>Node2&#45;&gt;Node8</title>
<g id="a_edge7_Node000002_Node000008"><a xlink:title=" ">
<path fill="none" stroke="#63b8ff" d="M483.57,-168.88C536.1,-163.23 618.65,-151.49 687,-129 704.94,-123.1 707.52,-117.14 725,-110 757.07,-96.9 794.53,-85.03 822.33,-76.85"/>
<polygon fill="#63b8ff" stroke="#63b8ff" points="823.48,-80.16 832.1,-74 821.52,-73.43 823.48,-80.16"/>
</a>
</g>
</g>
<!-- Node12 -->
<g id="Node000012" class="node">
<title>Node12</title>
<g id="a_Node000012"><a xlink:href="NanoAsyncDispatcher_8h.html" target="_top" xlink:title=" ">
<polygon fill="white" stroke="#666666" points="677.5,-129 504.5,-129 504.5,-110 677.5,-110 677.5,-129"/>
<text text-anchor="middle" x="591" y="-117" font-family="Helvetica,sans-Serif" font-size="10.00">internal/NanoAsyncDispatcher.h</text>
</a>
</g>
</g>
<!-- Node2&#45;&gt;Node12 -->
<g id="edge12_Node000002_Node000012" class="edge">
<title>Node2&#45;&gt;Node12</title>
<g id="a_edge12_Node000002_Node000012"><a xlink:title=" ">
<path fill="none" stroke="#63b8ff" d="M456.71,-164.98C483.45,-156.13 525.53,-142.19 555.45,-132.28"/>
<polygon fill="#63b8ff" stroke="#63b8ff" points="556.7,-135.55 565.09,-129.08 554.5,-128.9 556.7,-135.55"/>
</a>
</g>
</g>
<!-- Node17 -->
<g id="Node000017" class="node">
<title>Node17</title>
<g id="a_Node000017"><a xlink:href="NanoSocket_8h.html" target="_top" xlink:title=" ">
<polygon fill="white" stroke="#666666" points="266,-129 142,-129 142,-110 266,-110 266,-129"/>
<text text-anchor="middle" x="204" y="-117" font-family="Helvetica,sans-Serif" font-size="10.00">internal/NanoSocket.h</text>
</a>
</g>
</g>
<!-- Node2&#45;&gt;Node17 -->
<g id="edge18_Node000002_Node000017" class="edge">
<title>Node2&#45;&gt;Node17</title>
<g id="a_edge18_Node000002_Node000017"><a xlink:title=" ">
<path fill="none" stroke="#63b8ff" d="M394.53,-164.98C355.43,-155.86 293.23,-141.33 250.61,-131.38"/>
<polygon fill="#63b8ff" stroke="#63b8ff" points="251.29,-127.95 240.76,-129.08 249.7,-134.76 251.29,-127.95"/>
</a>
</g>
</g>
<!-- Node18 -->
<g id="Node000018" class="node">
<title>Node18</title>
<g id="a_Node000018"><a xlink:href="NanoThread_8h.html" target="_top" xlink:title=" ">
<polygon fill="white" stroke="#666666" points="447.5,-129 322.5,-129 322.5,-110 447.5,-110 447.5,-129"/>
<text text-anchor="middle" x="385" y="-117" font-family="Helvetica,sans-Serif" font-size="10.00">internal/NanoThread.h</text>
</a>
</g>
</g>
<!-- Node2&#45;&gt;Node18 -->
<g id="edge20_Node000002_Node000018" class="edge">
<title>Node2&#45;&gt;Node18</title>
<g id="a_edge20_Node000002_Node000018"><a xlink:title=" ">
<path fill="none" stroke="#63b8ff" d="M423.4,-164.75C416.84,-157.18 407.18,-146.05 399.19,-136.84"/>
<polygon fill="#63b8ff" stroke="#63b8ff" points="401.65,-134.35 392.45,-129.09 396.37,-138.94 401.65,-134.35"/>
</a>
</g>
</g>
<!-- Node8&#45;&gt;Node7 -->
<g id="edge9_Node000008_Node000007" class="edge">
<title>Node8&#45;&gt;Node7</title>
<g id="a_edge9_Node000008_Node000007"><a xlink:title=" ">
<path fill="none" stroke="#63b8ff" d="M812.29,-56.12C809.15,-55.72 806.03,-55.35 803,-55 622.08,-34.34 404.22,-18.34 323.31,-12.7"/>
<polygon fill="#63b8ff" stroke="#63b8ff" points="323.47,-9.2 313.25,-12 322.98,-16.18 323.47,-9.2"/>
</a>
</g>
</g>
<!-- Node9 -->
<g id="Node000009" class="node">
<title>Node9</title>
<g id="a_Node000009"><a xlink:title=" ">
<polygon fill="#e0e0e0" stroke="#999999" points="853.5,-19 806.5,-19 806.5,0 853.5,0 853.5,-19"/>
<text text-anchor="middle" x="830" y="-7" font-family="Helvetica,sans-Serif" font-size="10.00">vector</text>
</a>
</g>
</g>
<!-- Node8&#45;&gt;Node9 -->
<g id="edge8_Node000008_Node000009" class="edge">
<title>Node8&#45;&gt;Node9</title>
<g id="a_edge8_Node000008_Node000009"><a xlink:title=" ">
<path fill="none" stroke="#63b8ff" d="M857.55,-54.75C852.99,-47.42 846.33,-36.73 840.71,-27.7"/>
<polygon fill="#63b8ff" stroke="#63b8ff" points="843.6,-25.73 835.35,-19.09 837.66,-29.43 843.6,-25.73"/>
</a>
</g>
</g>
<!-- Node10 -->
<g id="Node000010" class="node">
<title>Node10</title>
<g id="a_Node000010"><a xlink:title=" ">
<polygon fill="#e0e0e0" stroke="#999999" points="918.5,-19 871.5,-19 871.5,0 918.5,0 918.5,-19"/>
<text text-anchor="middle" x="895" y="-7" font-family="Helvetica,sans-Serif" font-size="10.00">cmath</text>
</a>
</g>
</g>
<!-- Node8&#45;&gt;Node10 -->
<g id="edge10_Node000008_Node000010" class="edge">
<title>Node8&#45;&gt;Node10</title>
<g id="a_edge10_Node000008_Node000010"><a xlink:title=" ">
<path fill="none" stroke="#63b8ff" d="M868.28,-54.75C872.71,-47.42 879.16,-36.73 884.62,-27.7"/>
<polygon fill="#63b8ff" stroke="#63b8ff" points="887.64,-29.46 889.81,-19.09 881.65,-25.84 887.64,-29.46"/>
</a>
</g>
</g>
<!-- Node11 -->
<g id="Node000011" class="node">
<title>Node11</title>
<g id="a_Node000011"><a xlink:title=" ">
<polygon fill="#e0e0e0" stroke="#999999" points="1057,-19 1007,-19 1007,0 1057,0 1057,-19"/>
<text text-anchor="middle" x="1032" y="-7" font-family="Helvetica,sans-Serif" font-size="10.00">cstdint</text>
</a>
</g>
</g>
<!-- Node8&#45;&gt;Node11 -->
<g id="edge11_Node000008_Node000011" class="edge">
<title>Node8&#45;&gt;Node11</title>
<g id="a_edge11_Node000008_Node000011"><a xlink:title=" ">
<path fill="none" stroke="#63b8ff" d="M890.15,-54.98C919.2,-45.88 965.36,-31.4 997.09,-21.45"/>
<polygon fill="#63b8ff" stroke="#63b8ff" points="998.35,-24.72 1006.85,-18.39 996.26,-18.04 998.35,-24.72"/>
</a>
</g>
</g>
<!-- Node12&#45;&gt;Node4 -->
<g id="edge15_Node000012_Node000004" class="edge">
<title>Node12&#45;&gt;Node4</title>
<g id="a_edge15_Node000012_Node000004"><a xlink:title=" ">
<path fill="none" stroke="#63b8ff" d="M577.18,-109.98C563.85,-101.77 543.42,-89.18 527.69,-79.49"/>
<polygon fill="#63b8ff" stroke="#63b8ff" points="529.42,-76.44 519.07,-74.17 525.75,-82.4 529.42,-76.44"/>
</a>
</g>
</g>
<!-- Node13 -->
<g id="Node000013" class="node">
<title>Node13</title>
<g id="a_Node000013"><a xlink:title=" ">
<polygon fill="#e0e0e0" stroke="#999999" points="662.5,-74 555.5,-74 555.5,-55 662.5,-55 662.5,-74"/>
<text text-anchor="middle" x="609" y="-62" font-family="Helvetica,sans-Serif" font-size="10.00">condition_variable</text>
</a>
</g>
</g>
<!-- Node12&#45;&gt;Node13 -->
<g id="edge13_Node000012_Node000013" class="edge">
<title>Node12&#45;&gt;Node13</title>
<g id="a_edge13_Node000012_Node000013"><a xlink:title=" ">
<path fill="none" stroke="#63b8ff" d="M593.97,-109.75C596.36,-102.72 599.79,-92.62 602.77,-83.84"/>
<polygon fill="#63b8ff" stroke="#63b8ff" points="606.18,-84.68 606.08,-74.09 599.55,-82.43 606.18,-84.68"/>
</a>
</g>
</g>
<!-- Node14 -->
<g id="Node000014" class="node">
<title>Node14</title>
<g id="a_Node000014"><a xlink:title=" ">
<polygon fill="#e0e0e0" stroke="#999999" points="727.5,-74 680.5,-74 680.5,-55 727.5,-55 727.5,-74"/>
<text text-anchor="middle" x="704" y="-62" font-family="Helvetica,sans-Serif" font-size="10.00">deque</text>
</a>
</g>
</g>
<!-- Node12&#45;&gt;Node14 -->
<g id="edge14_Node000012_Node000014" class="edge">
<title>Node12&#45;&gt;Node14</title>
<g id="a_edge14_Node000012_Node000014"><a xlink:title=" ">
<path fill="none" stroke="#63b8ff" d="M609.16,-109.98C627.25,-101.5 655.28,-88.35 676.19,-78.54"/>
<polygon fill="#63b8ff" stroke="#63b8ff" points="677.95,-81.59 685.51,-74.17 674.97,-75.25 677.95,-81.59"/>
</a>
</g>
</g>
<!-- Node12&#45;&gt;Node15 -->
<g id="edge16_Node000012_Node000015" class="edge">
<title>Node12&#45;&gt;Node15</title>
<g id="a_edge16_Node000012_Node000015"><a xlink:title=" ">
<path fill="none" stroke="#63b8ff" d="M619.76,-109.98C651.46,-100.6 702.42,-85.51 736.06,-75.55"/>
<polygon fill="#63b8ff" stroke="#63b8ff" points="737.31,-78.83 745.9,-72.63 735.32,-72.12 737.31,-78.83"/>
</a>
</g>
</g>
<!-- Node16 -->
<g id="Node000016" class="node">
<title>Node16</title>
<g id="a_Node000016"><a xlink:title=" ">
<polygon fill="#e0e0e0" stroke="#999999" points="454,-74 406,-74 406,-55 454,-55 454,-74"/>
<text text-anchor="middle" x="430" y="-62" font-family="Helvetica,sans-Serif" font-size="10.00">thread</text>
</a>
</g>
</g>
<!-- Node12&#45;&gt;Node16 -->
<g id="edge17_Node000012_Node000016" class="edge">
<title>Node12&#45;&gt;Node16</title>
<g id="a_edge17_Node000012_Node000016"><a xlink:title=" ">
<path fill="none" stroke="#63b8ff" d="M565.13,-109.98C537.66,-100.94 494.12,-86.61 463.91,-76.66"/>
<polygon fill="#63b8ff" stroke="#63b8ff" points="464.82,-73.28 454.22,-73.47 462.63,-79.93 464.82,-73.28"/>
</a>
</g>
</g>
<!-- Node17&#45;&gt;Node7 -->
<g id="edge19_Node000017_Node000007" class="edge">
<title>Node17&#45;&gt;Node7</title>
<g id="a_edge19_Node000017_Node000007"><a xlink:title=" ">
<path fill="none" stroke="#63b8ff" d="M204.71,-109.86C206.16,-96.8 210.48,-71.79 223,-55 232.94,-41.68 248.13,-31.19 261.64,-23.76"/>
<polygon fill="#63b8ff" stroke="#63b8ff" points="263.36,-26.8 270.63,-19.1 260.14,-20.59 263.36,-26.8"/>
</a>
</g>
</g>
<!-- Node18&#45;&gt;Node3 -->
<g id="edge21_Node000018_Node000003" class="edge">
<title>Node18&#45;&gt;Node3</title>
<g id="a_edge21_Node000018_Node000003"><a xlink:title=" ">
<path fill="none" stroke="#63b8ff" d="M364.43,-109.98C343.57,-101.34 311.03,-87.87 287.23,-78.02"/>
<polygon fill="#63b8ff" stroke="#63b8ff" points="288.52,-74.76 277.94,-74.17 285.84,-81.23 288.52,-74.76"/>
</a>
</g>
</g>
<!-- Node18&#45;&gt;Node7 -->
<g id="edge23_Node000018_Node000007" class="edge">
<title>Node18&#45;&gt;Node7</title>
<g id="a_edge23_Node000018_Node000007"><a xlink:title=" ">
<path fill="none" stroke="#63b8ff" d="M383.2,-109.84C380.12,-96.76 372.8,-71.72 359,-55 348.27,-42 332.75,-31.45 319.25,-23.88"/>
<polygon fill="#63b8ff" stroke="#63b8ff" points="320.78,-20.73 310.31,-19.13 317.49,-26.92 320.78,-20.73"/>
</a>
</g>
</g>
<!-- Node18&#45;&gt;Node16 -->
<g id="edge24_Node000018_Node000016" class="edge">
<title>Node18&#45;&gt;Node16</title>
<g id="a_edge24_Node000018_Node000016"><a xlink:title=" ">
<path fill="none" stroke="#63b8ff" d="M392.43,-109.75C398.85,-102.18 408.31,-91.05 416.12,-81.84"/>
<polygon fill="#63b8ff" stroke="#63b8ff" points="418.9,-83.98 422.71,-74.09 413.57,-79.45 418.9,-83.98"/>
</a>
</g>
</g>
<!-- Node19 -->
<g id="Node000019" class="node">
<title>Node19</title>
<g id="a_Node000019"><a xlink:title=" ">
<polygon fill="#e0e0e0" stroke="#999999" points="350,-74 300,-74 300,-55 350,-55 350,-74"/>
<text text-anchor="middle" x="325" y="-62" font-family="Helvetica,sans-Serif" font-size="10.00">chrono</text>
</a>
</g>
</g>
<!-- Node18&#45;&gt;Node19 -->
<g id="edge22_Node000018_Node000019" class="edge">
<title>Node18&#45;&gt;Node19</title>
<g id="a_edge22_Node000018_Node000019"><a xlink:title=" ">
<path fill="none" stroke="#63b8ff" d="M375.36,-109.98C366.49,-102.15 353.13,-90.34 342.39,-80.86"/>
<polygon fill="#63b8ff" stroke="#63b8ff" points="344.63,-78.17 334.82,-74.17 339.99,-83.41 344.63,-78.17"/>
</a>
</g>
</g>
<!-- Node20&#45;&gt;Node5 -->
<g id="edge26_Node000020_Node000005" class="edge">
<title>Node20&#45;&gt;Node5</title>
<g id="a_edge26_Node000020_Node000005"><a xlink:title=" ">
<path fill="none" stroke="#63b8ff" d="M873.79,-164.98C852.27,-156.34 818.72,-142.87 794.17,-133.02"/>
<polygon fill="#63b8ff" stroke="#63b8ff" points="795.18,-129.65 784.59,-129.17 792.57,-136.14 795.18,-129.65"/>
</a>
</g>
</g>
<!-- Node20&#45;&gt;Node8 -->
<g id="edge32_Node000020_Node000008" class="edge">
<title>Node20&#45;&gt;Node8</title>
<g id="a_edge32_Node000020_Node000008"><a xlink:title=" ">
<path fill="none" stroke="#63b8ff" d="M892.38,-164.66C887.18,-147.09 875.43,-107.45 868.47,-83.95"/>
<polygon fill="#63b8ff" stroke="#63b8ff" points="871.76,-82.75 865.57,-74.16 865.05,-84.74 871.76,-82.75"/>
</a>
</g>
</g>
<!-- Node21 -->
<g id="Node000021" class="node">
<title>Node21</title>
<g id="a_Node000021"><a xlink:href="Variant_8h.html" target="_top" xlink:title=" ">
<polygon fill="white" stroke="#666666" points="987,-129 927,-129 927,-110 987,-110 987,-129"/>
<text text-anchor="middle" x="957" y="-117" font-family="Helvetica,sans-Serif" font-size="10.00">Variant.h</text>
</a>
</g>
</g>
<!-- Node20&#45;&gt;Node21 -->
<g id="edge27_Node000020_Node000021" class="edge">
<title>Node20&#45;&gt;Node21</title>
<g id="a_edge27_Node000020_Node000021"><a xlink:title=" ">
<path fill="none" stroke="#63b8ff" d="M904.96,-164.98C914.13,-157.15 927.94,-145.34 939.03,-135.86"/>
<polygon fill="#63b8ff" stroke="#63b8ff" points="941.53,-138.33 946.86,-129.17 936.98,-133.01 941.53,-138.33"/>
</a>
</g>
</g>
<!-- Node21&#45;&gt;Node8 -->
<g id="edge31_Node000021_Node000008" class="edge">
<title>Node21&#45;&gt;Node8</title>
<g id="a_edge31_Node000021_Node000008"><a xlink:title=" ">
<path fill="none" stroke="#63b8ff" d="M941.9,-109.98C927.18,-101.69 904.58,-88.94 887.33,-79.22"/>
<polygon fill="#63b8ff" stroke="#63b8ff" points="888.81,-76.03 878.38,-74.17 885.37,-82.13 888.81,-76.03"/>
</a>
</g>
</g>
<!-- Node21&#45;&gt;Node11 -->
<g id="edge28_Node000021_Node000011" class="edge">
<title>Node21&#45;&gt;Node11</title>
<g id="a_edge28_Node000021_Node000011"><a xlink:title=" ">
<path fill="none" stroke="#63b8ff" d="M987.1,-113.23C1009.23,-107.6 1037.83,-96.29 1052,-74 1061.07,-59.74 1053.25,-41.04 1044.88,-27.64"/>
<polygon fill="#63b8ff" stroke="#63b8ff" points="1047.73,-25.61 1039.19,-19.32 1041.95,-29.56 1047.73,-25.61"/>
</a>
</g>
</g>
<!-- Node22 -->
<g id="Node000022" class="node">
<title>Node22</title>
<g id="a_Node000022"><a xlink:title=" ">
<polygon fill="#e0e0e0" stroke="#999999" points="982.5,-74 931.5,-74 931.5,-55 982.5,-55 982.5,-74"/>
<text text-anchor="middle" x="957" y="-62" font-family="Helvetica,sans-Serif" font-size="10.00">variant</text>
</a>
</g>
</g>
<!-- Node21&#45;&gt;Node22 -->
<g id="edge29_Node000021_Node000022" class="edge">
<title>Node21&#45;&gt;Node22</title>
<g id="a_edge29_Node000021_Node000022"><a xlink:title=" ">
<path fill="none" stroke="#63b8ff" d="M957,-109.75C957,-102.8 957,-92.85 957,-84.13"/>
<polygon fill="#63b8ff" stroke="#63b8ff" points="960.5,-84.09 957,-74.09 953.5,-84.09 960.5,-84.09"/>
</a>
</g>
</g>
<!-- Node23 -->
<g id="Node000023" class="node">
<title>Node23</title>
<g id="a_Node000023"><a xlink:title=" ">
<polygon fill="#e0e0e0" stroke="#999999" points="1043,-74 1001,-74 1001,-55 1043,-55 1043,-74"/>
<text text-anchor="middle" x="1022" y="-62" font-family="Helvetica,sans-Serif" font-size="10.00">array</text>
</a>
</g>
</g>
<!-- Node21&#45;&gt;Node23 -->
<g id="edge30_Node000021_Node000023" class="edge">
<title>Node21&#45;&gt;Node23</title>
<g id="a_edge30_Node000021_Node000023"><a xlink:title=" ">
<path fill="none" stroke="#63b8ff" d="M967.44,-109.98C977.15,-102.07 991.82,-90.11 1003.5,-80.58"/>
<polygon fill="#63b8ff" stroke="#63b8ff" points="1005.83,-83.2 1011.37,-74.17 1001.4,-77.78 1005.83,-83.2"/>
</a>
</g>
</g>
</g>
</svg>

<g id="navigator" transform="translate(0 0)" fill="#404254">
  <rect fill="#f2f5e9" fill-opacity="0.5" stroke="#606060" stroke-width=".5" x="0" y="0" width="60" height="60"/>
  <use id="zoomplus" xlink:href="#zoomPlus" x="17" y="9" onmousedown="handleZoom(evt,'in')"/>
  <use id="zoomminus" xlink:href="#zoomMin" x="42" y="9" onmousedown="handleZoom(evt,'out')"/>
  <use id="reset" xlink:href="#resetDef" x="30" y="36" onmousedown="handleReset()"/>
   <use id="arrowup" xlink:href="#arrowUp" x="0" y="0" onmousedown="handlePan(0,-1)"/>
  <use id="arrowright" xlink:href="#arrowRight" x="0" y="0" onmousedown="handlePan(1,0)"/>
  <use id="arrowdown" xlink:href="#arrowDown" x="0" y="0" onmousedown="handlePan(0,1)"/>
  <use id="arrowleft" xlink:href="#arrowLeft" x="0" y="0" onmousedown="handlePan(-1,0)"/>
</g>
<svg viewBox="0 0 15 15" width="100%" height="30px" preserveAspectRatio="xMaxYMin meet">
 <g id="arrow_out" transform="scale(0.3 0.3)">
  <a xlink:href="Ocp1Connection_8cpp__incl_org.svg" target="_base">
   <rect id="button" ry="5" rx="5" y="6" x="6" height="38" width="38"
        fill="#f2f5e9" fill-opacity="0.5" stroke="#606060" stroke-width="1.0"/>
   <path id="arrow"
     d="M 11.500037,31.436501 C 11.940474,20.09759 22.043105,11.32322 32.158766,21.979434 L 37.068811,17.246167 C 37.068811,17.246167 37.088388,32 37.088388,32 L 22.160133,31.978069 C 22.160133,31.978069 26.997745,27.140456 26.997745,27.140456 C 18.528582,18.264221 13.291696,25.230495 11.500037,31.436501 z"
     style="fill:#404040;"/>
  </a>
 </g>
</svg>

<style type='text/css'>
<![CDATA[
[data-mouse-over-selected='false'] { opacity: 0.7; }
[data-mouse-over-selected='true']  { opacity: 1.0; }
]]>
</style>
<script type="application/ecmascript"><![CDATA[
document.addEventListener('DOMContentLoaded', (event) => {
  highlightEdges();
  highlightAdjacentNodes();
});
]]></script>
</svg>
