<?xml version="1.0" encoding="UTF-8" standalone="no"?>
<!DOCTYPE svg PUBLIC "-//W3C//DTD SVG 1.1//EN"
 "http://www.w3.org/Graphics/SVG/1.1/DTD/svg11.dtd">
<!-- Generated by graphviz version 2.43.0 (0)
 -->
<!-- Title: Source/Ocp1DataTypes.h Pages: 1 -->
<svg width="1233pt" height="522pt"
 viewBox="0.00 0.00 1232.50 522.00" xmlns="http://www.w3.org/2000/svg" xmlns:xlink="http://www.w3.org/1999/xlink">
<g id="graph0" class="graph" transform="scale(1 1) rotate(0) translate(4 518)">
<title>Source/Ocp1DataTypes.h</title>
<!-- Node1 -->
<g id="Node000001" class="node">
<title>Node1</title>
<g id="a_Node000001"><a xlink:title=" ">
<polygon fill="#999999" stroke="#666666" points="527.5,-514 390.5,-514 390.5,-495 527.5,-495 527.5,-514"/>
<text text-anchor="middle" x="459" y="-502" font-family="Helvetica,sans-Serif" font-size="10.00">Source/Ocp1DataTypes.h</text>
</a>
</g>
</g>
<!-- Node2 -->
<g id="Node000002" class="node">
<title>Node2</title>
<g id="a_Node000002"><a xlink:href="AmpController_8cpp.html" target="_top" xlink:title=" ">
<polygon fill="white" stroke="#666666" points="317.5,-184 174.5,-184 174.5,-165 317.5,-165 317.5,-184"/>
<text text-anchor="middle" x="246" y="-172" font-family="Helvetica,sans-Serif" font-size="10.00">Source/AmpController.cpp</text>
</a>
</g>
</g>
<!-- Node1&#45;&gt;Node2 -->
<g id="edge1_Node000001_Node000002" class="edge">
<title>Node1&#45;&gt;Node2</title>
<g id="a_edge1_Node000001_Node000002"><a xlink:title=" ">
<path fill="none" stroke="#63b8ff" d="M380.28,-501.04C249.09,-494.76 0,-472.69 0,-395.5 0,-395.5 0,-395.5 0,-283.5 0,-206.77 101.58,-184.06 174.19,-177.62"/>
<polygon fill="#63b8ff" stroke="#63b8ff" points="380.13,-504.53 390.28,-501.49 380.45,-497.54 380.13,-504.53"/>
</a>
</g>
</g>
<!-- Node3 -->
<g id="Node000003" class="node">
<title>Node3</title>
<g id="a_Node000003"><a xlink:href="NanoOcp1_8h.html" target="_top" xlink:title=" ">
<polygon fill="white" stroke="#666666" points="140,-404 28,-404 28,-385 140,-385 140,-404"/>
<text text-anchor="middle" x="84" y="-392" font-family="Helvetica,sans-Serif" font-size="10.00">Source/NanoOcp1.h</text>
</a>
</g>
</g>
<!-- Node1&#45;&gt;Node3 -->
<g id="edge2_Node000001_Node000003" class="edge">
<title>Node1&#45;&gt;Node3</title>
<g id="a_edge2_Node000001_Node000003"><a xlink:title=" ">
<path fill="none" stroke="#63b8ff" d="M380.29,-497.26C303.58,-490.25 192.96,-477.38 154,-459 126.4,-445.98 101.95,-418.36 90.65,-404.23"/>
<polygon fill="#63b8ff" stroke="#63b8ff" points="380.14,-500.76 390.41,-498.17 380.76,-493.79 380.14,-500.76"/>
</a>
</g>
</g>
<!-- Node15 -->
<g id="Node000015" class="node">
<title>Node15</title>
<g id="a_Node000015"><a xlink:href="SoundscapeController_8cpp.html" target="_top" xlink:title=" ">
<polygon fill="white" stroke="#666666" points="1068.5,-184 889.5,-184 889.5,-165 1068.5,-165 1068.5,-184"/>
<text text-anchor="middle" x="979" y="-172" font-family="Helvetica,sans-Serif" font-size="10.00">Source/SoundscapeController.cpp</text>
</a>
</g>
</g>
<!-- Node1&#45;&gt;Node15 -->
<g id="edge45_Node000001_Node000015" class="edge">
<title>Node1&#45;&gt;Node15</title>
<g id="a_edge45_Node000001_Node000015"><a xlink:title=" ">
<path fill="none" stroke="#63b8ff" d="M538.02,-497.13C698.6,-483.12 1048,-446.75 1048,-395.5 1048,-395.5 1048,-395.5 1048,-283.5 1048,-240.56 1008.78,-200.98 989.48,-184.1"/>
<polygon fill="#63b8ff" stroke="#63b8ff" points="537.38,-493.67 527.72,-498.02 537.98,-500.65 537.38,-493.67"/>
</a>
</g>
</g>
<!-- Node16 -->
<g id="Node000016" class="node">
<title>Node16</title>
<g id="a_Node000016"><a xlink:href="Ocp1Connection_8h.html" target="_top" xlink:title=" ">
<polygon fill="white" stroke="#666666" points="409.5,-459 268.5,-459 268.5,-440 409.5,-440 409.5,-459"/>
<text text-anchor="middle" x="339" y="-447" font-family="Helvetica,sans-Serif" font-size="10.00">Source/Ocp1Connection.h</text>
</a>
</g>
</g>
<!-- Node1&#45;&gt;Node16 -->
<g id="edge28_Node000001_Node000016" class="edge">
<title>Node1&#45;&gt;Node16</title>
<g id="a_edge28_Node000001_Node000016"><a xlink:title=" ">
<path fill="none" stroke="#63b8ff" d="M430.47,-490.9C408.3,-481.11 378.15,-467.79 358.63,-459.17"/>
<polygon fill="#63b8ff" stroke="#63b8ff" points="429.16,-494.15 439.72,-494.98 431.99,-487.74 429.16,-494.15"/>
</a>
</g>
</g>
<!-- Node19 -->
<g id="Node000019" class="node">
<title>Node19</title>
<g id="a_Node000019"><a xlink:href="Ocp1DataTypes_8cpp.html" target="_top" xlink:title=" ">
<polygon fill="white" stroke="#666666" points="1224.5,-459 1075.5,-459 1075.5,-440 1224.5,-440 1224.5,-459"/>
<text text-anchor="middle" x="1150" y="-447" font-family="Helvetica,sans-Serif" font-size="10.00">Source/Ocp1DataTypes.cpp</text>
</a>
</g>
</g>
<!-- Node1&#45;&gt;Node19 -->
<g id="edge32_Node000001_Node000019" class="edge">
<title>Node1&#45;&gt;Node19</title>
<g id="a_edge32_Node000001_Node000019"><a xlink:title=" ">
<path fill="none" stroke="#63b8ff" d="M537.91,-498.25C653.14,-490.45 874.17,-475 1062,-459 1066.28,-458.64 1070.68,-458.25 1075.12,-457.85"/>
<polygon fill="#63b8ff" stroke="#63b8ff" points="537.51,-494.77 527.77,-498.93 537.98,-501.75 537.51,-494.77"/>
</a>
</g>
</g>
<!-- Node20 -->
<g id="Node000020" class="node">
<title>Node20</title>
<g id="a_Node000020"><a xlink:href="Ocp1Message_8h.html" target="_top" xlink:title=" ">
<polygon fill="white" stroke="#666666" points="773,-404 643,-404 643,-385 773,-385 773,-404"/>
<text text-anchor="middle" x="708" y="-392" font-family="Helvetica,sans-Serif" font-size="10.00">Source/Ocp1Message.h</text>
</a>
</g>
</g>
<!-- Node1&#45;&gt;Node20 -->
<g id="edge33_Node000001_Node000020" class="edge">
<title>Node1&#45;&gt;Node20</title>
<g id="a_edge33_Node000001_Node000020"><a xlink:title=" ">
<path fill="none" stroke="#63b8ff" d="M496.3,-491.82C521.65,-483.52 555.77,-471.64 585,-459 624.93,-441.74 669.88,-417.14 692.8,-404.21"/>
<polygon fill="#63b8ff" stroke="#63b8ff" points="495.13,-488.52 486.7,-494.93 497.29,-495.18 495.13,-488.52"/>
</a>
</g>
</g>
<!-- Node22 -->
<g id="Node000022" class="node">
<title>Node22</title>
<g id="a_Node000022"><a xlink:href="Ocp1ObjectDefinitions_8h.html" target="_top" xlink:title=" ">
<polygon fill="white" stroke="#666666" points="576,-349 406,-349 406,-330 576,-330 576,-349"/>
<text text-anchor="middle" x="491" y="-337" font-family="Helvetica,sans-Serif" font-size="10.00">Source/Ocp1ObjectDefinitions.h</text>
</a>
</g>
</g>
<!-- Node1&#45;&gt;Node22 -->
<g id="edge44_Node000001_Node000022" class="edge">
<title>Node1&#45;&gt;Node22</title>
<g id="a_edge44_Node000001_Node000022"><a xlink:title=" ">
<path fill="none" stroke="#63b8ff" d="M380.12,-496.3C280.1,-484.19 127.41,-453.95 187,-385 214.82,-352.82 325.98,-343.46 405.83,-340.98"/>
<polygon fill="#63b8ff" stroke="#63b8ff" points="379.89,-499.8 390.23,-497.49 380.7,-492.85 379.89,-499.8"/>
</a>
</g>
</g>
<!-- Node24 -->
<g id="Node000024" class="node">
<title>Node24</title>
<g id="a_Node000024"><a xlink:href="Variant_8h.html" target="_top" xlink:title=" ">
<polygon fill="white" stroke="#666666" points="576,-459 480,-459 480,-440 576,-440 576,-459"/>
<text text-anchor="middle" x="528" y="-447" font-family="Helvetica,sans-Serif" font-size="10.00">Source/Variant.h</text>
</a>
</g>
</g>
<!-- Node1&#45;&gt;Node24 -->
<g id="edge46_Node000001_Node000024" class="edge">
<title>Node1&#45;&gt;Node24</title>
<g id="a_edge46_Node000001_Node000024"><a xlink:title=" ">
<path fill="none" stroke="#63b8ff" d="M478.04,-488.88C490.46,-479.34 506.24,-467.21 516.71,-459.17"/>
<polygon fill="#63b8ff" stroke="#63b8ff" points="475.88,-486.12 470.09,-494.98 480.15,-491.67 475.88,-486.12"/>
</a>
</g>
</g>
<!-- Node4 -->
<g id="Node000004" class="node">
<title>Node4</title>
<g id="a_Node000004"><a xlink:href="NanoOcp1_8cpp.html" target="_top" xlink:title=" ">
<polygon fill="white" stroke="#666666" points="151.5,-349 28.5,-349 28.5,-330 151.5,-330 151.5,-349"/>
<text text-anchor="middle" x="90" y="-337" font-family="Helvetica,sans-Serif" font-size="10.00">Source/NanoOcp1.cpp</text>
</a>
</g>
</g>
<!-- Node3&#45;&gt;Node4 -->
<g id="edge3_Node000003_Node000004" class="edge">
<title>Node3&#45;&gt;Node4</title>
<g id="a_edge3_Node000003_Node000004"><a xlink:title=" ">
<path fill="none" stroke="#63b8ff" d="M86.13,-374.66C87.12,-365.93 88.25,-355.99 89.03,-349.09"/>
<polygon fill="#63b8ff" stroke="#63b8ff" points="82.64,-374.42 84.99,-384.75 89.59,-375.21 82.64,-374.42"/>
</a>
</g>
</g>
<!-- Node5 -->
<g id="Node000005" class="node">
<title>Node5</title>
<g id="a_Node000005"><a xlink:href="Ocp1Controller_8h.html" target="_top" xlink:title=" ">
<polygon fill="white" stroke="#666666" points="521,-294 387,-294 387,-275 521,-275 521,-294"/>
<text text-anchor="middle" x="454" y="-282" font-family="Helvetica,sans-Serif" font-size="10.00">Source/Ocp1Controller.h</text>
</a>
</g>
</g>
<!-- Node3&#45;&gt;Node5 -->
<g id="edge4_Node000003_Node000005" class="edge">
<title>Node3&#45;&gt;Node5</title>
<g id="a_edge4_Node000003_Node000005"><a xlink:title=" ">
<path fill="none" stroke="#63b8ff" d="M123.28,-382.03C197.89,-360.26 358.54,-313.36 424.65,-294.07"/>
<polygon fill="#63b8ff" stroke="#63b8ff" points="121.96,-378.77 113.34,-384.94 123.92,-385.49 121.96,-378.77"/>
</a>
</g>
</g>
<!-- Node6 -->
<g id="Node000006" class="node">
<title>Node6</title>
<g id="a_Node000006"><a xlink:href="AmpController_8h.html" target="_top" xlink:title=" ">
<polygon fill="white" stroke="#666666" points="502.5,-239 371.5,-239 371.5,-220 502.5,-220 502.5,-239"/>
<text text-anchor="middle" x="437" y="-227" font-family="Helvetica,sans-Serif" font-size="10.00">Source/AmpController.h</text>
</a>
</g>
</g>
<!-- Node5&#45;&gt;Node6 -->
<g id="edge5_Node000005_Node000006" class="edge">
<title>Node5&#45;&gt;Node6</title>
<g id="a_edge5_Node000005_Node000006"><a xlink:title=" ">
<path fill="none" stroke="#63b8ff" d="M448.05,-264.95C445.23,-256.15 441.99,-246.06 439.75,-239.09"/>
<polygon fill="#63b8ff" stroke="#63b8ff" points="444.81,-266.29 451.19,-274.75 451.47,-264.16 444.81,-266.29"/>
</a>
</g>
</g>
<!-- Node12 -->
<g id="Node000012" class="node">
<title>Node12</title>
<g id="a_Node000012"><a xlink:href="Ocp1Controller_8cpp.html" target="_top" xlink:title=" ">
<polygon fill="white" stroke="#666666" points="896.5,-239 751.5,-239 751.5,-220 896.5,-220 896.5,-239"/>
<text text-anchor="middle" x="824" y="-227" font-family="Helvetica,sans-Serif" font-size="10.00">Source/Ocp1Controller.cpp</text>
</a>
</g>
</g>
<!-- Node5&#45;&gt;Node12 -->
<g id="edge18_Node000005_Node000012" class="edge">
<title>Node5&#45;&gt;Node12</title>
<g id="a_edge18_Node000005_Node000012"><a xlink:title=" ">
<path fill="none" stroke="#63b8ff" d="M523.42,-273.56C592.89,-263.61 698.62,-248.46 764.39,-239.04"/>
<polygon fill="#63b8ff" stroke="#63b8ff" points="522.85,-270.1 513.45,-274.98 523.84,-277.03 522.85,-270.1"/>
</a>
</g>
</g>
<!-- Node13 -->
<g id="Node000013" class="node">
<title>Node13</title>
<g id="a_Node000013"><a xlink:href="SoundscapeController_8h.html" target="_top" xlink:title=" ">
<polygon fill="white" stroke="#666666" points="687.5,-239 520.5,-239 520.5,-220 687.5,-220 687.5,-239"/>
<text text-anchor="middle" x="604" y="-227" font-family="Helvetica,sans-Serif" font-size="10.00">Source/SoundscapeController.h</text>
</a>
</g>
</g>
<!-- Node5&#45;&gt;Node13 -->
<g id="edge19_Node000005_Node000013" class="edge">
<title>Node5&#45;&gt;Node13</title>
<g id="a_edge19_Node000005_Node000013"><a xlink:title=" ">
<path fill="none" stroke="#63b8ff" d="M487.82,-271.55C515.68,-261.71 554.51,-247.98 579.46,-239.17"/>
<polygon fill="#63b8ff" stroke="#63b8ff" points="486.36,-268.35 478.1,-274.98 488.69,-274.95 486.36,-268.35"/>
</a>
</g>
</g>
<!-- Node6&#45;&gt;Node2 -->
<g id="edge17_Node000006_Node000002" class="edge">
<title>Node6&#45;&gt;Node2</title>
<g id="a_edge17_Node000006_Node000002"><a xlink:title=" ">
<path fill="none" stroke="#63b8ff" d="M396.22,-217.18C360.5,-207.27 309.37,-193.08 276.93,-184.08"/>
<polygon fill="#63b8ff" stroke="#63b8ff" points="395.74,-220.68 406.31,-219.98 397.61,-213.94 395.74,-220.68"/>
</a>
</g>
</g>
<!-- Node7 -->
<g id="Node000007" class="node">
<title>Node7</title>
<g id="a_Node000007"><a xlink:href="AppState_8h.html" target="_top" xlink:title=" ">
<polygon fill="white" stroke="#666666" points="526,-184 374,-184 374,-165 526,-165 526,-184"/>
<text text-anchor="middle" x="450" y="-172" font-family="Helvetica,sans-Serif" font-size="10.00">NanoOcp1Demo/AppState.h</text>
</a>
</g>
</g>
<!-- Node6&#45;&gt;Node7 -->
<g id="edge6_Node000006_Node000007" class="edge">
<title>Node6&#45;&gt;Node7</title>
<g id="a_edge6_Node000006_Node000007"><a xlink:title=" ">
<path fill="none" stroke="#63b8ff" d="M441.55,-209.95C443.71,-201.15 446.18,-191.06 447.89,-184.09"/>
<polygon fill="#63b8ff" stroke="#63b8ff" points="438.13,-209.2 439.15,-219.75 444.93,-210.87 438.13,-209.2"/>
</a>
</g>
</g>
<!-- Node8 -->
<g id="Node000008" class="node">
<title>Node8</title>
<g id="a_Node000008"><a xlink:href="Demo_8h.html" target="_top" xlink:title=" ">
<polygon fill="white" stroke="#666666" points="515.5,-74 378.5,-74 378.5,-55 515.5,-55 515.5,-74"/>
<text text-anchor="middle" x="447" y="-62" font-family="Helvetica,sans-Serif" font-size="10.00">NanoOcp1Demo/Demo.h</text>
</a>
</g>
</g>
<!-- Node6&#45;&gt;Node8 -->
<g id="edge15_Node000006_Node000008" class="edge">
<title>Node6&#45;&gt;Node8</title>
<g id="a_edge15_Node000006_Node000008"><a xlink:title=" ">
<path fill="none" stroke="#63b8ff" d="M402.04,-215.82C387.9,-208.76 373.04,-198.42 365,-184 360.89,-176.62 362.16,-172.95 365,-165 379.22,-125.16 417.14,-89.91 436.01,-74.19"/>
<polygon fill="#63b8ff" stroke="#63b8ff" points="400.6,-219.01 411.15,-219.99 403.51,-212.64 400.6,-219.01"/>
</a>
</g>
</g>
<!-- Node10 -->
<g id="Node000010" class="node">
<title>Node10</title>
<g id="a_Node000010"><a xlink:href="Format_8h.html" target="_top" xlink:title=" ">
<polygon fill="white" stroke="#666666" points="601.5,-129 458.5,-129 458.5,-110 601.5,-110 601.5,-129"/>
<text text-anchor="middle" x="530" y="-117" font-family="Helvetica,sans-Serif" font-size="10.00">NanoOcp1Demo/Format.h</text>
</a>
</g>
</g>
<!-- Node6&#45;&gt;Node10 -->
<g id="edge16_Node000006_Node000010" class="edge">
<title>Node6&#45;&gt;Node10</title>
<g id="a_edge16_Node000006_Node000010"><a xlink:title=" ">
<path fill="none" stroke="#63b8ff" d="M490.34,-216.65C507.57,-210.02 524.84,-199.77 535,-184 545.9,-167.08 538.77,-142.12 533.74,-129.11"/>
<polygon fill="#63b8ff" stroke="#63b8ff" points="489.1,-213.37 480.81,-219.97 491.41,-219.98 489.1,-213.37"/>
</a>
</g>
</g>
<!-- Node7&#45;&gt;Node8 -->
<g id="edge7_Node000007_Node000008" class="edge">
<title>Node7&#45;&gt;Node8</title>
<g id="a_edge7_Node000007_Node000008"><a xlink:title=" ">
<path fill="none" stroke="#63b8ff" d="M433.55,-157.37C426.72,-149.52 419.56,-139.53 416,-129 409.08,-108.55 426.33,-86.2 437.78,-74.24"/>
<polygon fill="#63b8ff" stroke="#63b8ff" points="431.01,-159.77 440.39,-164.69 436.13,-154.99 431.01,-159.77"/>
</a>
</g>
</g>
<!-- Node9 -->
<g id="Node000009" class="node">
<title>Node9</title>
<g id="a_Node000009"><a xlink:href="main_8cpp.html" target="_top" xlink:title=" ">
<polygon fill="white" stroke="#666666" points="597,-19 453,-19 453,0 597,0 597,-19"/>
<text text-anchor="middle" x="525" y="-7" font-family="Helvetica,sans-Serif" font-size="10.00">NanoOcp1Demo/main.cpp</text>
</a>
</g>
</g>
<!-- Node7&#45;&gt;Node9 -->
<g id="edge14_Node000007_Node000009" class="edge">
<title>Node7&#45;&gt;Node9</title>
<g id="a_edge14_Node000007_Node000009"><a xlink:title=" ">
<path fill="none" stroke="#63b8ff" d="M427.91,-159.21C395.71,-136.6 342.56,-91.43 370,-55 382.3,-38.68 430.98,-26.5 470.55,-19.05"/>
<polygon fill="#63b8ff" stroke="#63b8ff" points="426.12,-162.22 436.35,-164.96 430.06,-156.44 426.12,-162.22"/>
</a>
</g>
</g>
<!-- Node7&#45;&gt;Node10 -->
<g id="edge9_Node000007_Node000010" class="edge">
<title>Node7&#45;&gt;Node10</title>
<g id="a_edge9_Node000007_Node000010"><a xlink:title=" ">
<path fill="none" stroke="#63b8ff" d="M471.25,-159.42C485.76,-149.81 504.54,-137.37 516.91,-129.17"/>
<polygon fill="#63b8ff" stroke="#63b8ff" points="469.26,-156.54 462.85,-164.98 473.12,-162.38 469.26,-156.54"/>
</a>
</g>
</g>
<!-- Node11 -->
<g id="Node000011" class="node">
<title>Node11</title>
<g id="a_Node000011"><a xlink:href="Panels_8h.html" target="_top" xlink:title=" ">
<polygon fill="white" stroke="#666666" points="674,-74 534,-74 534,-55 674,-55 674,-74"/>
<text text-anchor="middle" x="604" y="-62" font-family="Helvetica,sans-Serif" font-size="10.00">NanoOcp1Demo/Panels.h</text>
</a>
</g>
</g>
<!-- Node7&#45;&gt;Node11 -->
<g id="edge13_Node000007_Node000011" class="edge">
<title>Node7&#45;&gt;Node11</title>
<g id="a_edge13_Node000007_Node000011"><a xlink:title=" ">
<path fill="none" stroke="#63b8ff" d="M444.5,-154.85C441.65,-141.09 440.49,-122.65 450,-110 462.25,-93.71 510.91,-81.49 550.3,-74.02"/>
<polygon fill="#63b8ff" stroke="#63b8ff" points="441.14,-155.83 446.98,-164.67 447.92,-154.12 441.14,-155.83"/>
</a>
</g>
</g>
<!-- Node8&#45;&gt;Node9 -->
<g id="edge8_Node000008_Node000009" class="edge">
<title>Node8&#45;&gt;Node9</title>
<g id="a_edge8_Node000008_Node000009"><a xlink:title=" ">
<path fill="none" stroke="#63b8ff" d="M468.12,-49.15C482.21,-39.57 500.29,-27.29 512.24,-19.17"/>
<polygon fill="#63b8ff" stroke="#63b8ff" points="465.84,-46.47 459.53,-54.98 469.77,-52.26 465.84,-46.47"/>
</a>
</g>
</g>
<!-- Node10&#45;&gt;Node8 -->
<g id="edge10_Node000010_Node000008" class="edge">
<title>Node10&#45;&gt;Node8</title>
<g id="a_edge10_Node000010_Node000008"><a xlink:title=" ">
<path fill="none" stroke="#63b8ff" d="M507.96,-104.42C492.89,-94.81 473.41,-82.37 460.58,-74.17"/>
<polygon fill="#63b8ff" stroke="#63b8ff" points="506.35,-107.55 516.66,-109.98 510.12,-101.65 506.35,-107.55"/>
</a>
</g>
</g>
<!-- Node10&#45;&gt;Node11 -->
<g id="edge11_Node000010_Node000011" class="edge">
<title>Node10&#45;&gt;Node11</title>
<g id="a_edge11_Node000010_Node000011"><a xlink:title=" ">
<path fill="none" stroke="#63b8ff" d="M550.03,-104.15C563.41,-94.57 580.56,-82.29 591.89,-74.17"/>
<polygon fill="#63b8ff" stroke="#63b8ff" points="547.98,-101.32 541.89,-109.98 552.06,-107.01 547.98,-101.32"/>
</a>
</g>
</g>
<!-- Node11&#45;&gt;Node9 -->
<g id="edge12_Node000011_Node000009" class="edge">
<title>Node11&#45;&gt;Node9</title>
<g id="a_edge12_Node000011_Node000009"><a xlink:title=" ">
<path fill="none" stroke="#63b8ff" d="M582.61,-49.15C568.33,-39.57 550.03,-27.29 537.92,-19.17"/>
<polygon fill="#63b8ff" stroke="#63b8ff" points="581.05,-52.32 591.31,-54.98 584.95,-46.51 581.05,-52.32"/>
</a>
</g>
</g>
<!-- Node13&#45;&gt;Node7 -->
<g id="edge20_Node000013_Node000007" class="edge">
<title>Node13&#45;&gt;Node7</title>
<g id="a_edge20_Node000013_Node000007"><a xlink:title=" ">
<path fill="none" stroke="#63b8ff" d="M569.62,-216.67C540.91,-206.79 500.64,-192.93 474.94,-184.08"/>
<polygon fill="#63b8ff" stroke="#63b8ff" points="568.66,-220.04 579.26,-219.98 570.94,-213.42 568.66,-220.04"/>
</a>
</g>
</g>
<!-- Node13&#45;&gt;Node8 -->
<g id="edge21_Node000013_Node000008" class="edge">
<title>Node13&#45;&gt;Node8</title>
<g id="a_edge21_Node000013_Node000008"><a xlink:title=" ">
<path fill="none" stroke="#63b8ff" d="M611.68,-210.53C621.13,-185.3 633.35,-139.22 611,-110 598.19,-93.24 548.51,-81.32 507.16,-74.06"/>
<polygon fill="#63b8ff" stroke="#63b8ff" points="608.38,-209.37 607.91,-219.95 614.87,-211.97 608.38,-209.37"/>
</a>
</g>
</g>
<!-- Node13&#45;&gt;Node10 -->
<g id="edge26_Node000013_Node000010" class="edge">
<title>Node13&#45;&gt;Node10</title>
<g id="a_edge26_Node000013_Node000010"><a xlink:title=" ">
<path fill="none" stroke="#63b8ff" d="M595.09,-210.71C588.28,-197.67 578.33,-179.74 568,-165 558.79,-151.85 546.47,-137.98 538.39,-129.29"/>
<polygon fill="#63b8ff" stroke="#63b8ff" points="592.16,-212.66 599.83,-219.97 598.39,-209.48 592.16,-212.66"/>
</a>
</g>
</g>
<!-- Node14 -->
<g id="Node000014" class="node">
<title>Node14</title>
<g id="a_Node000014"><a xlink:href="FocusParams_8h.html" target="_top" xlink:title=" ">
<polygon fill="white" stroke="#666666" points="830,-129 658,-129 658,-110 830,-110 830,-129"/>
<text text-anchor="middle" x="744" y="-117" font-family="Helvetica,sans-Serif" font-size="10.00">NanoOcp1Demo/FocusParams.h</text>
</a>
</g>
</g>
<!-- Node13&#45;&gt;Node14 -->
<g id="edge22_Node000013_Node000014" class="edge">
<title>Node13&#45;&gt;Node14</title>
<g id="a_edge22_Node000013_Node000014"><a xlink:title=" ">
<path fill="none" stroke="#63b8ff" d="M623.44,-213.5C653.17,-190.57 708.97,-147.52 732.78,-129.16"/>
<polygon fill="#63b8ff" stroke="#63b8ff" points="621.24,-210.78 615.46,-219.66 625.51,-216.33 621.24,-210.78"/>
</a>
</g>
</g>
<!-- Node13&#45;&gt;Node15 -->
<g id="edge27_Node000013_Node000015" class="edge">
<title>Node13&#45;&gt;Node15</title>
<g id="a_edge27_Node000013_Node000015"><a xlink:title=" ">
<path fill="none" stroke="#63b8ff" d="M674.36,-218.56C744.76,-208.61 851.92,-193.46 918.59,-184.04"/>
<polygon fill="#63b8ff" stroke="#63b8ff" points="673.66,-215.12 664.25,-219.98 674.64,-222.05 673.66,-215.12"/>
</a>
</g>
</g>
<!-- Node14&#45;&gt;Node8 -->
<g id="edge23_Node000014_Node000008" class="edge">
<title>Node14&#45;&gt;Node8</title>
<g id="a_edge23_Node000014_Node000008"><a xlink:title=" ">
<path fill="none" stroke="#63b8ff" d="M686.22,-108.19C630.54,-98.25 547.26,-83.39 495.09,-74.08"/>
<polygon fill="#63b8ff" stroke="#63b8ff" points="685.82,-111.67 696.28,-109.98 687.05,-104.78 685.82,-111.67"/>
</a>
</g>
</g>
<!-- Node14&#45;&gt;Node9 -->
<g id="edge25_Node000014_Node000009" class="edge">
<title>Node14&#45;&gt;Node9</title>
<g id="a_edge25_Node000014_Node000009"><a xlink:title=" ">
<path fill="none" stroke="#63b8ff" d="M731.93,-101.6C720.79,-87.19 702.98,-66.98 683,-55 652.32,-36.61 613.75,-25.56 582.4,-19.07"/>
<polygon fill="#63b8ff" stroke="#63b8ff" points="729.18,-103.77 737.96,-109.69 734.79,-99.58 729.18,-103.77"/>
</a>
</g>
</g>
<!-- Node14&#45;&gt;Node11 -->
<g id="edge24_Node000014_Node000011" class="edge">
<title>Node14&#45;&gt;Node11</title>
<g id="a_edge24_Node000014_Node000011"><a xlink:title=" ">
<path fill="none" stroke="#63b8ff" d="M712.09,-106.42C686.12,-96.59 650.08,-82.95 626.9,-74.17"/>
<polygon fill="#63b8ff" stroke="#63b8ff" points="710.92,-109.72 721.51,-109.98 713.39,-103.17 710.92,-109.72"/>
</a>
</g>
</g>
<!-- Node16&#45;&gt;Node3 -->
<g id="edge29_Node000016_Node000003" class="edge">
<title>Node16&#45;&gt;Node3</title>
<g id="a_edge29_Node000016_Node000003"><a xlink:title=" ">
<path fill="none" stroke="#63b8ff" d="M288.2,-437.94C240.4,-428.01 169.71,-413.31 125.29,-404.08"/>
<polygon fill="#63b8ff" stroke="#63b8ff" points="287.53,-441.38 298.03,-439.98 288.95,-434.52 287.53,-441.38"/>
</a>
</g>
</g>
<!-- Node17 -->
<g id="Node000017" class="node">
<title>Node17</title>
<g id="a_Node000017"><a xlink:href="Ocp1Connection_8cpp.html" target="_top" xlink:title=" ">
<polygon fill="white" stroke="#666666" points="784,-349 632,-349 632,-330 784,-330 784,-349"/>
<text text-anchor="middle" x="708" y="-337" font-family="Helvetica,sans-Serif" font-size="10.00">Source/Ocp1Connection.cpp</text>
</a>
</g>
</g>
<!-- Node16&#45;&gt;Node17 -->
<g id="edge30_Node000016_Node000017" class="edge">
<title>Node16&#45;&gt;Node17</title>
<g id="a_edge30_Node000016_Node000017"><a xlink:title=" ">
<path fill="none" stroke="#63b8ff" d="M361.54,-434.77C386.3,-420.29 427.65,-397.83 466,-385 520.08,-366.91 583.57,-355.59 631.95,-348.89"/>
<polygon fill="#63b8ff" stroke="#63b8ff" points="359.72,-431.78 352.91,-439.89 363.29,-437.8 359.72,-431.78"/>
</a>
</g>
</g>
<!-- Node18 -->
<g id="Node000018" class="node">
<title>Node18</title>
<g id="a_Node000018"><a xlink:href="Ocp1ConnectionServer_8cpp.html" target="_top" xlink:title=" ">
<polygon fill="white" stroke="#666666" points="379.5,-404 196.5,-404 196.5,-385 379.5,-385 379.5,-404"/>
<text text-anchor="middle" x="288" y="-392" font-family="Helvetica,sans-Serif" font-size="10.00">Source/Ocp1ConnectionServer.cpp</text>
</a>
</g>
</g>
<!-- Node16&#45;&gt;Node18 -->
<g id="edge31_Node000016_Node000018" class="edge">
<title>Node16&#45;&gt;Node18</title>
<g id="a_edge31_Node000016_Node000018"><a xlink:title=" ">
<path fill="none" stroke="#63b8ff" d="M323.62,-432.52C314.63,-423.18 303.64,-411.75 296.26,-404.09"/>
<polygon fill="#63b8ff" stroke="#63b8ff" points="321.12,-434.97 330.58,-439.75 326.17,-430.12 321.12,-434.97"/>
</a>
</g>
</g>
<!-- Node20&#45;&gt;Node12 -->
<g id="edge35_Node000020_Node000012" class="edge">
<title>Node20&#45;&gt;Node12</title>
<g id="a_edge35_Node000020_Node000012"><a xlink:title=" ">
<path fill="none" stroke="#63b8ff" d="M783.22,-390.13C847.07,-385.5 931.63,-374.6 953,-349 991.49,-302.89 893.81,-257.4 847.16,-239.01"/>
<polygon fill="#63b8ff" stroke="#63b8ff" points="782.9,-386.64 773.17,-390.82 783.38,-393.63 782.9,-386.64"/>
</a>
</g>
</g>
<!-- Node20&#45;&gt;Node15 -->
<g id="edge43_Node000020_Node000015" class="edge">
<title>Node20&#45;&gt;Node15</title>
<g id="a_edge43_Node000020_Node000015"><a xlink:title=" ">
<path fill="none" stroke="#63b8ff" d="M783.59,-390.96C852.38,-386.91 946.77,-376.37 971,-349 1013.77,-300.68 990.63,-211.91 981.88,-184.08"/>
<polygon fill="#63b8ff" stroke="#63b8ff" points="783.01,-387.49 773.21,-391.54 783.39,-394.48 783.01,-387.49"/>
</a>
</g>
</g>
<!-- Node20&#45;&gt;Node17 -->
<g id="edge34_Node000020_Node000017" class="edge">
<title>Node20&#45;&gt;Node17</title>
<g id="a_edge34_Node000020_Node000017"><a xlink:title=" ">
<path fill="none" stroke="#63b8ff" d="M708,-374.66C708,-365.93 708,-355.99 708,-349.09"/>
<polygon fill="#63b8ff" stroke="#63b8ff" points="704.5,-374.75 708,-384.75 711.5,-374.75 704.5,-374.75"/>
</a>
</g>
</g>
<!-- Node21 -->
<g id="Node000021" class="node">
<title>Node21</title>
<g id="a_Node000021"><a xlink:href="Ocp1Message_8cpp.html" target="_top" xlink:title=" ">
<polygon fill="white" stroke="#666666" points="943.5,-349 802.5,-349 802.5,-330 943.5,-330 943.5,-349"/>
<text text-anchor="middle" x="873" y="-337" font-family="Helvetica,sans-Serif" font-size="10.00">Source/Ocp1Message.cpp</text>
</a>
</g>
</g>
<!-- Node20&#45;&gt;Node21 -->
<g id="edge36_Node000020_Node000021" class="edge">
<title>Node20&#45;&gt;Node21</title>
<g id="a_edge36_Node000020_Node000021"><a xlink:title=" ">
<path fill="none" stroke="#63b8ff" d="M744.43,-381.8C775.22,-371.91 818.62,-357.97 846.28,-349.08"/>
<polygon fill="#63b8ff" stroke="#63b8ff" points="742.96,-378.59 734.51,-384.98 745.1,-385.26 742.96,-378.59"/>
</a>
</g>
</g>
<!-- Node20&#45;&gt;Node22 -->
<g id="edge37_Node000020_Node000022" class="edge">
<title>Node20&#45;&gt;Node22</title>
<g id="a_edge37_Node000020_Node000022"><a xlink:title=" ">
<path fill="none" stroke="#63b8ff" d="M663.23,-382.56C622.58,-372.64 563.47,-358.2 526.14,-349.08"/>
<polygon fill="#63b8ff" stroke="#63b8ff" points="662.59,-386.01 673.14,-384.98 664.25,-379.21 662.59,-386.01"/>
</a>
</g>
</g>
<!-- Node22&#45;&gt;Node2 -->
<g id="edge38_Node000022_Node000002" class="edge">
<title>Node22&#45;&gt;Node2</title>
<g id="a_edge38_Node000022_Node000002"><a xlink:title=" ">
<path fill="none" stroke="#63b8ff" d="M451.29,-326.74C428.85,-319.17 400.81,-308.09 378,-294 324.55,-260.98 272.47,-205.34 253.51,-184.09"/>
<polygon fill="#63b8ff" stroke="#63b8ff" points="450.25,-330.09 460.85,-329.87 452.43,-323.43 450.25,-330.09"/>
</a>
</g>
</g>
<!-- Node22&#45;&gt;Node5 -->
<g id="edge39_Node000022_Node000005" class="edge">
<title>Node22&#45;&gt;Node5</title>
<g id="a_edge39_Node000022_Node000005"><a xlink:title=" ">
<path fill="none" stroke="#63b8ff" d="M479.05,-321.39C472.69,-312.27 465.13,-301.45 460,-294.09"/>
<polygon fill="#63b8ff" stroke="#63b8ff" points="476.3,-323.55 484.89,-329.75 482.04,-319.55 476.3,-323.55"/>
</a>
</g>
</g>
<!-- Node22&#45;&gt;Node13 -->
<g id="edge42_Node000022_Node000013" class="edge">
<title>Node22&#45;&gt;Node13</title>
<g id="a_edge42_Node000022_Node000013"><a xlink:title=" ">
<path fill="none" stroke="#63b8ff" d="M507.63,-322.61C531.84,-299.47 575.97,-257.29 594.94,-239.16"/>
<polygon fill="#63b8ff" stroke="#63b8ff" points="505.06,-320.22 500.25,-329.66 509.89,-325.28 505.06,-320.22"/>
</a>
</g>
</g>
<!-- Node23 -->
<g id="Node000023" class="node">
<title>Node23</title>
<g id="a_Node000023"><a xlink:href="Ocp1DS100ObjectDefinitions_8h.html" target="_top" xlink:title=" ">
<polygon fill="white" stroke="#666666" points="889,-294 687,-294 687,-275 889,-275 889,-294"/>
<text text-anchor="middle" x="788" y="-282" font-family="Helvetica,sans-Serif" font-size="10.00">Source/Ocp1DS100ObjectDefinitions.h</text>
</a>
</g>
</g>
<!-- Node22&#45;&gt;Node23 -->
<g id="edge40_Node000022_Node000023" class="edge">
<title>Node22&#45;&gt;Node23</title>
<g id="a_edge40_Node000022_Node000023"><a xlink:title=" ">
<path fill="none" stroke="#63b8ff" d="M548.78,-328.19C604.46,-318.25 687.74,-303.39 739.91,-294.08"/>
<polygon fill="#63b8ff" stroke="#63b8ff" points="547.95,-324.78 538.72,-329.98 549.18,-331.67 547.95,-324.78"/>
</a>
</g>
</g>
<!-- Node23&#45;&gt;Node15 -->
<g id="edge41_Node000023_Node000015" class="edge">
<title>Node23&#45;&gt;Node15</title>
<g id="a_edge41_Node000023_Node000015"><a xlink:title=" ">
<path fill="none" stroke="#63b8ff" d="M829.09,-271.98C852.55,-264.45 881.98,-253.34 906,-239 932.25,-223.33 958.07,-197.84 970.81,-184.42"/>
<polygon fill="#63b8ff" stroke="#63b8ff" points="827.94,-268.67 819.43,-274.99 830.02,-275.36 827.94,-268.67"/>
</a>
</g>
</g>
<!-- Node24&#45;&gt;Node5 -->
<g id="edge47_Node000024_Node000005" class="edge">
<title>Node24&#45;&gt;Node5</title>
<g id="a_edge47_Node000024_Node000005"><a xlink:title=" ">
<path fill="none" stroke="#63b8ff" d="M497.56,-435.67C465.66,-420.33 417.39,-391.32 397,-349 385.94,-326.04 415.47,-305.27 436.04,-294.11"/>
<polygon fill="#63b8ff" stroke="#63b8ff" points="496.34,-438.96 506.89,-439.99 499.29,-432.61 496.34,-438.96"/>
</a>
</g>
</g>
<!-- Node24&#45;&gt;Node13 -->
<g id="edge49_Node000024_Node000013" class="edge">
<title>Node24&#45;&gt;Node13</title>
<g id="a_edge49_Node000024_Node000013"><a xlink:title=" ">
<path fill="none" stroke="#63b8ff" d="M557.35,-435.08C569.91,-427.75 583.41,-417.41 591,-404 622.56,-348.28 610.76,-265.86 605.78,-239.18"/>
<polygon fill="#63b8ff" stroke="#63b8ff" points="555.6,-432.05 548.47,-439.88 558.93,-438.2 555.6,-432.05"/>
</a>
</g>
</g>
<!-- Node24&#45;&gt;Node20 -->
<g id="edge48_Node000024_Node000020" class="edge">
<title>Node24&#45;&gt;Node20</title>
<g id="a_edge48_Node000024_Node000020"><a xlink:title=" ">
<path fill="none" stroke="#63b8ff" d="M566.87,-437.06C600.51,-427.15 648.42,-413.04 678.85,-404.08"/>
<polygon fill="#63b8ff" stroke="#63b8ff" points="565.52,-433.8 556.92,-439.98 567.5,-440.52 565.52,-433.8"/>
</a>
</g>
</g>
<!-- Node25 -->
<g id="Node000025" class="node">
<title>Node25</title>
<g id="a_Node000025"><a xlink:href="Variant_8cpp.html" target="_top" xlink:title=" ">
<polygon fill="white" stroke="#666666" points="581.5,-404 474.5,-404 474.5,-385 581.5,-385 581.5,-404"/>
<text text-anchor="middle" x="528" y="-392" font-family="Helvetica,sans-Serif" font-size="10.00">Source/Variant.cpp</text>
</a>
</g>
</g>
<!-- Node24&#45;&gt;Node25 -->
<g id="edge50_Node000024_Node000025" class="edge">
<title>Node24&#45;&gt;Node25</title>
<g id="a_edge50_Node000024_Node000025"><a xlink:title=" ">
<path fill="none" stroke="#63b8ff" d="M528,-429.66C528,-420.93 528,-410.99 528,-404.09"/>
<polygon fill="#63b8ff" stroke="#63b8ff" points="524.5,-429.75 528,-439.75 531.5,-429.75 524.5,-429.75"/>
</a>
</g>
</g>
</g>
</svg>
