<?xml version="1.0" encoding="UTF-8" standalone="no"?>
<!DOCTYPE svg PUBLIC "-//W3C//DTD SVG 1.1//EN"
 "http://www.w3.org/Graphics/SVG/1.1/DTD/svg11.dtd">
<!-- Generated by graphviz version 2.43.0 (0)
 -->
<!-- Title: Source/Ocp1ObjectDefinitions.h Pages: 1 -->
<svg width="744pt" height="357pt"
 viewBox="0.00 0.00 744.00 357.00" xmlns="http://www.w3.org/2000/svg" xmlns:xlink="http://www.w3.org/1999/xlink">
<g id="graph0" class="graph" transform="scale(1 1) rotate(0) translate(4 353)">
<title>Source/Ocp1ObjectDefinitions.h</title>
<!-- Node1 -->
<g id="Node000001" class="node">
<title>Node1</title>
<g id="a_Node000001"><a xlink:title=" ">
<polygon fill="#999999" stroke="#666666" points="473.5,-349 303.5,-349 303.5,-330 473.5,-330 473.5,-349"/>
<text text-anchor="middle" x="388.5" y="-337" font-family="Helvetica,sans-Serif" font-size="10.00">Source/Ocp1ObjectDefinitions.h</text>
</a>
</g>
</g>
<!-- Node2 -->
<g id="Node000002" class="node">
<title>Node2</title>
<g id="a_Node000002"><a xlink:href="AmpController_8cpp.html" target="_top" xlink:title=" ">
<polygon fill="white" stroke="#666666" points="143,-184 0,-184 0,-165 143,-165 143,-184"/>
<text text-anchor="middle" x="71.5" y="-172" font-family="Helvetica,sans-Serif" font-size="10.00">Source/AmpController.cpp</text>
</a>
</g>
</g>
<!-- Node1&#45;&gt;Node2 -->
<g id="edge1_Node000001_Node000002" class="edge">
<title>Node1&#45;&gt;Node2</title>
<g id="a_edge1_Node000001_Node000002"><a xlink:title=" ">
<path fill="none" stroke="#63b8ff" d="M293.08,-331.56C225.65,-321.53 138.22,-297.3 85.5,-239 71.57,-223.59 70.43,-197.53 70.89,-184.09"/>
<polygon fill="#63b8ff" stroke="#63b8ff" points="292.91,-335.07 303.3,-333 293.88,-328.14 292.91,-335.07"/>
</a>
</g>
</g>
<!-- Node3 -->
<g id="Node000003" class="node">
<title>Node3</title>
<g id="a_Node000003"><a xlink:href="Ocp1Controller_8h.html" target="_top" xlink:title=" ">
<polygon fill="white" stroke="#666666" points="408.5,-294 274.5,-294 274.5,-275 408.5,-275 408.5,-294"/>
<text text-anchor="middle" x="341.5" y="-282" font-family="Helvetica,sans-Serif" font-size="10.00">Source/Ocp1Controller.h</text>
</a>
</g>
</g>
<!-- Node1&#45;&gt;Node3 -->
<g id="edge2_Node000001_Node000003" class="edge">
<title>Node1&#45;&gt;Node3</title>
<g id="a_edge2_Node000001_Node000003"><a xlink:title=" ">
<path fill="none" stroke="#63b8ff" d="M374.08,-322.24C365.84,-312.95 355.85,-301.68 349.12,-294.09"/>
<polygon fill="#63b8ff" stroke="#63b8ff" points="371.49,-324.59 380.74,-329.75 376.72,-319.94 371.49,-324.59"/>
</a>
</g>
</g>
<!-- Node11 -->
<g id="Node000011" class="node">
<title>Node11</title>
<g id="a_Node000011"><a xlink:href="SoundscapeController_8h.html" target="_top" xlink:title=" ">
<polygon fill="white" stroke="#666666" points="574,-239 407,-239 407,-220 574,-220 574,-239"/>
<text text-anchor="middle" x="490.5" y="-227" font-family="Helvetica,sans-Serif" font-size="10.00">Source/SoundscapeController.h</text>
</a>
</g>
</g>
<!-- Node1&#45;&gt;Node11 -->
<g id="edge28_Node000001_Node000011" class="edge">
<title>Node1&#45;&gt;Node11</title>
<g id="a_edge28_Node000001_Node000011"><a xlink:title=" ">
<path fill="none" stroke="#63b8ff" d="M403.8,-322.3C425.71,-299.1 465.28,-257.21 482.32,-239.16"/>
<polygon fill="#63b8ff" stroke="#63b8ff" points="401.17,-319.99 396.85,-329.66 406.26,-324.79 401.17,-319.99"/>
</a>
</g>
</g>
<!-- Node14 -->
<g id="Node000014" class="node">
<title>Node14</title>
<g id="a_Node000014"><a xlink:href="Ocp1DS100ObjectDefinitions_8h.html" target="_top" xlink:title=" ">
<polygon fill="white" stroke="#666666" points="706.5,-294 504.5,-294 504.5,-275 706.5,-275 706.5,-294"/>
<text text-anchor="middle" x="605.5" y="-282" font-family="Helvetica,sans-Serif" font-size="10.00">Source/Ocp1DS100ObjectDefinitions.h</text>
</a>
</g>
</g>
<!-- Node1&#45;&gt;Node14 -->
<g id="edge26_Node000001_Node000014" class="edge">
<title>Node1&#45;&gt;Node14</title>
<g id="a_edge26_Node000001_Node000014"><a xlink:title=" ">
<path fill="none" stroke="#63b8ff" d="M433.27,-327.56C473.92,-317.64 533.03,-303.2 570.36,-294.08"/>
<polygon fill="#63b8ff" stroke="#63b8ff" points="432.25,-324.21 423.36,-329.98 433.91,-331.01 432.25,-324.21"/>
</a>
</g>
</g>
<!-- Node4 -->
<g id="Node000004" class="node">
<title>Node4</title>
<g id="a_Node000004"><a xlink:href="AmpController_8h.html" target="_top" xlink:title=" ">
<polygon fill="white" stroke="#666666" points="389,-239 258,-239 258,-220 389,-220 389,-239"/>
<text text-anchor="middle" x="323.5" y="-227" font-family="Helvetica,sans-Serif" font-size="10.00">Source/AmpController.h</text>
</a>
</g>
</g>
<!-- Node3&#45;&gt;Node4 -->
<g id="edge3_Node000003_Node000004" class="edge">
<title>Node3&#45;&gt;Node4</title>
<g id="a_edge3_Node000003_Node000004"><a xlink:title=" ">
<path fill="none" stroke="#63b8ff" d="M335.3,-265.24C332.29,-256.37 328.81,-246.14 326.42,-239.09"/>
<polygon fill="#63b8ff" stroke="#63b8ff" points="332,-266.4 338.53,-274.75 338.63,-264.15 332,-266.4"/>
</a>
</g>
</g>
<!-- Node10 -->
<g id="Node000010" class="node">
<title>Node10</title>
<g id="a_Node000010"><a xlink:href="Ocp1Controller_8cpp.html" target="_top" xlink:title=" ">
<polygon fill="white" stroke="#666666" points="240,-239 95,-239 95,-220 240,-220 240,-239"/>
<text text-anchor="middle" x="167.5" y="-227" font-family="Helvetica,sans-Serif" font-size="10.00">Source/Ocp1Controller.cpp</text>
</a>
</g>
</g>
<!-- Node3&#45;&gt;Node10 -->
<g id="edge16_Node000003_Node000010" class="edge">
<title>Node3&#45;&gt;Node10</title>
<g id="a_edge16_Node000003_Node000010"><a xlink:title=" ">
<path fill="none" stroke="#63b8ff" d="M303.93,-272.06C271.41,-262.15 225.1,-248.04 195.68,-239.08"/>
<polygon fill="#63b8ff" stroke="#63b8ff" points="302.96,-275.42 313.54,-274.98 305,-268.72 302.96,-275.42"/>
</a>
</g>
</g>
<!-- Node3&#45;&gt;Node11 -->
<g id="edge17_Node000003_Node000011" class="edge">
<title>Node3&#45;&gt;Node11</title>
<g id="a_edge17_Node000003_Node000011"><a xlink:title=" ">
<path fill="none" stroke="#63b8ff" d="M375.09,-271.55C402.76,-261.71 441.34,-247.98 466.12,-239.17"/>
<polygon fill="#63b8ff" stroke="#63b8ff" points="373.69,-268.34 365.44,-274.98 376.03,-274.93 373.69,-268.34"/>
</a>
</g>
</g>
<!-- Node4&#45;&gt;Node2 -->
<g id="edge15_Node000004_Node000002" class="edge">
<title>Node4&#45;&gt;Node2</title>
<g id="a_edge15_Node000004_Node000002"><a xlink:title=" ">
<path fill="none" stroke="#63b8ff" d="M273,-217.88C225.76,-207.94 156.11,-193.3 112.31,-184.08"/>
<polygon fill="#63b8ff" stroke="#63b8ff" points="272.51,-221.35 283.01,-219.98 273.95,-214.5 272.51,-221.35"/>
</a>
</g>
</g>
<!-- Node5 -->
<g id="Node000005" class="node">
<title>Node5</title>
<g id="a_Node000005"><a xlink:href="AppState_8h.html" target="_top" xlink:title=" ">
<polygon fill="white" stroke="#666666" points="364.5,-184 212.5,-184 212.5,-165 364.5,-165 364.5,-184"/>
<text text-anchor="middle" x="288.5" y="-172" font-family="Helvetica,sans-Serif" font-size="10.00">NanoOcp1Demo/AppState.h</text>
</a>
</g>
</g>
<!-- Node4&#45;&gt;Node5 -->
<g id="edge4_Node000004_Node000005" class="edge">
<title>Node4&#45;&gt;Node5</title>
<g id="a_edge4_Node000004_Node000005"><a xlink:title=" ">
<path fill="none" stroke="#63b8ff" d="M312.2,-211.39C306.18,-202.27 299.03,-191.45 294.17,-184.09"/>
<polygon fill="#63b8ff" stroke="#63b8ff" points="309.29,-213.33 317.72,-219.75 315.13,-209.47 309.29,-213.33"/>
</a>
</g>
</g>
<!-- Node6 -->
<g id="Node000006" class="node">
<title>Node6</title>
<g id="a_Node000006"><a xlink:href="Demo_8h.html" target="_top" xlink:title=" ">
<polygon fill="white" stroke="#666666" points="399,-74 262,-74 262,-55 399,-55 399,-74"/>
<text text-anchor="middle" x="330.5" y="-62" font-family="Helvetica,sans-Serif" font-size="10.00">NanoOcp1Demo/Demo.h</text>
</a>
</g>
</g>
<!-- Node4&#45;&gt;Node6 -->
<g id="edge13_Node000004_Node000006" class="edge">
<title>Node4&#45;&gt;Node6</title>
<g id="a_edge13_Node000004_Node000006"><a xlink:title=" ">
<path fill="none" stroke="#63b8ff" d="M254.59,-217.44C221.18,-208.44 190.73,-192.54 203.5,-165 224.95,-118.75 280.09,-87.97 310.18,-74.04"/>
<polygon fill="#63b8ff" stroke="#63b8ff" points="253.99,-220.9 264.54,-219.91 255.67,-214.11 253.99,-220.9"/>
</a>
</g>
</g>
<!-- Node8 -->
<g id="Node000008" class="node">
<title>Node8</title>
<g id="a_Node000008"><a xlink:href="Format_8h.html" target="_top" xlink:title=" ">
<polygon fill="white" stroke="#666666" points="462,-129 319,-129 319,-110 462,-110 462,-129"/>
<text text-anchor="middle" x="390.5" y="-117" font-family="Helvetica,sans-Serif" font-size="10.00">NanoOcp1Demo/Format.h</text>
</a>
</g>
</g>
<!-- Node4&#45;&gt;Node8 -->
<g id="edge14_Node000004_Node000008" class="edge">
<title>Node4&#45;&gt;Node8</title>
<g id="a_edge14_Node000004_Node000008"><a xlink:title=" ">
<path fill="none" stroke="#63b8ff" d="M345.26,-213.74C355.2,-205.96 366.33,-195.63 373.5,-184 384.28,-166.51 388.31,-142.22 389.75,-129.34"/>
<polygon fill="#63b8ff" stroke="#63b8ff" points="342.92,-211.12 336.96,-219.88 347.08,-216.74 342.92,-211.12"/>
</a>
</g>
</g>
<!-- Node5&#45;&gt;Node6 -->
<g id="edge5_Node000005_Node000006" class="edge">
<title>Node5&#45;&gt;Node6</title>
<g id="a_edge5_Node000005_Node000006"><a xlink:title=" ">
<path fill="none" stroke="#63b8ff" d="M279.44,-155.52C274.14,-142.38 269.7,-124.41 276.5,-110 284.12,-93.85 300.79,-81.57 313.61,-74.05"/>
<polygon fill="#63b8ff" stroke="#63b8ff" points="276.36,-157.2 283.68,-164.86 282.73,-154.31 276.36,-157.2"/>
</a>
</g>
</g>
<!-- Node7 -->
<g id="Node000007" class="node">
<title>Node7</title>
<g id="a_Node000007"><a xlink:href="main_8cpp.html" target="_top" xlink:title=" ">
<polygon fill="white" stroke="#666666" points="480.5,-19 336.5,-19 336.5,0 480.5,0 480.5,-19"/>
<text text-anchor="middle" x="408.5" y="-7" font-family="Helvetica,sans-Serif" font-size="10.00">NanoOcp1Demo/main.cpp</text>
</a>
</g>
</g>
<!-- Node5&#45;&gt;Node7 -->
<g id="edge12_Node000005_Node000007" class="edge">
<title>Node5&#45;&gt;Node7</title>
<g id="a_edge12_Node000005_Node000007"><a xlink:title=" ">
<path fill="none" stroke="#63b8ff" d="M275.17,-156.85C257.25,-132.3 230.16,-85.98 253.5,-55 265.8,-38.68 314.48,-26.5 354.05,-19.05"/>
<polygon fill="#63b8ff" stroke="#63b8ff" points="272.41,-159 281.25,-164.84 277.98,-154.76 272.41,-159"/>
</a>
</g>
</g>
<!-- Node5&#45;&gt;Node8 -->
<g id="edge7_Node000005_Node000008" class="edge">
<title>Node5&#45;&gt;Node8</title>
<g id="a_edge7_Node000005_Node000008"><a xlink:title=" ">
<path fill="none" stroke="#63b8ff" d="M313.77,-160.37C332.51,-150.63 357.52,-137.64 373.81,-129.17"/>
<polygon fill="#63b8ff" stroke="#63b8ff" points="312.15,-157.27 304.89,-164.98 315.38,-163.48 312.15,-157.27"/>
</a>
</g>
</g>
<!-- Node9 -->
<g id="Node000009" class="node">
<title>Node9</title>
<g id="a_Node000009"><a xlink:href="Panels_8h.html" target="_top" xlink:title=" ">
<polygon fill="white" stroke="#666666" points="557.5,-74 417.5,-74 417.5,-55 557.5,-55 557.5,-74"/>
<text text-anchor="middle" x="487.5" y="-62" font-family="Helvetica,sans-Serif" font-size="10.00">NanoOcp1Demo/Panels.h</text>
</a>
</g>
</g>
<!-- Node5&#45;&gt;Node9 -->
<g id="edge11_Node000005_Node000009" class="edge">
<title>Node5&#45;&gt;Node9</title>
<g id="a_edge11_Node000005_Node000009"><a xlink:title=" ">
<path fill="none" stroke="#63b8ff" d="M290.28,-154.54C292.61,-140.33 298.01,-121.44 310.5,-110 327.85,-94.11 384.63,-81.68 429.25,-74.04"/>
<polygon fill="#63b8ff" stroke="#63b8ff" points="286.78,-154.34 288.99,-164.7 293.72,-155.22 286.78,-154.34"/>
</a>
</g>
</g>
<!-- Node6&#45;&gt;Node7 -->
<g id="edge6_Node000006_Node000007" class="edge">
<title>Node6&#45;&gt;Node7</title>
<g id="a_edge6_Node000006_Node000007"><a xlink:title=" ">
<path fill="none" stroke="#63b8ff" d="M351.62,-49.15C365.71,-39.57 383.79,-27.29 395.74,-19.17"/>
<polygon fill="#63b8ff" stroke="#63b8ff" points="349.34,-46.47 343.03,-54.98 353.27,-52.26 349.34,-46.47"/>
</a>
</g>
</g>
<!-- Node8&#45;&gt;Node6 -->
<g id="edge8_Node000008_Node000006" class="edge">
<title>Node8&#45;&gt;Node6</title>
<g id="a_edge8_Node000008_Node000006"><a xlink:title=" ">
<path fill="none" stroke="#63b8ff" d="M373.32,-103.32C362.62,-93.87 349.24,-82.06 340.32,-74.17"/>
<polygon fill="#63b8ff" stroke="#63b8ff" points="371.05,-105.99 380.86,-109.98 375.68,-100.74 371.05,-105.99"/>
</a>
</g>
</g>
<!-- Node8&#45;&gt;Node9 -->
<g id="edge9_Node000008_Node000009" class="edge">
<title>Node8&#45;&gt;Node9</title>
<g id="a_edge9_Node000008_Node000009"><a xlink:title=" ">
<path fill="none" stroke="#63b8ff" d="M415.27,-104.97C433,-95.28 456.35,-82.52 471.63,-74.17"/>
<polygon fill="#63b8ff" stroke="#63b8ff" points="413.18,-102.12 406.08,-109.98 416.54,-108.26 413.18,-102.12"/>
</a>
</g>
</g>
<!-- Node9&#45;&gt;Node7 -->
<g id="edge10_Node000009_Node000007" class="edge">
<title>Node9&#45;&gt;Node7</title>
<g id="a_edge10_Node000009_Node000007"><a xlink:title=" ">
<path fill="none" stroke="#63b8ff" d="M466.11,-49.15C451.83,-39.57 433.53,-27.29 421.42,-19.17"/>
<polygon fill="#63b8ff" stroke="#63b8ff" points="464.55,-52.32 474.81,-54.98 468.45,-46.51 464.55,-52.32"/>
</a>
</g>
</g>
<!-- Node11&#45;&gt;Node5 -->
<g id="edge18_Node000011_Node000005" class="edge">
<title>Node11&#45;&gt;Node5</title>
<g id="a_edge18_Node000011_Node000005"><a xlink:title=" ">
<path fill="none" stroke="#63b8ff" d="M448.34,-217.44C410.52,-207.52 355.81,-193.16 321.21,-184.08"/>
<polygon fill="#63b8ff" stroke="#63b8ff" points="447.48,-220.83 458.05,-219.98 449.26,-214.06 447.48,-220.83"/>
</a>
</g>
</g>
<!-- Node11&#45;&gt;Node6 -->
<g id="edge19_Node000011_Node000006" class="edge">
<title>Node11&#45;&gt;Node6</title>
<g id="a_edge19_Node000011_Node000006"><a xlink:title=" ">
<path fill="none" stroke="#63b8ff" d="M493.08,-209.55C495.45,-183.83 495.58,-137.9 471.5,-110 453.39,-89.01 425.46,-77.81 399.23,-71.88"/>
<polygon fill="#63b8ff" stroke="#63b8ff" points="489.56,-209.47 491.9,-219.8 496.52,-210.26 489.56,-209.47"/>
</a>
</g>
</g>
<!-- Node11&#45;&gt;Node8 -->
<g id="edge24_Node000011_Node000008" class="edge">
<title>Node11&#45;&gt;Node8</title>
<g id="a_edge24_Node000011_Node000008"><a xlink:title=" ">
<path fill="none" stroke="#63b8ff" d="M475.5,-212.3C454.02,-189.1 415.23,-147.21 398.52,-129.16"/>
<polygon fill="#63b8ff" stroke="#63b8ff" points="472.95,-214.7 482.32,-219.66 478.09,-209.95 472.95,-214.7"/>
</a>
</g>
</g>
<!-- Node12 -->
<g id="Node000012" class="node">
<title>Node12</title>
<g id="a_Node000012"><a xlink:href="FocusParams_8h.html" target="_top" xlink:title=" ">
<polygon fill="white" stroke="#666666" points="690.5,-129 518.5,-129 518.5,-110 690.5,-110 690.5,-129"/>
<text text-anchor="middle" x="604.5" y="-117" font-family="Helvetica,sans-Serif" font-size="10.00">NanoOcp1Demo/FocusParams.h</text>
</a>
</g>
</g>
<!-- Node11&#45;&gt;Node12 -->
<g id="edge20_Node000011_Node000012" class="edge">
<title>Node11&#45;&gt;Node12</title>
<g id="a_edge20_Node000011_Node000012"><a xlink:title=" ">
<path fill="none" stroke="#63b8ff" d="M504.21,-212.09C515.56,-198.86 532.38,-180.04 548.5,-165 562.84,-151.61 580.81,-137.8 592.47,-129.18"/>
<polygon fill="#63b8ff" stroke="#63b8ff" points="501.4,-209.99 497.61,-219.88 506.74,-214.52 501.4,-209.99"/>
</a>
</g>
</g>
<!-- Node13 -->
<g id="Node000013" class="node">
<title>Node13</title>
<g id="a_Node000013"><a xlink:href="SoundscapeController_8cpp.html" target="_top" xlink:title=" ">
<polygon fill="white" stroke="#666666" points="736,-184 557,-184 557,-165 736,-165 736,-184"/>
<text text-anchor="middle" x="646.5" y="-172" font-family="Helvetica,sans-Serif" font-size="10.00">Source/SoundscapeController.cpp</text>
</a>
</g>
</g>
<!-- Node11&#45;&gt;Node13 -->
<g id="edge25_Node000011_Node000013" class="edge">
<title>Node11&#45;&gt;Node13</title>
<g id="a_edge25_Node000011_Node000013"><a xlink:title=" ">
<path fill="none" stroke="#63b8ff" d="M525.32,-216.67C554.41,-206.79 595.2,-192.93 621.24,-184.08"/>
<polygon fill="#63b8ff" stroke="#63b8ff" points="523.91,-213.45 515.56,-219.98 526.16,-220.08 523.91,-213.45"/>
</a>
</g>
</g>
<!-- Node12&#45;&gt;Node6 -->
<g id="edge21_Node000012_Node000006" class="edge">
<title>Node12&#45;&gt;Node6</title>
<g id="a_edge21_Node000012_Node000006"><a xlink:title=" ">
<path fill="none" stroke="#63b8ff" d="M550.55,-108.07C499.19,-98.13 422.8,-83.35 374.87,-74.08"/>
<polygon fill="#63b8ff" stroke="#63b8ff" points="549.99,-111.52 560.48,-109.98 551.32,-104.65 549.99,-111.52"/>
</a>
</g>
</g>
<!-- Node12&#45;&gt;Node7 -->
<g id="edge23_Node000012_Node000007" class="edge">
<title>Node12&#45;&gt;Node7</title>
<g id="a_edge23_Node000012_Node000007"><a xlink:title=" ">
<path fill="none" stroke="#63b8ff" d="M597.99,-100.32C591.95,-85.99 581.61,-66.56 566.5,-55 541.83,-36.13 509.52,-25.26 480.56,-19"/>
<polygon fill="#63b8ff" stroke="#63b8ff" points="594.74,-101.62 601.63,-109.67 601.26,-99.08 594.74,-101.62"/>
</a>
</g>
</g>
<!-- Node12&#45;&gt;Node9 -->
<g id="edge22_Node000012_Node000009" class="edge">
<title>Node12&#45;&gt;Node9</title>
<g id="a_edge22_Node000012_Node000009"><a xlink:title=" ">
<path fill="none" stroke="#63b8ff" d="M576.39,-105.77C554.81,-95.99 525.59,-82.75 506.64,-74.17"/>
<polygon fill="#63b8ff" stroke="#63b8ff" points="575.15,-109.05 585.7,-109.98 578.04,-102.67 575.15,-109.05"/>
</a>
</g>
</g>
<!-- Node14&#45;&gt;Node13 -->
<g id="edge27_Node000014_Node000013" class="edge">
<title>Node14&#45;&gt;Node13</title>
<g id="a_edge27_Node000014_Node000013"><a xlink:title=" ">
<path fill="none" stroke="#63b8ff" d="M612.48,-265.12C621.42,-241.56 636.57,-201.66 643.21,-184.16"/>
<polygon fill="#63b8ff" stroke="#63b8ff" points="609.13,-264.07 608.86,-274.66 615.68,-266.56 609.13,-264.07"/>
</a>
</g>
</g>
</g>
</svg>
