<?xml version="1.0" encoding="UTF-8" standalone="no"?>
<!DOCTYPE svg PUBLIC "-//W3C//DTD SVG 1.1//EN"
 "http://www.w3.org/Graphics/SVG/1.1/DTD/svg11.dtd">
<!-- Generated by graphviz version 2.43.0 (0)
 -->
<!-- Title: Source/Ocp1Message.cpp Pages: 1 -->
<svg width="292pt" height="247pt"
 viewBox="0.00 0.00 291.50 247.00" xmlns="http://www.w3.org/2000/svg" xmlns:xlink="http://www.w3.org/1999/xlink">
<g id="graph0" class="graph" transform="scale(1 1) rotate(0) translate(4 243)">
<title>Source/Ocp1Message.cpp</title>
<!-- Node1 -->
<g id="Node000001" class="node">
<title>Node1</title>
<g id="a_Node000001"><a xlink:title=" ">
<polygon fill="#999999" stroke="#666666" points="221.5,-239 80.5,-239 80.5,-220 221.5,-220 221.5,-239"/>
<text text-anchor="middle" x="151" y="-227" font-family="Helvetica,sans-Serif" font-size="10.00">Source/Ocp1Message.cpp</text>
</a>
</g>
</g>
<!-- Node2 -->
<g id="Node000002" class="node">
<title>Node2</title>
<g id="a_Node000002"><a xlink:href="Ocp1Message_8h.html" target="_top" xlink:title=" ">
<polygon fill="white" stroke="#666666" points="153,-184 59,-184 59,-165 153,-165 153,-184"/>
<text text-anchor="middle" x="106" y="-172" font-family="Helvetica,sans-Serif" font-size="10.00">Ocp1Message.h</text>
</a>
</g>
</g>
<!-- Node1&#45;&gt;Node2 -->
<g id="edge1_Node000001_Node000002" class="edge">
<title>Node1&#45;&gt;Node2</title>
<g id="a_edge1_Node000001_Node000002"><a xlink:title=" ">
<path fill="none" stroke="#63b8ff" d="M143.57,-219.75C137.15,-212.18 127.69,-201.05 119.88,-191.84"/>
<polygon fill="#63b8ff" stroke="#63b8ff" points="122.43,-189.45 113.29,-184.09 117.1,-193.98 122.43,-189.45"/>
</a>
</g>
</g>
<!-- Node12 -->
<g id="Node000012" class="node">
<title>Node12</title>
<g id="a_Node000012"><a xlink:title=" ">
<polygon fill="#e0e0e0" stroke="#999999" points="223,-184 171,-184 171,-165 223,-165 223,-184"/>
<text text-anchor="middle" x="197" y="-172" font-family="Helvetica,sans-Serif" font-size="10.00">cassert</text>
</a>
</g>
</g>
<!-- Node1&#45;&gt;Node12 -->
<g id="edge13_Node000001_Node000012" class="edge">
<title>Node1&#45;&gt;Node12</title>
<g id="a_edge13_Node000001_Node000012"><a xlink:title=" ">
<path fill="none" stroke="#63b8ff" d="M158.6,-219.75C165.16,-212.18 174.82,-201.05 182.81,-191.84"/>
<polygon fill="#63b8ff" stroke="#63b8ff" points="185.63,-193.94 189.55,-184.09 180.35,-189.35 185.63,-193.94"/>
</a>
</g>
</g>
<!-- Node3 -->
<g id="Node000003" class="node">
<title>Node3</title>
<g id="a_Node000003"><a xlink:title=" ">
<polygon fill="#e0e0e0" stroke="#999999" points="58,-129 0,-129 0,-110 58,-110 58,-129"/>
<text text-anchor="middle" x="29" y="-117" font-family="Helvetica,sans-Serif" font-size="10.00">memory</text>
</a>
</g>
</g>
<!-- Node2&#45;&gt;Node3 -->
<g id="edge2_Node000002_Node000003" class="edge">
<title>Node2&#45;&gt;Node3</title>
<g id="a_edge2_Node000002_Node000003"><a xlink:title=" ">
<path fill="none" stroke="#63b8ff" d="M93.63,-164.98C81.91,-156.92 64.08,-144.65 50.11,-135.03"/>
<polygon fill="#63b8ff" stroke="#63b8ff" points="51.82,-131.96 41.6,-129.17 47.85,-137.72 51.82,-131.96"/>
</a>
</g>
</g>
<!-- Node4 -->
<g id="Node000004" class="node">
<title>Node4</title>
<g id="a_Node000004"><a xlink:href="Variant_8h.html" target="_top" xlink:title=" ">
<polygon fill="white" stroke="#666666" points="136,-129 76,-129 76,-110 136,-110 136,-129"/>
<text text-anchor="middle" x="106" y="-117" font-family="Helvetica,sans-Serif" font-size="10.00">Variant.h</text>
</a>
</g>
</g>
<!-- Node2&#45;&gt;Node4 -->
<g id="edge3_Node000002_Node000004" class="edge">
<title>Node2&#45;&gt;Node4</title>
<g id="a_edge3_Node000002_Node000004"><a xlink:title=" ">
<path fill="none" stroke="#63b8ff" d="M106,-164.75C106,-157.8 106,-147.85 106,-139.13"/>
<polygon fill="#63b8ff" stroke="#63b8ff" points="109.5,-139.09 106,-129.09 102.5,-139.09 109.5,-139.09"/>
</a>
</g>
</g>
<!-- Node8 -->
<g id="Node000008" class="node">
<title>Node8</title>
<g id="a_Node000008"><a xlink:href="Ocp1DataTypes_8h.html" target="_top" xlink:title=" ">
<polygon fill="white" stroke="#666666" points="246.5,-74 145.5,-74 145.5,-55 246.5,-55 246.5,-74"/>
<text text-anchor="middle" x="196" y="-62" font-family="Helvetica,sans-Serif" font-size="10.00">Ocp1DataTypes.h</text>
</a>
</g>
</g>
<!-- Node2&#45;&gt;Node8 -->
<g id="edge12_Node000002_Node000008" class="edge">
<title>Node2&#45;&gt;Node8</title>
<g id="a_edge12_Node000002_Node000008"><a xlink:title=" ">
<path fill="none" stroke="#63b8ff" d="M113.88,-164.73C121.84,-155.83 134.43,-141.59 145,-129 158.14,-113.33 172.71,-95.1 182.9,-82.2"/>
<polygon fill="#63b8ff" stroke="#63b8ff" points="185.75,-84.25 189.19,-74.22 180.25,-79.92 185.75,-84.25"/>
</a>
</g>
</g>
<!-- Node5 -->
<g id="Node000005" class="node">
<title>Node5</title>
<g id="a_Node000005"><a xlink:title=" ">
<polygon fill="#e0e0e0" stroke="#999999" points="51,-19 1,-19 1,0 51,0 51,-19"/>
<text text-anchor="middle" x="26" y="-7" font-family="Helvetica,sans-Serif" font-size="10.00">cstdint</text>
</a>
</g>
</g>
<!-- Node4&#45;&gt;Node5 -->
<g id="edge4_Node000004_Node000005" class="edge">
<title>Node4&#45;&gt;Node5</title>
<g id="a_edge4_Node000004_Node000005"><a xlink:title=" ">
<path fill="none" stroke="#63b8ff" d="M78.35,-109.96C51.74,-101.12 14.33,-86.83 6,-74 -3.21,-59.82 4.63,-41.12 13.05,-27.69"/>
<polygon fill="#63b8ff" stroke="#63b8ff" points="15.99,-29.58 18.76,-19.35 10.22,-25.62 15.99,-29.58"/>
</a>
</g>
</g>
<!-- Node6 -->
<g id="Node000006" class="node">
<title>Node6</title>
<g id="a_Node000006"><a xlink:title=" ">
<polygon fill="#e0e0e0" stroke="#999999" points="66.5,-74 15.5,-74 15.5,-55 66.5,-55 66.5,-74"/>
<text text-anchor="middle" x="41" y="-62" font-family="Helvetica,sans-Serif" font-size="10.00">variant</text>
</a>
</g>
</g>
<!-- Node4&#45;&gt;Node6 -->
<g id="edge5_Node000004_Node000006" class="edge">
<title>Node4&#45;&gt;Node6</title>
<g id="a_edge5_Node000004_Node000006"><a xlink:title=" ">
<path fill="none" stroke="#63b8ff" d="M95.56,-109.98C85.85,-102.07 71.18,-90.11 59.5,-80.58"/>
<polygon fill="#63b8ff" stroke="#63b8ff" points="61.6,-77.78 51.63,-74.17 57.17,-83.2 61.6,-77.78"/>
</a>
</g>
</g>
<!-- Node7 -->
<g id="Node000007" class="node">
<title>Node7</title>
<g id="a_Node000007"><a xlink:title=" ">
<polygon fill="#e0e0e0" stroke="#999999" points="127,-74 85,-74 85,-55 127,-55 127,-74"/>
<text text-anchor="middle" x="106" y="-62" font-family="Helvetica,sans-Serif" font-size="10.00">array</text>
</a>
</g>
</g>
<!-- Node4&#45;&gt;Node7 -->
<g id="edge6_Node000004_Node000007" class="edge">
<title>Node4&#45;&gt;Node7</title>
<g id="a_edge6_Node000004_Node000007"><a xlink:title=" ">
<path fill="none" stroke="#63b8ff" d="M106,-109.75C106,-102.8 106,-92.85 106,-84.13"/>
<polygon fill="#63b8ff" stroke="#63b8ff" points="109.5,-84.09 106,-74.09 102.5,-84.09 109.5,-84.09"/>
</a>
</g>
</g>
<!-- Node4&#45;&gt;Node8 -->
<g id="edge7_Node000004_Node000008" class="edge">
<title>Node4&#45;&gt;Node8</title>
<g id="a_edge7_Node000004_Node000008"><a xlink:title=" ">
<path fill="none" stroke="#63b8ff" d="M120.46,-109.98C134.42,-101.77 155.79,-89.18 172.25,-79.49"/>
<polygon fill="#63b8ff" stroke="#63b8ff" points="174.44,-82.26 181.28,-74.17 170.88,-76.23 174.44,-82.26"/>
</a>
</g>
</g>
<!-- Node8&#45;&gt;Node5 -->
<g id="edge11_Node000008_Node000005" class="edge">
<title>Node8&#45;&gt;Node5</title>
<g id="a_edge11_Node000008_Node000005"><a xlink:title=" ">
<path fill="none" stroke="#63b8ff" d="M168.69,-54.98C139.38,-45.85 92.76,-31.31 60.84,-21.36"/>
<polygon fill="#63b8ff" stroke="#63b8ff" points="61.62,-17.94 51.03,-18.3 59.53,-24.62 61.62,-17.94"/>
</a>
</g>
</g>
<!-- Node9 -->
<g id="Node000009" class="node">
<title>Node9</title>
<g id="a_Node000009"><a xlink:title=" ">
<polygon fill="#e0e0e0" stroke="#999999" points="155.5,-19 108.5,-19 108.5,0 155.5,0 155.5,-19"/>
<text text-anchor="middle" x="132" y="-7" font-family="Helvetica,sans-Serif" font-size="10.00">vector</text>
</a>
</g>
</g>
<!-- Node8&#45;&gt;Node9 -->
<g id="edge8_Node000008_Node000009" class="edge">
<title>Node8&#45;&gt;Node9</title>
<g id="a_edge8_Node000008_Node000009"><a xlink:title=" ">
<path fill="none" stroke="#63b8ff" d="M185.72,-54.98C176.16,-47.07 161.72,-35.11 150.22,-25.58"/>
<polygon fill="#63b8ff" stroke="#63b8ff" points="152.4,-22.85 142.47,-19.17 147.94,-28.24 152.4,-22.85"/>
</a>
</g>
</g>
<!-- Node10 -->
<g id="Node000010" class="node">
<title>Node10</title>
<g id="a_Node000010"><a xlink:title=" ">
<polygon fill="#e0e0e0" stroke="#999999" points="218,-19 174,-19 174,0 218,0 218,-19"/>
<text text-anchor="middle" x="196" y="-7" font-family="Helvetica,sans-Serif" font-size="10.00">string</text>
</a>
</g>
</g>
<!-- Node8&#45;&gt;Node10 -->
<g id="edge9_Node000008_Node000010" class="edge">
<title>Node8&#45;&gt;Node10</title>
<g id="a_edge9_Node000008_Node000010"><a xlink:title=" ">
<path fill="none" stroke="#63b8ff" d="M196,-54.75C196,-47.8 196,-37.85 196,-29.13"/>
<polygon fill="#63b8ff" stroke="#63b8ff" points="199.5,-29.09 196,-19.09 192.5,-29.09 199.5,-29.09"/>
</a>
</g>
</g>
<!-- Node11 -->
<g id="Node000011" class="node">
<title>Node11</title>
<g id="a_Node000011"><a xlink:title=" ">
<polygon fill="#e0e0e0" stroke="#999999" points="283.5,-19 236.5,-19 236.5,0 283.5,0 283.5,-19"/>
<text text-anchor="middle" x="260" y="-7" font-family="Helvetica,sans-Serif" font-size="10.00">cmath</text>
</a>
</g>
</g>
<!-- Node8&#45;&gt;Node11 -->
<g id="edge10_Node000008_Node000011" class="edge">
<title>Node8&#45;&gt;Node11</title>
<g id="a_edge10_Node000008_Node000011"><a xlink:title=" ">
<path fill="none" stroke="#63b8ff" d="M206.28,-54.98C215.84,-47.07 230.28,-35.11 241.78,-25.58"/>
<polygon fill="#63b8ff" stroke="#63b8ff" points="244.06,-28.24 249.53,-19.17 239.6,-22.85 244.06,-28.24"/>
</a>
</g>
</g>
</g>
</svg>
