<?xml version="1.0" encoding="UTF-8" standalone="no"?>
<!DOCTYPE svg PUBLIC "-//W3C//DTD SVG 1.1//EN"
 "http://www.w3.org/Graphics/SVG/1.1/DTD/svg11.dtd">
<!-- Generated by graphviz version 2.43.0 (0)
 -->
<!-- Title: Source/Ocp1ConnectionServer.cpp Pages: 1 -->
<!--zoomable 192 -->

<svg id="main" version="1.1" xmlns="http://www.w3.org/2000/svg" xmlns:xlink="http://www.w3.org/1999/xlink" xml:space="preserve" onload="init(evt)">
<style type="text/css"><![CDATA[
.node, .edge {opacity: 0.7;}
.node.selected, .edge.selected {opacity: 1;}
.edge:hover path { stroke: red; }
.edge:hover polygon { stroke: red; fill: red; }
]]></style>

<defs>
  <circle id="rim" cx="0" cy="0" r="7"/>
  <circle id="rim2" cx="0" cy="0" r="3.5"/>
  <g id="zoomPlus">
    <use xlink:href="#rim" fill="#404040"><set attributeName="fill" to="#808080" begin="zoomplus.mouseover" end="zoomplus.mouseout"/></use>
    <path d="M-4,0h8M0,-4v8" fill="none" stroke="white" stroke-width="1.5" pointer-events="none"/>
  </g>
  <g id="zoomMin">
    <use xlink:href="#rim" fill="#404040"><set attributeName="fill" to="#808080" begin="zoomminus.mouseover" end="zoomminus.mouseout"/></use>
    <path d="M-4,0h8" fill="none" stroke="white" stroke-width="1.5" pointer-events="none"/>
  </g>
  <g id="arrowUp" transform="translate(30 24)">
    <use xlink:href="#rim"/>
    <path pointer-events="none" fill="none" stroke="white" stroke-width="1.5" d="M0,-3.0v7 M-2.5,-0.5L0,-3.0L2.5,-0.5"/>
  </g>
  <g id="arrowRight" transform="rotate(90) translate(36 -43)">
    <use xlink:href="#rim"/>
    <path pointer-events="none" fill="none" stroke="white" stroke-width="1.5" d="M0,-3.0v7 M-2.5,-0.5L0,-3.0L2.5,-0.5"/>
  </g>
  <g id="arrowDown" transform="rotate(180) translate(-30 -48)">
    <use xlink:href="#rim"/>
    <path pointer-events="none" fill="none" stroke="white" stroke-width="1.5" d="M0,-3.0v7 M-2.5,-0.5L0,-3.0L2.5,-0.5"/>
  </g>
  <g id="arrowLeft" transform="rotate(270) translate(-36 17)">
    <use xlink:href="#rim"/>
    <path pointer-events="none" fill="none" stroke="white" stroke-width="1.5" d="M0,-3.0v7 M-2.5,-0.5L0,-3.0L2.5,-0.5"/>
  </g>
  <g id="resetDef">
    <use xlink:href="#rim2" fill="#404040"><set attributeName="fill" to="#808080" begin="reset.mouseover" end="reset.mouseout"/></use>
  </g>
</defs>
<script type="application/ecmascript">
var viewWidth = 960;
var viewHeight = 192;
var sectionId = 'dynsection-0';
</script>
<script type="application/ecmascript" xlink:href="svg.min.js"/>
<svg id="graph" class="graph">
<g id="viewport">
<title>Source/Ocp1ConnectionServer.cpp</title>
<!-- Node1 -->
<g id="Node000001" class="node">
<title>Node1</title>
<g id="a_Node000001"><a xlink:title=" ">
<polygon fill="#999999" stroke="#666666" points="329.41,-184 146.41,-184 146.41,-165 329.41,-165 329.41,-184"/>
<text text-anchor="middle" x="237.91" y="-172" font-family="Helvetica,sans-Serif" font-size="10.00">Source/Ocp1ConnectionServer.cpp</text>
</a>
</g>
</g>
<!-- Node2 -->
<g id="Node000002" class="node">
<title>Node2</title>
<g id="a_Node000002"><a xlink:href="Ocp1ConnectionServer_8h.html" target="_top" xlink:title=" ">
<polygon fill="white" stroke="#666666" points="221.91,-129 85.91,-129 85.91,-110 221.91,-110 221.91,-129"/>
<text text-anchor="middle" x="153.91" y="-117" font-family="Helvetica,sans-Serif" font-size="10.00">Ocp1ConnectionServer.h</text>
</a>
</g>
</g>
<!-- Node1&#45;&gt;Node2 -->
<g id="edge1_Node000001_Node000002" class="edge">
<title>Node1&#45;&gt;Node2</title>
<g id="a_edge1_Node000001_Node000002"><a xlink:title=" ">
<path fill="none" stroke="#63b8ff" d="M224.42,-164.98C211.51,-156.84 191.81,-144.41 176.51,-134.76"/>
<polygon fill="#63b8ff" stroke="#63b8ff" points="177.98,-131.55 167.65,-129.17 174.24,-137.47 177.98,-131.55"/>
</a>
</g>
</g>
<!-- Node10 -->
<g id="Node000010" class="node">
<title>Node10</title>
<g id="a_Node000010"><a xlink:href="Ocp1Connection_8h.html" target="_top" xlink:title=" ">
<polygon fill="white" stroke="#666666" points="440.41,-129 335.41,-129 335.41,-110 440.41,-110 440.41,-129"/>
<text text-anchor="middle" x="387.91" y="-117" font-family="Helvetica,sans-Serif" font-size="10.00">Ocp1Connection.h</text>
</a>
</g>
</g>
<!-- Node1&#45;&gt;Node10 -->
<g id="edge11_Node000001_Node000010" class="edge">
<title>Node1&#45;&gt;Node10</title>
<g id="a_edge11_Node000001_Node000010"><a xlink:title=" ">
<path fill="none" stroke="#63b8ff" d="M262.01,-164.98C286.8,-156.23 325.62,-142.51 353.6,-132.62"/>
<polygon fill="#63b8ff" stroke="#63b8ff" points="355.11,-135.8 363.37,-129.17 352.78,-129.2 355.11,-135.8"/>
</a>
</g>
</g>
<!-- Node3 -->
<g id="Node000003" class="node">
<title>Node3</title>
<g id="a_Node000003"><a xlink:title=" ">
<polygon fill="#e0e0e0" stroke="#999999" points="73.91,-74 15.91,-74 15.91,-55 73.91,-55 73.91,-74"/>
<text text-anchor="middle" x="44.91" y="-62" font-family="Helvetica,sans-Serif" font-size="10.00">memory</text>
</a>
</g>
</g>
<!-- Node2&#45;&gt;Node3 -->
<g id="edge2_Node000002_Node000003" class="edge">
<title>Node2&#45;&gt;Node3</title>
<g id="a_edge2_Node000002_Node000003"><a xlink:title=" ">
<path fill="none" stroke="#63b8ff" d="M136.4,-109.98C118.94,-101.5 91.9,-88.35 71.74,-78.54"/>
<polygon fill="#63b8ff" stroke="#63b8ff" points="73.27,-75.4 62.74,-74.17 70.21,-81.69 73.27,-75.4"/>
</a>
</g>
</g>
<!-- Node4 -->
<g id="Node000004" class="node">
<title>Node4</title>
<g id="a_Node000004"><a xlink:title=" ">
<polygon fill="#e0e0e0" stroke="#999999" points="211.91,-19 167.91,-19 167.91,0 211.91,0 211.91,-19"/>
<text text-anchor="middle" x="189.91" y="-7" font-family="Helvetica,sans-Serif" font-size="10.00">string</text>
</a>
</g>
</g>
<!-- Node2&#45;&gt;Node4 -->
<g id="edge3_Node000002_Node000004" class="edge">
<title>Node2&#45;&gt;Node4</title>
<g id="a_edge3_Node000002_Node000004"><a xlink:title=" ">
<path fill="none" stroke="#63b8ff" d="M85.42,-111.64C35.68,-103.84 -18.77,-87.68 6.91,-55 25.32,-31.58 110.24,-18.95 157.66,-13.62"/>
<polygon fill="#63b8ff" stroke="#63b8ff" points="158.16,-17.09 167.73,-12.54 157.41,-10.13 158.16,-17.09"/>
</a>
</g>
</g>
<!-- Node5 -->
<g id="Node000005" class="node">
<title>Node5</title>
<g id="a_Node000005"><a xlink:href="NanoSocket_8h.html" target="_top" xlink:title=" ">
<polygon fill="white" stroke="#666666" points="215.91,-74 91.91,-74 91.91,-55 215.91,-55 215.91,-74"/>
<text text-anchor="middle" x="153.91" y="-62" font-family="Helvetica,sans-Serif" font-size="10.00">internal/NanoSocket.h</text>
</a>
</g>
</g>
<!-- Node2&#45;&gt;Node5 -->
<g id="edge4_Node000002_Node000005" class="edge">
<title>Node2&#45;&gt;Node5</title>
<g id="a_edge4_Node000002_Node000005"><a xlink:title=" ">
<path fill="none" stroke="#63b8ff" d="M153.91,-109.75C153.91,-102.8 153.91,-92.85 153.91,-84.13"/>
<polygon fill="#63b8ff" stroke="#63b8ff" points="157.41,-84.09 153.91,-74.09 150.41,-84.09 157.41,-84.09"/>
</a>
</g>
</g>
<!-- Node6 -->
<g id="Node000006" class="node">
<title>Node6</title>
<g id="a_Node000006"><a xlink:href="NanoThread_8h.html" target="_top" xlink:title=" ">
<polygon fill="white" stroke="#666666" points="516.41,-74 391.41,-74 391.41,-55 516.41,-55 516.41,-74"/>
<text text-anchor="middle" x="453.91" y="-62" font-family="Helvetica,sans-Serif" font-size="10.00">internal/NanoThread.h</text>
</a>
</g>
</g>
<!-- Node2&#45;&gt;Node6 -->
<g id="edge6_Node000002_Node000006" class="edge">
<title>Node2&#45;&gt;Node6</title>
<g id="a_edge6_Node000002_Node000006"><a xlink:title=" ">
<path fill="none" stroke="#63b8ff" d="M202.11,-109.98C254.66,-100.7 338.77,-85.84 395.14,-75.88"/>
<polygon fill="#63b8ff" stroke="#63b8ff" points="396.1,-79.27 405.33,-74.08 394.88,-72.38 396.1,-79.27"/>
</a>
</g>
</g>
<!-- Node5&#45;&gt;Node4 -->
<g id="edge5_Node000005_Node000004" class="edge">
<title>Node5&#45;&gt;Node4</title>
<g id="a_edge5_Node000005_Node000004"><a xlink:title=" ">
<path fill="none" stroke="#63b8ff" d="M159.86,-54.75C164.89,-47.34 172.25,-36.5 178.43,-27.41"/>
<polygon fill="#63b8ff" stroke="#63b8ff" points="181.35,-29.33 184.08,-19.09 175.56,-25.39 181.35,-29.33"/>
</a>
</g>
</g>
<!-- Node6&#45;&gt;Node4 -->
<g id="edge9_Node000006_Node000004" class="edge">
<title>Node6&#45;&gt;Node4</title>
<g id="a_edge9_Node000006_Node000004"><a xlink:title=" ">
<path fill="none" stroke="#63b8ff" d="M402.76,-54.93C357.61,-47.09 289.81,-34.67 222.18,-19.15"/>
<polygon fill="#63b8ff" stroke="#63b8ff" points="222.74,-15.69 212.21,-16.84 221.16,-22.51 222.74,-15.69"/>
</a>
</g>
</g>
<!-- Node7 -->
<g id="Node000007" class="node">
<title>Node7</title>
<g id="a_Node000007"><a xlink:title=" ">
<polygon fill="#e0e0e0" stroke="#999999" points="546.91,-19 496.91,-19 496.91,0 546.91,0 546.91,-19"/>
<text text-anchor="middle" x="521.91" y="-7" font-family="Helvetica,sans-Serif" font-size="10.00">atomic</text>
</a>
</g>
</g>
<!-- Node6&#45;&gt;Node7 -->
<g id="edge7_Node000006_Node000007" class="edge">
<title>Node6&#45;&gt;Node7</title>
<g id="a_edge7_Node000006_Node000007"><a xlink:title=" ">
<path fill="none" stroke="#63b8ff" d="M464.84,-54.98C474.99,-47.07 490.33,-35.11 502.56,-25.58"/>
<polygon fill="#63b8ff" stroke="#63b8ff" points="505.05,-28.08 510.79,-19.17 500.75,-22.56 505.05,-28.08"/>
</a>
</g>
</g>
<!-- Node8 -->
<g id="Node000008" class="node">
<title>Node8</title>
<g id="a_Node000008"><a xlink:title=" ">
<polygon fill="#e0e0e0" stroke="#999999" points="478.91,-19 428.91,-19 428.91,0 478.91,0 478.91,-19"/>
<text text-anchor="middle" x="453.91" y="-7" font-family="Helvetica,sans-Serif" font-size="10.00">chrono</text>
</a>
</g>
</g>
<!-- Node6&#45;&gt;Node8 -->
<g id="edge8_Node000006_Node000008" class="edge">
<title>Node6&#45;&gt;Node8</title>
<g id="a_edge8_Node000006_Node000008"><a xlink:title=" ">
<path fill="none" stroke="#63b8ff" d="M453.91,-54.75C453.91,-47.8 453.91,-37.85 453.91,-29.13"/>
<polygon fill="#63b8ff" stroke="#63b8ff" points="457.41,-29.09 453.91,-19.09 450.41,-29.09 457.41,-29.09"/>
</a>
</g>
</g>
<!-- Node9 -->
<g id="Node000009" class="node">
<title>Node9</title>
<g id="a_Node000009"><a xlink:title=" ">
<polygon fill="#e0e0e0" stroke="#999999" points="612.91,-19 564.91,-19 564.91,0 612.91,0 612.91,-19"/>
<text text-anchor="middle" x="588.91" y="-7" font-family="Helvetica,sans-Serif" font-size="10.00">thread</text>
</a>
</g>
</g>
<!-- Node6&#45;&gt;Node9 -->
<g id="edge10_Node000006_Node000009" class="edge">
<title>Node6&#45;&gt;Node9</title>
<g id="a_edge10_Node000006_Node000009"><a xlink:title=" ">
<path fill="none" stroke="#63b8ff" d="M475.6,-54.98C497.71,-46.3 532.23,-32.75 557.37,-22.88"/>
<polygon fill="#63b8ff" stroke="#63b8ff" points="558.8,-26.08 566.83,-19.17 556.24,-19.57 558.8,-26.08"/>
</a>
</g>
</g>
<!-- Node10&#45;&gt;Node3 -->
<g id="edge14_Node000010_Node000003" class="edge">
<title>Node10&#45;&gt;Node3</title>
<g id="a_edge14_Node000010_Node000003"><a xlink:title=" ">
<path fill="none" stroke="#63b8ff" d="M335.37,-112.05C276.51,-104.56 178.07,-91.22 83.89,-74.06"/>
<polygon fill="#63b8ff" stroke="#63b8ff" points="84.38,-70.59 73.91,-72.22 83.11,-77.47 84.38,-70.59"/>
</a>
</g>
</g>
<!-- Node10&#45;&gt;Node4 -->
<g id="edge16_Node000010_Node000004" class="edge">
<title>Node10&#45;&gt;Node4</title>
<g id="a_edge16_Node000010_Node000004"><a xlink:title=" ">
<path fill="none" stroke="#63b8ff" d="M353.24,-109.94C327.27,-102.64 291.45,-90.68 262.91,-74 240.61,-60.96 218.75,-40.67 204.86,-26.54"/>
<polygon fill="#63b8ff" stroke="#63b8ff" points="207.11,-23.83 197.66,-19.04 202.06,-28.68 207.11,-23.83"/>
</a>
</g>
</g>
<!-- Node10&#45;&gt;Node5 -->
<g id="edge28_Node000010_Node000005" class="edge">
<title>Node10&#45;&gt;Node5</title>
<g id="a_edge28_Node000010_Node000005"><a xlink:title=" ">
<path fill="none" stroke="#63b8ff" d="M350.32,-109.98C309.92,-100.84 245.63,-86.27 201.68,-76.32"/>
<polygon fill="#63b8ff" stroke="#63b8ff" points="202.33,-72.88 191.8,-74.08 200.78,-79.7 202.33,-72.88"/>
</a>
</g>
</g>
<!-- Node10&#45;&gt;Node6 -->
<g id="edge29_Node000010_Node000006" class="edge">
<title>Node10&#45;&gt;Node6</title>
<g id="a_edge29_Node000010_Node000006"><a xlink:title=" ">
<path fill="none" stroke="#63b8ff" d="M398.52,-109.98C408.37,-102.07 423.26,-90.11 435.13,-80.58"/>
<polygon fill="#63b8ff" stroke="#63b8ff" points="437.51,-83.16 443.12,-74.17 433.13,-77.7 437.51,-83.16"/>
</a>
</g>
</g>
<!-- Node10&#45;&gt;Node7 -->
<g id="edge12_Node000010_Node000007" class="edge">
<title>Node10&#45;&gt;Node7</title>
<g id="a_edge12_Node000010_Node000007"><a xlink:title=" ">
<path fill="none" stroke="#63b8ff" d="M440.55,-116.44C504.36,-112.7 606.3,-102.35 629.91,-74 635.32,-67.51 634.61,-62.02 629.91,-55 621.37,-42.24 585.16,-29.01 556.99,-20.33"/>
<polygon fill="#63b8ff" stroke="#63b8ff" points="557.63,-16.86 547.04,-17.34 555.61,-23.57 557.63,-16.86"/>
</a>
</g>
</g>
<!-- Node11 -->
<g id="Node000011" class="node">
<title>Node11</title>
<g id="a_Node000011"><a xlink:title=" ">
<polygon fill="#e0e0e0" stroke="#999999" points="952.41,-19 887.41,-19 887.41,0 952.41,0 952.41,-19"/>
<text text-anchor="middle" x="919.91" y="-7" font-family="Helvetica,sans-Serif" font-size="10.00">functional</text>
</a>
</g>
</g>
<!-- Node10&#45;&gt;Node11 -->
<g id="edge13_Node000010_Node000011" class="edge">
<title>Node10&#45;&gt;Node11</title>
<g id="a_edge13_Node000010_Node000011"><a xlink:title=" ">
<path fill="none" stroke="#63b8ff" d="M440.77,-118.15C548.04,-116.7 787.23,-109.46 859.91,-74 880.91,-63.76 898.36,-42.85 908.93,-27.82"/>
<polygon fill="#63b8ff" stroke="#63b8ff" points="911.94,-29.63 914.59,-19.37 906.12,-25.73 911.94,-29.63"/>
</a>
</g>
</g>
<!-- Node12 -->
<g id="Node000012" class="node">
<title>Node12</title>
<g id="a_Node000012"><a xlink:title=" ">
<polygon fill="#e0e0e0" stroke="#999999" points="620.91,-74 534.91,-74 534.91,-55 620.91,-55 620.91,-74"/>
<text text-anchor="middle" x="577.91" y="-62" font-family="Helvetica,sans-Serif" font-size="10.00">shared_mutex</text>
</a>
</g>
</g>
<!-- Node10&#45;&gt;Node12 -->
<g id="edge15_Node000010_Node000012" class="edge">
<title>Node10&#45;&gt;Node12</title>
<g id="a_edge15_Node000010_Node000012"><a xlink:title=" ">
<path fill="none" stroke="#63b8ff" d="M418.44,-109.98C450.61,-101.01 501.47,-86.82 537.08,-76.89"/>
<polygon fill="#63b8ff" stroke="#63b8ff" points="538.45,-80.14 547.15,-74.08 536.57,-73.4 538.45,-80.14"/>
</a>
</g>
</g>
<!-- Node13 -->
<g id="Node000013" class="node">
<title>Node13</title>
<g id="a_Node000013"><a xlink:href="Ocp1DataTypes_8h.html" target="_top" xlink:title=" ">
<polygon fill="white" stroke="#666666" points="373.41,-74 272.41,-74 272.41,-55 373.41,-55 373.41,-74"/>
<text text-anchor="middle" x="322.91" y="-62" font-family="Helvetica,sans-Serif" font-size="10.00">Ocp1DataTypes.h</text>
</a>
</g>
</g>
<!-- Node10&#45;&gt;Node13 -->
<g id="edge17_Node000010_Node000013" class="edge">
<title>Node10&#45;&gt;Node13</title>
<g id="a_edge17_Node000010_Node000013"><a xlink:title=" ">
<path fill="none" stroke="#63b8ff" d="M377.47,-109.98C367.77,-102.07 353.1,-90.11 341.41,-80.58"/>
<polygon fill="#63b8ff" stroke="#63b8ff" points="343.51,-77.78 333.55,-74.17 339.08,-83.2 343.51,-77.78"/>
</a>
</g>
</g>
<!-- Node17 -->
<g id="Node000017" class="node">
<title>Node17</title>
<g id="a_Node000017"><a xlink:href="NanoAsyncDispatcher_8h.html" target="_top" xlink:title=" ">
<polygon fill="white" stroke="#666666" points="850.41,-74 677.41,-74 677.41,-55 850.41,-55 850.41,-74"/>
<text text-anchor="middle" x="763.91" y="-62" font-family="Helvetica,sans-Serif" font-size="10.00">internal/NanoAsyncDispatcher.h</text>
</a>
</g>
</g>
<!-- Node10&#45;&gt;Node17 -->
<g id="edge22_Node000010_Node000017" class="edge">
<title>Node10&#45;&gt;Node17</title>
<g id="a_edge22_Node000010_Node000017"><a xlink:title=" ">
<path fill="none" stroke="#63b8ff" d="M440.59,-111.07C506.61,-101.77 619.98,-85.79 693.42,-75.44"/>
<polygon fill="#63b8ff" stroke="#63b8ff" points="694.1,-78.88 703.51,-74.01 693.12,-71.94 694.1,-78.88"/>
</a>
</g>
</g>
<!-- Node13&#45;&gt;Node4 -->
<g id="edge19_Node000013_Node000004" class="edge">
<title>Node13&#45;&gt;Node4</title>
<g id="a_edge19_Node000013_Node000004"><a xlink:title=" ">
<path fill="none" stroke="#63b8ff" d="M301.54,-54.98C279.76,-46.3 245.75,-32.75 220.99,-22.88"/>
<polygon fill="#63b8ff" stroke="#63b8ff" points="222.26,-19.62 211.67,-19.17 219.66,-26.12 222.26,-19.62"/>
</a>
</g>
</g>
<!-- Node14 -->
<g id="Node000014" class="node">
<title>Node14</title>
<g id="a_Node000014"><a xlink:title=" ">
<polygon fill="#e0e0e0" stroke="#999999" points="345.41,-19 298.41,-19 298.41,0 345.41,0 345.41,-19"/>
<text text-anchor="middle" x="321.91" y="-7" font-family="Helvetica,sans-Serif" font-size="10.00">vector</text>
</a>
</g>
</g>
<!-- Node13&#45;&gt;Node14 -->
<g id="edge18_Node000013_Node000014" class="edge">
<title>Node13&#45;&gt;Node14</title>
<g id="a_edge18_Node000013_Node000014"><a xlink:title=" ">
<path fill="none" stroke="#63b8ff" d="M322.75,-54.75C322.62,-47.8 322.43,-37.85 322.26,-29.13"/>
<polygon fill="#63b8ff" stroke="#63b8ff" points="325.76,-29.02 322.07,-19.09 318.76,-29.15 325.76,-29.02"/>
</a>
</g>
</g>
<!-- Node15 -->
<g id="Node000015" class="node">
<title>Node15</title>
<g id="a_Node000015"><a xlink:title=" ">
<polygon fill="#e0e0e0" stroke="#999999" points="410.41,-19 363.41,-19 363.41,0 410.41,0 410.41,-19"/>
<text text-anchor="middle" x="386.91" y="-7" font-family="Helvetica,sans-Serif" font-size="10.00">cmath</text>
</a>
</g>
</g>
<!-- Node13&#45;&gt;Node15 -->
<g id="edge20_Node000013_Node000015" class="edge">
<title>Node13&#45;&gt;Node15</title>
<g id="a_edge20_Node000013_Node000015"><a xlink:title=" ">
<path fill="none" stroke="#63b8ff" d="M333.2,-54.98C342.75,-47.07 357.19,-35.11 368.7,-25.58"/>
<polygon fill="#63b8ff" stroke="#63b8ff" points="370.97,-28.24 376.44,-19.17 366.51,-22.85 370.97,-28.24"/>
</a>
</g>
</g>
<!-- Node16 -->
<g id="Node000016" class="node">
<title>Node16</title>
<g id="a_Node000016"><a xlink:title=" ">
<polygon fill="#e0e0e0" stroke="#999999" points="279.91,-19 229.91,-19 229.91,0 279.91,0 279.91,-19"/>
<text text-anchor="middle" x="254.91" y="-7" font-family="Helvetica,sans-Serif" font-size="10.00">cstdint</text>
</a>
</g>
</g>
<!-- Node13&#45;&gt;Node16 -->
<g id="edge21_Node000013_Node000016" class="edge">
<title>Node13&#45;&gt;Node16</title>
<g id="a_edge21_Node000013_Node000016"><a xlink:title=" ">
<path fill="none" stroke="#63b8ff" d="M311.99,-54.98C301.84,-47.07 286.49,-35.11 274.27,-25.58"/>
<polygon fill="#63b8ff" stroke="#63b8ff" points="276.08,-22.56 266.04,-19.17 271.77,-28.08 276.08,-22.56"/>
</a>
</g>
</g>
<!-- Node17&#45;&gt;Node9 -->
<g id="edge27_Node000017_Node000009" class="edge">
<title>Node17&#45;&gt;Node9</title>
<g id="a_edge27_Node000017_Node000009"><a xlink:title=" ">
<path fill="none" stroke="#63b8ff" d="M735.8,-54.98C704.97,-45.65 655.54,-30.68 622.65,-20.72"/>
<polygon fill="#63b8ff" stroke="#63b8ff" points="623.6,-17.35 613.02,-17.8 621.57,-24.05 623.6,-17.35"/>
</a>
</g>
</g>
<!-- Node17&#45;&gt;Node11 -->
<g id="edge25_Node000017_Node000011" class="edge">
<title>Node17&#45;&gt;Node11</title>
<g id="a_edge25_Node000017_Node000011"><a xlink:title=" ">
<path fill="none" stroke="#63b8ff" d="M788.98,-54.98C814.94,-46.16 855.72,-32.31 884.87,-22.41"/>
<polygon fill="#63b8ff" stroke="#63b8ff" points="886.31,-25.61 894.65,-19.08 884.06,-18.99 886.31,-25.61"/>
</a>
</g>
</g>
<!-- Node18 -->
<g id="Node000018" class="node">
<title>Node18</title>
<g id="a_Node000018"><a xlink:title=" ">
<polygon fill="#e0e0e0" stroke="#999999" points="804.41,-19 697.41,-19 697.41,0 804.41,0 804.41,-19"/>
<text text-anchor="middle" x="750.91" y="-7" font-family="Helvetica,sans-Serif" font-size="10.00">condition_variable</text>
</a>
</g>
</g>
<!-- Node17&#45;&gt;Node18 -->
<g id="edge23_Node000017_Node000018" class="edge">
<title>Node17&#45;&gt;Node18</title>
<g id="a_edge23_Node000017_Node000018"><a xlink:title=" ">
<path fill="none" stroke="#63b8ff" d="M761.77,-54.75C760.04,-47.72 757.57,-37.62 755.41,-28.84"/>
<polygon fill="#63b8ff" stroke="#63b8ff" points="758.8,-27.97 753.02,-19.09 752,-29.63 758.8,-27.97"/>
</a>
</g>
</g>
<!-- Node19 -->
<g id="Node000019" class="node">
<title>Node19</title>
<g id="a_Node000019"><a xlink:title=" ">
<polygon fill="#e0e0e0" stroke="#999999" points="869.41,-19 822.41,-19 822.41,0 869.41,0 869.41,-19"/>
<text text-anchor="middle" x="845.91" y="-7" font-family="Helvetica,sans-Serif" font-size="10.00">deque</text>
</a>
</g>
</g>
<!-- Node17&#45;&gt;Node19 -->
<g id="edge24_Node000017_Node000019" class="edge">
<title>Node17&#45;&gt;Node19</title>
<g id="a_edge24_Node000017_Node000019"><a xlink:title=" ">
<path fill="none" stroke="#63b8ff" d="M777.09,-54.98C789.68,-46.84 808.92,-34.41 823.85,-24.76"/>
<polygon fill="#63b8ff" stroke="#63b8ff" points="826,-27.54 832.5,-19.17 822.2,-21.66 826,-27.54"/>
</a>
</g>
</g>
<!-- Node20 -->
<g id="Node000020" class="node">
<title>Node20</title>
<g id="a_Node000020"><a xlink:title=" ">
<polygon fill="#e0e0e0" stroke="#999999" points="678.91,-19 630.91,-19 630.91,0 678.91,0 678.91,-19"/>
<text text-anchor="middle" x="654.91" y="-7" font-family="Helvetica,sans-Serif" font-size="10.00">mutex</text>
</a>
</g>
</g>
<!-- Node17&#45;&gt;Node20 -->
<g id="edge26_Node000017_Node000020" class="edge">
<title>Node17&#45;&gt;Node20</title>
<g id="a_edge26_Node000017_Node000020"><a xlink:title=" ">
<path fill="none" stroke="#63b8ff" d="M746.4,-54.98C728.94,-46.5 701.9,-33.35 681.74,-23.54"/>
<polygon fill="#63b8ff" stroke="#63b8ff" points="683.27,-20.4 672.74,-19.17 680.21,-26.69 683.27,-20.4"/>
</a>
</g>
</g>
</g>
</svg>

<g id="navigator" transform="translate(0 0)" fill="#404254">
  <rect fill="#f2f5e9" fill-opacity="0.5" stroke="#606060" stroke-width=".5" x="0" y="0" width="60" height="60"/>
  <use id="zoomplus" xlink:href="#zoomPlus" x="17" y="9" onmousedown="handleZoom(evt,'in')"/>
  <use id="zoomminus" xlink:href="#zoomMin" x="42" y="9" onmousedown="handleZoom(evt,'out')"/>
  <use id="reset" xlink:href="#resetDef" x="30" y="36" onmousedown="handleReset()"/>
   <use id="arrowup" xlink:href="#arrowUp" x="0" y="0" onmousedown="handlePan(0,-1)"/>
  <use id="arrowright" xlink:href="#arrowRight" x="0" y="0" onmousedown="handlePan(1,0)"/>
  <use id="arrowdown" xlink:href="#arrowDown" x="0" y="0" onmousedown="handlePan(0,1)"/>
  <use id="arrowleft" xlink:href="#arrowLeft" x="0" y="0" onmousedown="handlePan(-1,0)"/>
</g>
<svg viewBox="0 0 15 15" width="100%" height="30px" preserveAspectRatio="xMaxYMin meet">
 <g id="arrow_out" transform="scale(0.3 0.3)">
  <a xlink:href="Ocp1ConnectionServer_8cpp__incl_org.svg" target="_base">
   <rect id="button" ry="5" rx="5" y="6" x="6" height="38" width="38"
        fill="#f2f5e9" fill-opacity="0.5" stroke="#606060" stroke-width="1.0"/>
   <path id="arrow"
     d="M 11.500037,31.436501 C 11.940474,20.09759 22.043105,11.32322 32.158766,21.979434 L 37.068811,17.246167 C 37.068811,17.246167 37.088388,32 37.088388,32 L 22.160133,31.978069 C 22.160133,31.978069 26.997745,27.140456 26.997745,27.140456 C 18.528582,18.264221 13.291696,25.230495 11.500037,31.436501 z"
     style="fill:#404040;"/>
  </a>
 </g>
</svg>

<style type='text/css'>
<![CDATA[
[data-mouse-over-selected='false'] { opacity: 0.7; }
[data-mouse-over-selected='true']  { opacity: 1.0; }
]]>
</style>
<script type="application/ecmascript"><![CDATA[
document.addEventListener('DOMContentLoaded', (event) => {
  highlightEdges();
  highlightAdjacentNodes();
});
]]></script>
</svg>
