<?xml version="1.0" encoding="UTF-8" standalone="no"?>
<!DOCTYPE svg PUBLIC "-//W3C//DTD SVG 1.1//EN"
 "http://www.w3.org/Graphics/SVG/1.1/DTD/svg11.dtd">
<!-- Generated by graphviz version 2.43.0 (0)
 -->
<!-- Title: Source/Variant.h Pages: 1 -->
<svg width="291pt" height="137pt"
 viewBox="0.00 0.00 290.50 137.00" xmlns="http://www.w3.org/2000/svg" xmlns:xlink="http://www.w3.org/1999/xlink">
<g id="graph0" class="graph" transform="scale(1 1) rotate(0) translate(4 133)">
<title>Source/Variant.h</title>
<!-- Node1 -->
<g id="Node000001" class="node">
<title>Node1</title>
<g id="a_Node000001"><a xlink:title=" ">
<polygon fill="#999999" stroke="#666666" points="120,-129 24,-129 24,-110 120,-110 120,-129"/>
<text text-anchor="middle" x="72" y="-117" font-family="Helvetica,sans-Serif" font-size="10.00">Source/Variant.h</text>
</a>
</g>
</g>
<!-- Node2 -->
<g id="Node000002" class="node">
<title>Node2</title>
<g id="a_Node000002"><a xlink:title=" ">
<polygon fill="#e0e0e0" stroke="#999999" points="50,-19 0,-19 0,0 50,0 50,-19"/>
<text text-anchor="middle" x="25" y="-7" font-family="Helvetica,sans-Serif" font-size="10.00">cstdint</text>
</a>
</g>
</g>
<!-- Node1&#45;&gt;Node2 -->
<g id="edge1_Node000001_Node000002" class="edge">
<title>Node1&#45;&gt;Node2</title>
<g id="a_edge1_Node000001_Node000002"><a xlink:title=" ">
<path fill="none" stroke="#63b8ff" d="M48.89,-109.98C33.41,-102.92 14.24,-91.23 5,-74 -2.91,-59.25 4.53,-40.86 12.49,-27.67"/>
<polygon fill="#63b8ff" stroke="#63b8ff" points="15.55,-29.39 18.16,-19.12 9.72,-25.52 15.55,-29.39"/>
</a>
</g>
</g>
<!-- Node3 -->
<g id="Node000003" class="node">
<title>Node3</title>
<g id="a_Node000003"><a xlink:title=" ">
<polygon fill="#e0e0e0" stroke="#999999" points="65.5,-74 14.5,-74 14.5,-55 65.5,-55 65.5,-74"/>
<text text-anchor="middle" x="40" y="-62" font-family="Helvetica,sans-Serif" font-size="10.00">variant</text>
</a>
</g>
</g>
<!-- Node1&#45;&gt;Node3 -->
<g id="edge2_Node000001_Node000003" class="edge">
<title>Node1&#45;&gt;Node3</title>
<g id="a_edge2_Node000001_Node000003"><a xlink:title=" ">
<path fill="none" stroke="#63b8ff" d="M66.72,-109.75C62.29,-102.42 55.84,-91.73 50.38,-82.7"/>
<polygon fill="#63b8ff" stroke="#63b8ff" points="53.35,-80.84 45.19,-74.09 47.36,-84.46 53.35,-80.84"/>
</a>
</g>
</g>
<!-- Node4 -->
<g id="Node000004" class="node">
<title>Node4</title>
<g id="a_Node000004"><a xlink:title=" ">
<polygon fill="#e0e0e0" stroke="#999999" points="126,-74 84,-74 84,-55 126,-55 126,-74"/>
<text text-anchor="middle" x="105" y="-62" font-family="Helvetica,sans-Serif" font-size="10.00">array</text>
</a>
</g>
</g>
<!-- Node1&#45;&gt;Node4 -->
<g id="edge3_Node000001_Node000004" class="edge">
<title>Node1&#45;&gt;Node4</title>
<g id="a_edge3_Node000001_Node000004"><a xlink:title=" ">
<path fill="none" stroke="#63b8ff" d="M77.45,-109.75C82.01,-102.42 88.67,-91.73 94.29,-82.7"/>
<polygon fill="#63b8ff" stroke="#63b8ff" points="97.34,-84.43 99.65,-74.09 91.4,-80.73 97.34,-84.43"/>
</a>
</g>
</g>
<!-- Node5 -->
<g id="Node000005" class="node">
<title>Node5</title>
<g id="a_Node000005"><a xlink:href="Ocp1DataTypes_8h.html" target="_top" xlink:title=" ">
<polygon fill="white" stroke="#666666" points="245.5,-74 144.5,-74 144.5,-55 245.5,-55 245.5,-74"/>
<text text-anchor="middle" x="195" y="-62" font-family="Helvetica,sans-Serif" font-size="10.00">Ocp1DataTypes.h</text>
</a>
</g>
</g>
<!-- Node1&#45;&gt;Node5 -->
<g id="edge4_Node000001_Node000005" class="edge">
<title>Node1&#45;&gt;Node5</title>
<g id="a_edge4_Node000001_Node000005"><a xlink:title=" ">
<path fill="none" stroke="#63b8ff" d="M91.76,-109.98C111.73,-101.38 142.8,-87.99 165.65,-78.15"/>
<polygon fill="#63b8ff" stroke="#63b8ff" points="167.08,-81.34 174.88,-74.17 164.31,-74.91 167.08,-81.34"/>
</a>
</g>
</g>
<!-- Node5&#45;&gt;Node2 -->
<g id="edge8_Node000005_Node000002" class="edge">
<title>Node5&#45;&gt;Node2</title>
<g id="a_edge8_Node000005_Node000002"><a xlink:title=" ">
<path fill="none" stroke="#63b8ff" d="M167.69,-54.98C138.38,-45.85 91.76,-31.31 59.84,-21.36"/>
<polygon fill="#63b8ff" stroke="#63b8ff" points="60.62,-17.94 50.03,-18.3 58.53,-24.62 60.62,-17.94"/>
</a>
</g>
</g>
<!-- Node6 -->
<g id="Node000006" class="node">
<title>Node6</title>
<g id="a_Node000006"><a xlink:title=" ">
<polygon fill="#e0e0e0" stroke="#999999" points="154.5,-19 107.5,-19 107.5,0 154.5,0 154.5,-19"/>
<text text-anchor="middle" x="131" y="-7" font-family="Helvetica,sans-Serif" font-size="10.00">vector</text>
</a>
</g>
</g>
<!-- Node5&#45;&gt;Node6 -->
<g id="edge5_Node000005_Node000006" class="edge">
<title>Node5&#45;&gt;Node6</title>
<g id="a_edge5_Node000005_Node000006"><a xlink:title=" ">
<path fill="none" stroke="#63b8ff" d="M184.72,-54.98C175.16,-47.07 160.72,-35.11 149.22,-25.58"/>
<polygon fill="#63b8ff" stroke="#63b8ff" points="151.4,-22.85 141.47,-19.17 146.94,-28.24 151.4,-22.85"/>
</a>
</g>
</g>
<!-- Node7 -->
<g id="Node000007" class="node">
<title>Node7</title>
<g id="a_Node000007"><a xlink:title=" ">
<polygon fill="#e0e0e0" stroke="#999999" points="217,-19 173,-19 173,0 217,0 217,-19"/>
<text text-anchor="middle" x="195" y="-7" font-family="Helvetica,sans-Serif" font-size="10.00">string</text>
</a>
</g>
</g>
<!-- Node5&#45;&gt;Node7 -->
<g id="edge6_Node000005_Node000007" class="edge">
<title>Node5&#45;&gt;Node7</title>
<g id="a_edge6_Node000005_Node000007"><a xlink:title=" ">
<path fill="none" stroke="#63b8ff" d="M195,-54.75C195,-47.8 195,-37.85 195,-29.13"/>
<polygon fill="#63b8ff" stroke="#63b8ff" points="198.5,-29.09 195,-19.09 191.5,-29.09 198.5,-29.09"/>
</a>
</g>
</g>
<!-- Node8 -->
<g id="Node000008" class="node">
<title>Node8</title>
<g id="a_Node000008"><a xlink:title=" ">
<polygon fill="#e0e0e0" stroke="#999999" points="282.5,-19 235.5,-19 235.5,0 282.5,0 282.5,-19"/>
<text text-anchor="middle" x="259" y="-7" font-family="Helvetica,sans-Serif" font-size="10.00">cmath</text>
</a>
</g>
</g>
<!-- Node5&#45;&gt;Node8 -->
<g id="edge7_Node000005_Node000008" class="edge">
<title>Node5&#45;&gt;Node8</title>
<g id="a_edge7_Node000005_Node000008"><a xlink:title=" ">
<path fill="none" stroke="#63b8ff" d="M205.28,-54.98C214.84,-47.07 229.28,-35.11 240.78,-25.58"/>
<polygon fill="#63b8ff" stroke="#63b8ff" points="243.06,-28.24 248.53,-19.17 238.6,-22.85 243.06,-28.24"/>
</a>
</g>
</g>
</g>
</svg>
